<?xml version="1.0" encoding="UTF-8"?>
<svg version="1.1" xmlns="http://www.w3.org/2000/svg" width="206" height="116">
<path d="M0 0 C2.0275555 0.05467511 4.05445043 0.08365276 6.08251953 0.11206055 C13.58618489 0.32358821 20.95974449 0.64212887 27.43017578 4.86791992 C27.92517578 6.35291992 27.92517578 6.35291992 28.43017578 7.86791992 C29.09017578 7.86791992 29.75017578 7.86791992 30.43017578 7.86791992 C32.22341608 23.92911567 32.22341608 23.92911567 27.43017578 31.86791992 C27.65705078 32.71354492 27.88392578 33.55916992 28.11767578 34.43041992 C28.22080078 35.23479492 28.32392578 36.03916992 28.43017578 36.86791992 C26.35498651 39.49424347 23.94635389 41.67069397 21.43017578 43.86791992 C21.10017578 44.19791992 20.77017578 44.52791992 20.43017578 44.86791992 C21.41115234 44.69389648 22.39212891 44.51987305 23.40283203 44.34057617 C27.61878707 43.73829688 31.63700323 43.96866922 35.86767578 44.30541992 C36.59921875 44.35762695 37.33076172 44.40983398 38.08447266 44.46362305 C39.86686201 44.59176869 41.64860148 44.72890152 43.43017578 44.86791992 C43.43017578 44.20791992 43.43017578 43.54791992 43.43017578 42.86791992 C44.09017578 42.86791992 44.75017578 42.86791992 45.43017578 42.86791992 C45.43017578 43.52791992 45.43017578 44.18791992 45.43017578 44.86791992 C47.74017578 45.19791992 50.05017578 45.52791992 52.43017578 45.86791992 C52.10017578 47.18791992 51.77017578 48.50791992 51.43017578 49.86791992 C50.44017578 49.86791992 49.45017578 49.86791992 48.43017578 49.86791992 C48.10017578 52.17791992 47.77017578 54.48791992 47.43017578 56.86791992 C50.93041434 56.72749497 54.43029977 56.57958767 57.93017578 56.43041992 C58.91244141 56.39110352 59.89470703 56.35178711 60.90673828 56.3112793 C66.46748168 56.07031375 71.91872887 55.64870823 77.43017578 54.86791992 C76.77017578 54.53791992 76.11017578 54.20791992 75.43017578 53.86791992 C75.43017578 53.20791992 75.43017578 52.54791992 75.43017578 51.86791992 C76.42017578 51.86791992 77.41017578 51.86791992 78.43017578 51.86791992 C78.43017578 50.21791992 78.43017578 48.56791992 78.43017578 46.86791992 C73.10149595 45.75850625 67.96735723 45.75243923 62.55517578 45.80541992 C61.67603516 45.80993164 60.79689453 45.81444336 59.89111328 45.8190918 C57.73743775 45.83079656 55.58379761 45.84872923 53.43017578 45.86791992 C53.43017578 44.87791992 53.43017578 43.88791992 53.43017578 42.86791992 C52.44017578 43.85791992 52.44017578 43.85791992 51.43017578 44.86791992 C51.43017578 39.58791992 51.43017578 34.30791992 51.43017578 28.86791992 C46.15017578 28.86791992 40.87017578 28.86791992 35.43017578 28.86791992 C35.43017578 26.22791992 35.43017578 23.58791992 35.43017578 20.86791992 C36.09017578 20.86791992 36.75017578 20.86791992 37.43017578 20.86791992 C37.76710363 19.26450437 38.09958671 17.66015438 38.43017578 16.05541992 C38.70861328 14.71543945 38.70861328 14.71543945 38.99267578 13.34838867 C39.51702421 10.79531299 39.51702421 10.79531299 39.43017578 7.86791992 C40.09017578 7.86791992 40.75017578 7.86791992 41.43017578 7.86791992 C41.82205078 6.89854492 42.21392578 5.92916992 42.61767578 4.93041992 C44.43017578 1.86791992 44.43017578 1.86791992 46.62358093 1.1778717 C49.83136228 0.82361411 52.92031867 0.79148167 56.14819336 0.84619141 C57.1295224 0.86060272 57.1295224 0.86060272 58.13067627 0.87530518 C60.27880243 0.90811145 62.42671334 0.94851259 64.57470703 0.98901367 C66.06970984 1.01333279 67.56472047 1.03717544 69.05973816 1.06056213 C72.98396755 1.12322486 76.90805751 1.19234138 80.83215332 1.26281738 C84.84067465 1.33366227 88.84929439 1.39838237 92.85791016 1.46362305 C100.71544106 1.59240561 108.5728352 1.72800862 116.43017578 1.86791992 C117.56601034 5.58519667 117.09687604 7.33843702 115.43017578 10.86791992 C115.76017578 11.19791992 116.09017578 11.52791992 116.43017578 11.86791992 C116.34079776 13.39311268 116.18480432 14.91473921 115.99267578 16.43041992 C115.83992188 17.66985352 115.83992188 17.66985352 115.68408203 18.93432617 C115.60029297 19.57241211 115.51650391 20.21049805 115.43017578 20.86791992 C114.44017578 20.76479492 113.45017578 20.66166992 112.43017578 20.55541992 C108.14710575 20.51180414 105.54406551 22.35907846 102.12939453 24.77416992 C100.43017578 25.86791992 100.43017578 25.86791992 98.43017578 25.86791992 C98.43017578 27.18791992 98.43017578 28.50791992 98.43017578 29.86791992 C99.09017578 29.86791992 99.75017578 29.86791992 100.43017578 29.86791992 C100.43017578 30.52791992 100.43017578 31.18791992 100.43017578 31.86791992 C101.09017578 31.86791992 101.75017578 31.86791992 102.43017578 31.86791992 C102.43017578 32.52791992 102.43017578 33.18791992 102.43017578 33.86791992 C103.09017578 33.86791992 103.75017578 33.86791992 104.43017578 33.86791992 C106.43017578 36.86791992 106.43017578 36.86791992 106.43017578 39.86791992 C107.09017578 40.19791992 107.75017578 40.52791992 108.43017578 40.86791992 C107.6511325 54.50117733 107.6511325 54.50117733 105.43017578 60.86791992 C104.11017578 60.86791992 102.79017578 60.86791992 101.43017578 60.86791992 C102.38794922 57.92618722 103.36013487 55.03523987 104.55517578 52.18041992 C105.60712183 49.81236097 105.60712183 49.81236097 105.43017578 46.86791992 C101.3518926 56.77232193 99.88270021 66.17898077 99.43017578 76.86791992 C96.79017578 76.86791992 94.15017578 76.86791992 91.43017578 76.86791992 C91.43017578 75.54791992 91.43017578 74.22791992 91.43017578 72.86791992 C86.40954116 73.28630614 81.87596757 73.9814569 77.03955078 75.39526367 C69.8096063 77.23937677 62.85361572 77.23899539 55.43017578 77.11791992 C54.13466797 77.11276367 52.83916016 77.10760742 51.50439453 77.10229492 C41.96712601 77.02306528 41.96712601 77.02306528 39.22314453 76.23022461 C38.63146484 76.11066406 38.03978516 75.99110352 37.43017578 75.86791992 C36.44017578 76.52791992 35.45017578 77.18791992 34.43017578 77.86791992 C32.94517578 77.37291992 32.94517578 77.37291992 31.43017578 76.86791992 C31.43017578 76.20791992 31.43017578 75.54791992 31.43017578 74.86791992 C29.78017578 74.20791992 28.13017578 73.54791992 26.43017578 72.86791992 C26.43017578 71.87791992 26.43017578 70.88791992 26.43017578 69.86791992 C25.77017578 68.87791992 25.11017578 67.88791992 24.43017578 66.86791992 C24.43017578 67.52791992 24.43017578 68.18791992 24.43017578 68.86791992 C23.44017578 68.86791992 22.45017578 68.86791992 21.43017578 68.86791992 C20.44017578 64.41291992 20.44017578 64.41291992 19.43017578 59.86791992 C18.77017578 59.86791992 18.11017578 59.86791992 17.43017578 59.86791992 C16.83164956 63.53389303 16.42850134 66.83498932 16.61767578 70.55541992 C16.43017578 73.86791992 16.43017578 73.86791992 14.87713623 76.04656982 C11.64455437 78.4526828 8.96387394 78.40309558 5.09130859 78.32202148 C4.3592067 78.32260559 3.6271048 78.3231897 2.87281799 78.3237915 C0.45915892 78.32101044 -1.95325661 78.28991952 -4.36669922 78.25854492 C-6.04249395 78.25108256 -7.71829742 78.2453896 -9.394104 78.24139404 C-13.80019311 78.22613722 -18.20575298 78.18685532 -22.6116333 78.14257812 C-27.10934286 78.10162627 -31.60713812 78.08338323 -36.10498047 78.06323242 C-44.9268273 78.02036085 -53.74828171 77.95210915 -62.56982422 77.86791992 C-62.89982422 77.20791992 -63.22982422 76.54791992 -63.56982422 75.86791992 C-63.89982422 75.86791992 -64.22982422 75.86791992 -64.56982422 75.86791992 C-64.89982422 73.55791992 -65.22982422 71.24791992 -65.56982422 68.86791992 C-64.08482422 68.37291992 -64.08482422 68.37291992 -62.56982422 67.86791992 C-61.80184643 66.09543035 -61.80184643 66.09543035 -61.44482422 63.99291992 C-60.9256413 61.52452392 -60.37149866 59.27294325 -59.56982422 56.86791992 C-60.22982422 56.53791992 -60.88982422 56.20791992 -61.56982422 55.86791992 C-60.29586532 53.82958568 -58.95920499 51.82939866 -57.56982422 49.86791992 C-56.90982422 49.86791992 -56.24982422 49.86791992 -55.56982422 49.86791992 C-54.90982422 47.55791992 -54.24982422 45.24791992 -53.56982422 42.86791992 C-52.76544922 42.74416992 -51.96107422 42.62041992 -51.13232422 42.49291992 C-50.28669922 42.28666992 -49.44107422 42.08041992 -48.56982422 41.86791992 C-46.2143186 37.15690868 -47.60866849 30.86592973 -48.56982422 25.86791992 C-49.22982422 24.87791992 -49.88982422 23.88791992 -50.56982422 22.86791992 C-49.57982422 22.53791992 -48.58982422 22.20791992 -47.56982422 21.86791992 C-46.56339474 20.53943301 -45.56290243 19.20641664 -44.56982422 17.86791992 C-43.90982422 17.86791992 -43.24982422 17.86791992 -42.56982422 17.86791992 C-42.23982422 15.55791992 -41.90982422 13.24791992 -41.56982422 10.86791992 C-39.91982422 10.86791992 -38.26982422 10.86791992 -36.56982422 10.86791992 C-36.89982422 9.87791992 -37.22982422 8.88791992 -37.56982422 7.86791992 C-35.91982422 7.86791992 -34.26982422 7.86791992 -32.56982422 7.86791992 C-32.56982422 7.20791992 -32.56982422 6.54791992 -32.56982422 5.86791992 C-30.25982422 5.20791992 -27.94982422 4.54791992 -25.56982422 3.86791992 C-25.56982422 3.20791992 -25.56982422 2.54791992 -25.56982422 1.86791992 C-24.96654297 1.80733398 -24.36326172 1.74674805 -23.74169922 1.68432617 C-22.54287109 1.55864258 -22.54287109 1.55864258 -21.31982422 1.43041992 C-20.53091797 1.34920898 -19.74201172 1.26799805 -18.92919922 1.18432617 C-16.65084949 0.94143021 -16.65084949 0.94143021 -14.83496094 0.34936523 C-9.99525483 -0.67929401 -4.92046225 -0.14409673 0 0 Z M-21.56982422 20.86791992 C-21.23982422 23.50791992 -20.90982422 26.14791992 -20.56982422 28.86791992 C-22.21982422 28.53791992 -23.86982422 28.20791992 -25.56982422 27.86791992 C-25.89982422 28.85791992 -26.22982422 29.84791992 -26.56982422 30.86791992 C-24.25982422 31.19791992 -21.94982422 31.52791992 -19.56982422 31.86791992 C-19.56982422 32.19791992 -19.56982422 32.52791992 -19.56982422 32.86791992 C-17.58982422 32.86791992 -15.60982422 32.86791992 -13.56982422 32.86791992 C-13.56982422 31.87791992 -13.56982422 30.88791992 -13.56982422 29.86791992 C-12.57982422 29.86791992 -11.58982422 29.86791992 -10.56982422 29.86791992 C-10.56982422 30.85791992 -10.56982422 31.84791992 -10.56982422 32.86791992 C-9.57982422 32.86791992 -8.58982422 32.86791992 -7.56982422 32.86791992 C-7.56982422 31.87791992 -7.56982422 30.88791992 -7.56982422 29.86791992 C-4.26982422 29.53791992 -0.96982422 29.20791992 2.43017578 28.86791992 C2.76017578 29.52791992 3.09017578 30.18791992 3.43017578 30.86791992 C5.5655075 28.26838566 6.99476682 26.24233938 7.43017578 22.86791992 C6.93517578 21.38291992 6.93517578 21.38291992 6.43017578 19.86791992 C2.14673147 18.44010515 -1.95829665 18.68361091 -6.44482422 18.68041992 C-7.34330078 18.66817383 -8.24177734 18.65592773 -9.16748047 18.64331055 C-13.73514692 18.63319016 -17.4308587 18.67721223 -21.56982422 20.86791992 Z M7.43017578 19.86791992 C8.43017578 21.86791992 8.43017578 21.86791992 8.43017578 21.86791992 Z M39.43017578 19.86791992 C39.43017578 20.19791992 39.43017578 20.52791992 39.43017578 20.86791992 C43.7901004 21.01095558 48.15004519 21.15335502 52.51000977 21.29516602 C53.99308839 21.34349378 55.47616137 21.39199512 56.95922852 21.44067383 C59.09145672 21.51062976 61.22370448 21.57996062 63.35595703 21.64916992 C64.63897705 21.69106445 65.92199707 21.73295898 67.24389648 21.77612305 C69.30536125 21.83551396 71.36785567 21.86791992 73.43017578 21.86791992 C74.09017578 21.20791992 74.75017578 20.54791992 75.43017578 19.86791992 C63.55017578 19.86791992 51.67017578 19.86791992 39.43017578 19.86791992 Z M-23.56982422 22.86791992 C-24.22982422 24.18791992 -24.88982422 25.50791992 -25.56982422 26.86791992 C-24.24982422 26.20791992 -22.92982422 25.54791992 -21.56982422 24.86791992 C-22.22982422 24.20791992 -22.88982422 23.54791992 -23.56982422 22.86791992 Z M64.43017578 24.86791992 C64.76017578 25.52791992 65.09017578 26.18791992 65.43017578 26.86791992 C65.76017578 26.20791992 66.09017578 25.54791992 66.43017578 24.86791992 C65.77017578 24.86791992 65.11017578 24.86791992 64.43017578 24.86791992 Z M58.43017578 28.86791992 C59.43017578 30.86791992 59.43017578 30.86791992 59.43017578 30.86791992 Z M93.43017578 28.86791992 C93.76017578 29.85791992 94.09017578 30.84791992 94.43017578 31.86791992 C96.44525936 32.60115788 96.44525936 32.60115788 98.43017578 32.86791992 C98.10017578 31.87791992 97.77017578 30.88791992 97.43017578 29.86791992 C95.4150922 29.13468196 95.4150922 29.13468196 93.43017578 28.86791992 Z M-3.56982422 29.86791992 C-3.89982422 30.52791992 -4.22982422 31.18791992 -4.56982422 31.86791992 C-3.24982422 31.20791992 -1.92982422 30.54791992 -0.56982422 29.86791992 C-1.55982422 29.86791992 -2.54982422 29.86791992 -3.56982422 29.86791992 Z M-45.56982422 30.86791992 C-45.56982422 31.19791992 -45.56982422 31.52791992 -45.56982422 31.86791992 C-43.25982422 31.86791992 -40.94982422 31.86791992 -38.56982422 31.86791992 C-38.56982422 31.53791992 -38.56982422 31.20791992 -38.56982422 30.86791992 C-40.87982422 30.86791992 -43.18982422 30.86791992 -45.56982422 30.86791992 Z M55.43017578 36.86791992 C55.10017578 38.18791992 54.77017578 39.50791992 54.43017578 40.86791992 C55.09017578 40.53791992 55.75017578 40.20791992 56.43017578 39.86791992 C56.10017578 38.87791992 55.77017578 37.88791992 55.43017578 36.86791992 Z M7.24267578 46.80541992 C1.74758101 48.88134461 -3.98211959 48.97488721 -9.79125977 49.15820312 C-21.64338276 49.10270543 -21.64338276 49.10270543 -32.56982422 52.86791992 C-32.89982422 54.18791992 -33.22982422 55.50791992 -33.56982422 56.86791992 C-16.07982422 56.86791992 1.41017578 56.86791992 19.43017578 56.86791992 C19.43017578 55.54791992 19.43017578 54.22791992 19.43017578 52.86791992 C16.79017578 52.86791992 14.15017578 52.86791992 11.43017578 52.86791992 C11.43017578 50.55791992 11.43017578 48.24791992 11.43017578 45.86791992 C9.33990261 45.73661349 9.33990261 45.73661349 7.24267578 46.80541992 Z M-57.56982422 51.86791992 C-56.56982422 53.86791992 -56.56982422 53.86791992 -56.56982422 53.86791992 Z M23.43017578 53.86791992 C24.43017578 55.86791992 24.43017578 55.86791992 24.43017578 55.86791992 Z M22.43017578 57.86791992 C23.43017578 60.86791992 23.43017578 60.86791992 23.43017578 60.86791992 Z M57.43017578 57.86791992 C57.43017578 58.19791992 57.43017578 58.52791992 57.43017578 58.86791992 C60.73017578 58.86791992 64.03017578 58.86791992 67.43017578 58.86791992 C67.43017578 58.53791992 67.43017578 58.20791992 67.43017578 57.86791992 C64.13017578 57.86791992 60.83017578 57.86791992 57.43017578 57.86791992 Z M23.43017578 61.86791992 C24.43017578 63.86791992 24.43017578 63.86791992 24.43017578 63.86791992 Z M14.43017578 67.86791992 C15.43017578 69.86791992 15.43017578 69.86791992 15.43017578 69.86791992 Z M95.43017578 67.86791992 C96.43017578 69.86791992 96.43017578 69.86791992 96.43017578 69.86791992 Z M89.43017578 69.86791992 C90.43017578 71.86791992 90.43017578 71.86791992 90.43017578 71.86791992 Z " fill="#010101" transform="translate(76.56982421875,19.132080078125)"/>
<path d="M0 0 C3.63 0 7.26 0 11 0 C11 0.33 11 0.66 11 1 C7.37 1 3.74 1 0 1 C0 0.67 0 0.34 0 0 Z " fill="#000000" transform="translate(183,41)"/>
<path d="M0 0 C2 1 2 1 2 1 Z " fill="#010101" transform="translate(159,93)"/>
<path d="M0 0 C2 1 2 1 2 1 Z " fill="#000000" transform="translate(27,59)"/>
</svg>
