<?xml version="1.0" encoding="UTF-8"?>
<svg version="1.1" xmlns="http://www.w3.org/2000/svg" width="206" height="116">
<path d="M0 0 C43.56 0 87.12 0 132 0 C131 12 131 12 130 16 C129.01 15.67 128.02 15.34 127 15 C127.061875 16.2375 127.12375 17.475 127.1875 18.75 C127.16838905 21.44942143 127.03152442 22.92767928 125.9375 25.4375 C123.14185304 27.692054 120.51133134 27.73499386 117 28 C117.99 28.99 117.99 28.99 119 30 C113.555 30.495 113.555 30.495 108 31 C109.175625 32.3303125 109.175625 32.3303125 110.375 33.6875 C115.44220131 39.42143832 115.46782898 45.395435 115.40234375 52.7734375 C114.95038496 59.81604807 112.41832615 66.42733499 110 73 C109.34 73 108.68 73 108 73 C108 77.29 108 81.58 108 86 C105.36 86 102.72 86 100 86 C100.061875 86.763125 100.12375 87.52625 100.1875 88.3125 C100 91 100 91 98.84765625 92.6328125 C96.3043891 94.51472265 94.38898437 94.43901204 91.25 94.5625 C87.89674291 94.70436857 85.15921482 94.94801018 81.95776367 95.9934082 C77.1782569 97.39414138 72.42185707 97.35376954 67.47265625 97.4140625 C66.48373886 97.43342865 65.49482147 97.4527948 64.47593689 97.4727478 C61.33821049 97.53220622 58.20044672 97.57879356 55.0625 97.625 C52.92641689 97.66321084 50.79034867 97.70226436 48.65429688 97.7421875 C43.43631986 97.83787992 38.21827077 97.92203495 33 98 C32.505 93.545 32.505 93.545 32 89 C31.443125 89.763125 30.88625 90.52625 30.3125 91.3125 C21.22093119 100.10639125 2.71964933 97.33509814 -8.8125 97.1875 C-10.87303706 97.17242171 -12.93358483 97.15873889 -14.99414062 97.14648438 C-19.99658015 97.11631285 -24.99750464 97.05754895 -30 97 C-30 87.76 -30 78.52 -30 69 C-25.88144531 68.92652344 -25.88144531 68.92652344 -21.6796875 68.8515625 C-19.00873554 68.79749087 -16.33787032 68.7402077 -13.66699219 68.68261719 C-11.81647249 68.64442878 -9.96588113 68.60955849 -8.11523438 68.578125 C-5.44895893 68.53225359 -2.78317252 68.47429641 -0.1171875 68.4140625 C0.70492218 68.40251129 1.52703186 68.39096008 2.37405396 68.37905884 C7.90808284 68.23814954 12.6815632 67.7388276 17.25 64.3125 C19.47399031 61.37365566 20.17764492 58.56353869 21 55 C12.11190297 55.15913733 12.11190297 55.15913733 5 60 C3.6078125 61.36125 3.6078125 61.36125 2.1875 62.75 C1.1046875 63.86375 1.1046875 63.86375 0 65 C0 64.34 0 63.68 0 63 C-7.59 63 -15.18 63 -23 63 C-23.33 61.35 -23.66 59.7 -24 58 C-23.01 57.505 -23.01 57.505 -22 57 C-20.2944436 52.84734095 -18.88190497 48.64371169 -17.5 44.375 C-16.64552997 41.7626359 -15.75742288 39.52495313 -14.5 37.0625 C-12.79182299 33.57497195 -11.775855 30.10225374 -10.74609375 26.3671875 C-10.02529626 24.08025935 -9.1168066 22.11628333 -8 20 C-6.41466622 16.49905457 -5.03948511 13.14066571 -4 9.4375 C-3 6 -3 6 0 0 Z M33 29 C36.63 29.66 40.26 30.32 44 31 C44.33 31.99 44.66 32.98 45 34 C46.62332967 35.38576923 48.28724465 36.72641268 50 38 C51.32 34.37 52.64 30.74 54 27 C51.06225537 26.94609643 48.12549768 26.9063745 45.1875 26.875 C44.35412109 26.85824219 43.52074219 26.84148438 42.66210938 26.82421875 C41.45844727 26.81455078 41.45844727 26.81455078 40.23046875 26.8046875 C39.49207764 26.79421387 38.75368652 26.78374023 37.99291992 26.77294922 C35.68109324 26.88258521 35.68109324 26.88258521 33 29 Z M85 27 C85 27.33 85 27.66 85 28 C87.31 28 89.62 28 92 28 C92 27.67 92 27.34 92 27 C89.69 27 87.38 27 85 27 Z M96 27 C96.33 27.66 96.66 28.32 97 29 C97.66 28.67 98.32 28.34 99 28 C98.01 27.67 97.02 27.34 96 27 Z M68 58 C67.44699219 58.6909375 66.89398438 59.381875 66.32421875 60.09375 C63.14939112 62.69764224 60.19077804 62.66805566 56.25 62.75 C55.20392578 62.79447266 55.20392578 62.79447266 54.13671875 62.83984375 C52.42509187 62.91018458 50.71254185 62.95739946 49 63 C48.34 64.98 47.68 66.96 47 69 C51.16653186 69.08777806 55.33282276 69.14065272 59.5 69.1875 C60.67304687 69.21263672 61.84609375 69.23777344 63.0546875 69.26367188 C69.7293273 69.31991884 75.02106416 69.11281975 81 66 C81.33 65.01 81.66 64.02 82 63 C82.66 62.67 83.32 62.34 84 62 C84.46523063 60.10466658 84.46523063 60.10466658 84.625 57.9375 C84.810625 55.9884375 84.810625 55.9884375 85 54 C75.78603567 53.40803931 75.78603567 53.40803931 68 58 Z " fill="#F4C31D" transform="translate(52,10)"/>
<path d="M0 0 C19.47 0 38.94 0 59 0 C57.26251103 6.0812114 55.16137291 12.0562245 53 18 C39.14 18.33 25.28 18.66 11 19 C9.02 23.62 7.04 28.24 5 33 C5.96035156 32.3503125 6.92070313 31.700625 7.91015625 31.03125 C12.39291075 28.47933745 16.37146722 28.40342749 21.4375 28.5 C22.24509766 28.48453125 23.05269531 28.4690625 23.88476562 28.453125 C29.69677329 28.49059161 34.14802446 29.74646571 39 33 C43.41749122 37.64402923 44.47415642 41.66814422 44.41015625 47.921875 C42.80248051 59.98709863 35.61544058 73.86933307 26.21875 81.53125 C20.31328875 85.440499 13.09237649 88.13666356 5.96582031 88.11352539 C4.79505951 88.11341209 4.79505951 88.11341209 3.60064697 88.11329651 C2.76821472 88.10813522 1.93578247 88.10297394 1.078125 88.09765625 C0.21813904 88.0962413 -0.64184692 88.09482635 -1.52789307 88.09336853 C-4.26863109 88.08778097 -7.00928676 88.07523075 -9.75 88.0625 C-11.6106759 88.05748339 -13.47135309 88.05292077 -15.33203125 88.04882812 C-19.88807792 88.03866745 -24.44394701 88.01908961 -29 88 C-29 82.06 -29 76.12 -29 70 C-26.48246094 69.95101562 -23.96492188 69.90203125 -21.37109375 69.8515625 C-18.91522615 69.79745155 -16.45945085 69.74018395 -14.00366211 69.68261719 C-12.30549076 69.64448871 -10.60724308 69.60960854 -8.90893555 69.578125 C-6.45854533 69.53212178 -4.00867333 69.47418849 -1.55859375 69.4140625 C-0.80726669 69.40251129 -0.05593964 69.39096008 0.71815491 69.37905884 C6.51723441 69.21907137 11.49729572 67.83423476 17 66 C18.10168984 64.30230766 18.10168984 64.30230766 19 62 C19.515625 60.9275 20.03125 59.855 20.5625 58.75 C22.22904739 54.86980634 22.63236401 51.19105026 23 47 C15.57491402 45.01997707 8.59151823 45.08710086 1.7890625 48.734375 C-0.14231339 49.98204093 -0.14231339 49.98204093 -1.7421875 52.125 C-4.91855787 54.76281623 -7.82451013 54.44293523 -11.75 54.25 C-12.44738281 54.23195312 -13.14476563 54.21390625 -13.86328125 54.1953125 C-15.57611539 54.14838554 -17.28823824 54.07664605 -19 54 C-18.41930726 48.6658605 -17.13994335 44.08478541 -15.234375 39.08203125 C-14.95909973 38.34353439 -14.68382446 37.60503754 -14.40020752 36.84416199 C-13.818443 35.28736826 -13.23332084 33.73182554 -12.64501953 32.17749023 C-11.76005097 29.83905859 -10.88495098 27.4971331 -10.01171875 25.15429688 C-9.44068426 23.62999089 -8.86908681 22.10589567 -8.296875 20.58203125 C-8.04145935 19.90034378 -7.7860437 19.21865631 -7.52288818 18.51631165 C-5.15727117 12.27447438 -2.57222449 6.17333876 0 0 Z " fill="#E30913" transform="translate(119,14)"/>
<path d="M0 0 C19.47 0 38.94 0 59 0 C58 6 58 6 53 18 C39.14 18.33 25.28 18.66 11 19 C9.68 22.63 8.36 26.26 7 30 C7.33 30.33 7.66 30.66 8 31 C8.96292969 30.51466797 8.96292969 30.51466797 9.9453125 30.01953125 C13.98696088 28.67059234 17.64349265 28.67012928 21.875 28.6875 C23.04095703 28.66333008 23.04095703 28.66333008 24.23046875 28.63867188 C30.91767006 28.63305238 35.51645279 30.05635436 40.875 34.25 C43.52728648 37.68237074 43.75567708 39.68658993 44 44 C43.00390625 47.74609375 43.00390625 47.74609375 41.5625 51.4375 C41.31951172 52.07365234 41.07652344 52.70980469 40.82617188 53.36523438 C40.23164238 54.91567403 39.61780742 56.45868807 39 58 C39.66 58 40.32 58 41 58 C40.45276317 61.37462715 39.9451 63.08235 38 66 C34.375 66.1875 34.375 66.1875 31 66 C31.13921875 67.06927734 31.13921875 67.06927734 31.28125 68.16015625 C31.85576688 75.78276416 31.85576688 75.78276416 29.46484375 79.18359375 C21.18292606 86.60380902 12.53964963 88.16316684 1.76171875 88.09765625 C0.88095169 88.0962413 0.00018463 88.09482635 -0.90727234 88.09336853 C-3.70905003 88.08778937 -6.51074662 88.07524071 -9.3125 88.0625 C-11.21679572 88.05748231 -13.12109269 88.05291987 -15.02539062 88.04882812 C-19.68364983 88.03867941 -24.34173455 88.01909995 -29 88 C-29 82.06 -29 76.12 -29 70 C-25.15021484 69.96132812 -25.15021484 69.96132812 -21.22265625 69.921875 C-18.71042363 69.88335636 -16.19838948 69.83822809 -13.6862793 69.79248047 C-11.95330434 69.76442263 -10.22020503 69.74313325 -8.48706055 69.72900391 C4.9581378 70.09592139 4.9581378 70.09592139 17 65 C18.83039716 62.7185192 19.78455344 60.7226003 21 58 C21.61875 56.9790625 21.61875 56.9790625 22.25 55.9375 C23.28799012 53.25602551 23.12928361 50.84423938 23 48 C18.18512782 45.18757466 13.43085243 45.3840527 8 46 C4.00619581 47.2849055 0.93684871 48.85472876 -1.73828125 52.125 C-4.91781766 54.76088511 -7.82293067 54.44301286 -11.75 54.25 C-12.44738281 54.23195312 -13.14476562 54.21390625 -13.86328125 54.1953125 C-15.57611539 54.14838554 -17.28823824 54.07664605 -19 54 C-18.36049361 48.28206053 -16.34363078 43.30803154 -14.25 38 C-13.51966337 36.11894341 -12.79049808 34.23743163 -12.0625 32.35546875 C-11.70800781 31.44071777 -11.35351562 30.5259668 -10.98828125 29.58349609 C-9.68560668 26.17813485 -8.46070395 22.75165591 -7.25 19.3125 C-5.5490484 14.48547518 -3.73867787 9.7234153 -1.796875 4.98828125 C-1.13938675 3.34778361 -0.5588849 1.67665469 0 0 Z " fill="#E30913" transform="translate(55,14)"/>
<path d="M0 0 C4.61853406 4.24405832 7.57119375 7.97691596 8.46875 14.3046875 C8.55706561 24.39474568 6.46068746 32.59434588 3 42 C2.34 42 1.68 42 1 42 C1 46.29 1 50.58 1 55 C-0.340625 55.061875 -1.68125 55.12375 -3.0625 55.1875 C-8.28327606 55.73270763 -11.00758406 57.68714422 -15 61 C-15.9375 58.375 -15.9375 58.375 -16 55 C-14.71875 53.6171875 -14.71875 53.6171875 -12.9375 52.25 C-4.21035787 45.51417006 1.73451325 31.82955626 3.48046875 21.02734375 C3.64333104 15.88554845 2.61115687 12.49118981 0 8 C-0.95259312 4.58654134 -1.13859858 3.41579574 0 0 Z " fill="#FACA1E" transform="translate(159,41)"/>
<path d="M0 0 C0.33 0 0.66 0 1 0 C1 3.3 1 6.6 1 10 C-1.64 10 -4.28 10 -7 10 C-6.34 8.68 -5.68 7.36 -5 6 C-4.34 6 -3.68 6 -3 6 C-2.690625 5.195625 -2.38125 4.39125 -2.0625 3.5625 C-1 1 -1 1 0 0 Z " fill="#000000" transform="translate(159,86)"/>
<path d="M0 0 C0.21620175 2.6664882 0.30894168 4.44004321 -1 6.8125 C-4.23988962 8.73618446 -7.2825819 8.18282384 -11 8 C-9.33333333 6.66666667 -7.66666667 5.33333333 -6 4 C-5.0925 3.2575 -4.185 2.515 -3.25 1.75 C-1 0 -1 0 0 0 Z " fill="#020000" transform="translate(152,96)"/>
<path d="M0 0 C0.66 0 1.32 0 2 0 C1.67 0.99 1.34 1.98 1 3 C0.67 2.01 0.34 1.02 0 0 Z " fill="#000000" transform="translate(179,28)"/>
<path d="" fill="#000000" transform="translate(0,0)"/>
</svg>
