<?xml version="1.0" encoding="UTF-8"?>
<svg version="1.1" xmlns="http://www.w3.org/2000/svg" width="206" height="116">
<path d="M0 0 C1.06089844 0.15597656 2.12179688 0.31195313 3.21484375 0.47265625 C6.15397204 0.93564612 9.07685815 1.44603742 12 2 C11.52343588 3.79236067 11.04366502 5.58386897 10.5625 7.375 C10.29566406 8.37273438 10.02882813 9.37046875 9.75390625 10.3984375 C9 13 9 13 8 15 C11.19749996 13.14338712 14.26176573 11.14734435 17.3125 9.0625 C27.62003356 2.19649004 36.67620199 -0.34194383 49.06640625 -0.1953125 C49.98590561 -0.1924826 50.90540497 -0.18965271 51.85276794 -0.18673706 C54.75615093 -0.17564584 57.65921209 -0.15056263 60.5625 -0.125 C62.54491738 -0.11495588 64.52733966 -0.10583255 66.50976562 -0.09765625 C71.33996555 -0.07574286 76.16992843 -0.04129081 81 0 C81.07069194 5.32364693 80.87823353 8.95842578 79 14 C78.20064691 16.83036246 77.44212401 19.67017793 76.68359375 22.51171875 C76.17666981 24.3569219 75.60512367 26.18462899 75 28 C77.97 27.505 77.97 27.505 81 27 C81 28.32 81 29.64 81 31 C78.36 31 75.72 31 73 31 C73 33.64 73 36.28 73 39 C70.36 39 67.72 39 65 39 C65 46.26 65 53.52 65 61 C64.34 61 63.68 61 63 61 C63.04125 62.216875 63.0825 63.43375 63.125 64.6875 C63.13754508 68.21894127 62.59998217 70.80003566 61 74 C60.34 74 59.68 74 59 74 C58.01879536 77.05263664 58.01879536 78.94736336 59 82 C58.01 82.33 57.02 82.66 56 83 C56.165 83.495 56.33 83.99 56.5 84.5 C57.20688818 88.03444089 57.06005155 91.39690701 57 95 C54.36 95 51.72 95 49 95 C48.67 93.68 48.34 92.36 48 91 C47.63777344 91.63550781 47.27554688 92.27101563 46.90234375 92.92578125 C44.296983 95.76653394 42.34416942 95.75396015 38.5625 96.1875 C34.09849409 96.69085056 34.09849409 96.69085056 29.71484375 97.61328125 C28 98 28 98 26 97 C26 97.66 26 98.32 26 99 C26.66 99.33 27.32 99.66 28 100 C25.56242587 100.02698422 23.12515085 100.04683099 20.6875 100.0625 C19.99720703 100.07087891 19.30691406 100.07925781 18.59570312 100.08789062 C15.4516975 100.10307906 13.00579981 100.00193327 10 99 C7.99124558 99.27571139 5.98821313 99.60235737 4 100 C3.67 99.34 3.34 98.68 3 98 C1.11736119 97.09656316 1.11736119 97.09656316 -1.0625 96.375 C-1.79597656 96.11460938 -2.52945313 95.85421875 -3.28515625 95.5859375 C-3.85105469 95.39257812 -4.41695313 95.19921875 -5 95 C-5 95.66 -5 96.32 -5 97 C-30.08 97 -55.16 97 -81 97 C-79.87637492 89.13462442 -79.87637492 89.13462442 -78.80859375 86.140625 C-78.58623047 85.49996094 -78.36386719 84.85929687 -78.13476562 84.19921875 C-77.90466797 83.55597656 -77.67457031 82.91273437 -77.4375 82.25 C-75.60195922 77.25639697 -75.60195922 77.25639697 -75 72 C-71.41577704 69.61051803 -69.62767404 69.69766832 -65.36328125 69.5859375 C-64.06455078 69.54726562 -62.76582031 69.50859375 -61.42773438 69.46875 C-60.05599427 69.43729483 -58.68424939 69.40604749 -57.3125 69.375 C-55.92901215 69.33680803 -54.54554777 69.29775558 -53.16210938 69.2578125 C-49.7748755 69.16339483 -46.38764931 69.07781882 -43 69 C-42.32880451 67.5437455 -41.66318193 66.08492133 -41 64.625 C-40.62875 63.81289062 -40.2575 63.00078125 -39.875 62.1640625 C-38.87504987 60.08001567 -38.87504987 60.08001567 -39 58 C-38.34 58 -37.68 58 -37 58 C-36.67 56.02 -36.34 54.04 -36 52 C-36.99 53.32 -37.98 54.64 -39 56 C-39.22786458 53.94921875 -39.45572917 51.8984375 -39.68359375 49.84765625 C-39.81886614 47.98859771 -39.81886614 47.98859771 -41 47 C-42.98 47.66 -44.96 48.32 -47 49 C-47 50.98 -47 52.96 -47 55 C-47.7734375 55.02578125 -48.546875 55.0515625 -49.34375 55.078125 C-56.26816347 55.45519702 -61.03525642 56.44409517 -67 60 C-66.67 57.36 -66.34 54.72 -66 52 C-66.66 51.67 -67.32 51.34 -68 51 C-67.38125 50.484375 -66.7625 49.96875 -66.125 49.4375 C-63.23222912 46.11932164 -62 42.42648357 -62 38 C-61.34 38 -60.68 38 -60 38 C-59.83564453 37.12988281 -59.83564453 37.12988281 -59.66796875 36.2421875 C-59.43013672 35.07042969 -59.43013672 35.07042969 -59.1875 33.875 C-59.03667969 33.10929687 -58.88585937 32.34359375 -58.73046875 31.5546875 C-57.37454489 26.81257945 -56.14667029 23.76502705 -51.9440918 20.96118164 C-50.704893 20.34228983 -49.45582344 19.7428958 -48.19921875 19.16015625 C-47.52639359 18.83011093 -46.85356842 18.50006561 -46.16035461 18.16001892 C-44.0106351 17.11020927 -41.84984688 16.08600602 -39.6875 15.0625 C-38.27717413 14.37994831 -36.86766003 13.69571663 -35.45898438 13.00976562 C-32.67392902 11.65542622 -29.88336496 10.31349271 -27.08886719 8.97875977 C-24.37165395 7.67466688 -21.67743422 6.33501097 -18.99707031 4.95678711 C-18.36404495 4.63258286 -17.73101959 4.3083786 -17.07881165 3.97434998 C-15.35887595 3.0892867 -13.64303183 2.19628506 -11.92749023 1.30273438 C-7.70622831 -0.57572894 -4.49221844 -0.7373015 0 0 Z M38 28 C38 28.33 38 28.66 38 29 C49.88 29 61.76 29 74 29 C74 28.67 74 28.34 74 28 C62.12 28 50.24 28 38 28 Z M34 29 C33.67 29.66 33.34 30.32 33 31 C34.65 30.67 36.3 30.34 38 30 C36.68 29.67 35.36 29.34 34 29 Z M18.1875 58.8125 C16.75203734 61.45677332 15.85118165 64.11907748 15 67 C14.34 66.34 13.68 65.68 13 65 C11.98888907 68.04913228 11.98888907 68.04913228 13 71 C13.66 71 14.32 71 15 71 C15 70.34 15 69.68 15 69 C16.98 69 18.96 69 21 69 C21 69.66 21 70.32 21 71 C24.4530256 71.48342358 26.95368418 71.78807617 29.8359375 69.6171875 C33.23395057 65.956878 33.23395057 65.956878 33.9375 61.1875 C33.33165117 59.77385274 32.68781558 58.37563117 32 57 C30.06372231 56.89192869 28.12572244 56.8143775 26.1875 56.75 C25.10855469 56.70359375 24.02960938 56.6571875 22.91796875 56.609375 C19.92352054 56.70973088 19.92352054 56.70973088 18.1875 58.8125 Z M34 57 C34.66 57.66 35.32 58.32 36 59 C36 58.34 36 57.68 36 57 C35.34 57 34.68 57 34 57 Z M60 69 C61 71 61 71 61 71 Z M44 90 C43.67 90.66 43.34 91.32 43 92 C43.66 92 44.32 92 45 92 C44.67 91.34 44.34 90.68 44 90 Z " fill="#FBC91E" transform="translate(103,9)"/>
<path d="M0 0 C1.7324102 0.01507854 3.46483314 0.02876132 5.19726562 0.04101562 C9.40266346 0.07376014 13.60743793 0.12536564 17.8125 0.1875 C16.7132105 6.49871503 15.23112058 12.25088584 12.8125 18.1875 C11.39155029 18.19366333 11.39155029 18.19366333 9.94189453 18.19995117 C6.38142969 18.22713859 2.82262543 18.276437 -0.73730469 18.34008789 C-2.2694255 18.36309222 -3.80170051 18.37762184 -5.33398438 18.38305664 C-15.89066803 18.42784675 -24.39147661 19.17691903 -32.6953125 26.35546875 C-33.22898438 27.02191406 -33.76265625 27.68835938 -34.3125 28.375 C-34.87195313 29.04917969 -35.43140625 29.72335938 -36.0078125 30.41796875 C-37.37240007 32.11039812 -37.37240007 32.11039812 -37.1875 34.1875 C-36.7234375 33.89875 -36.259375 33.61 -35.78125 33.3125 C-27.74116358 28.99245356 -18.39058799 28.9910587 -9.5546875 30.6953125 C-4.44872767 32.38435625 -0.76430258 35.46696035 1.921875 40.1015625 C4.78966723 46.81823377 2.31787903 54.34382236 0.140625 60.90625 C-4.05659047 71.27584117 -10.76458982 80.48822597 -21 85.36328125 C-28.01652883 88.00700908 -34.08074511 88.55283365 -41.5625 88.5625 C-42.5525 88.58699219 -43.5425 88.61148438 -44.5625 88.63671875 C-51.70675948 88.66499418 -58.35010268 87.69520219 -63.81005859 82.7043457 C-69.13497468 76.59890753 -68.72541802 69.87981404 -68.36230469 62.20410156 C-66.83800914 44.61935127 -56.01931717 23.69300807 -43.1171875 11.7421875 C-29.4233766 0.70952203 -16.90649971 -0.25741008 0 0 Z M-39 54 C-40.43546266 56.64427332 -41.33631835 59.30657748 -42.1875 62.1875 C-42.8475 61.5275 -43.5075 60.8675 -44.1875 60.1875 C-45.19861093 63.23663228 -45.19861093 63.23663228 -44.1875 66.1875 C-43.5275 66.1875 -42.8675 66.1875 -42.1875 66.1875 C-42.1875 65.5275 -42.1875 64.8675 -42.1875 64.1875 C-40.2075 64.1875 -38.2275 64.1875 -36.1875 64.1875 C-36.1875 64.8475 -36.1875 65.5075 -36.1875 66.1875 C-32.7344744 66.67092358 -30.23381582 66.97557617 -27.3515625 64.8046875 C-23.95354943 61.144378 -23.95354943 61.144378 -23.25 56.375 C-23.85584883 54.96135274 -24.49968442 53.56313117 -25.1875 52.1875 C-27.12377769 52.07942869 -29.06177756 52.0018775 -31 51.9375 C-32.07894531 51.89109375 -33.15789062 51.8446875 -34.26953125 51.796875 C-37.26397946 51.89723088 -37.26397946 51.89723088 -39 54 Z M-23.1875 52.1875 C-22.5275 52.8475 -21.8675 53.5075 -21.1875 54.1875 C-21.1875 53.5275 -21.1875 52.8675 -21.1875 52.1875 C-21.8475 52.1875 -22.5075 52.1875 -23.1875 52.1875 Z " fill="#E30813" transform="translate(160.1875,13.8125)"/>
<path d="M0 0 C-4.45043021 12.94797039 -9.14458144 25.77827687 -14.06103516 38.55615234 C-17.93234396 48.63202368 -21.6907992 58.72201162 -25 69 C-23.68 69 -22.36 69 -21 69 C-20.7525 70.19625 -20.505 71.3925 -20.25 72.625 C-19.25379199 76.70367771 -17.40447052 79.55359225 -15 83 C-15 83.99 -15 84.98 -15 86 C-36.78 86 -58.56 86 -81 86 C-79.84160441 80.20802205 -77.86785676 74.60357029 -76 69 C-60.655 68.505 -60.655 68.505 -45 68 C-43.41058594 63.73835938 -43.41058594 63.73835938 -41.7890625 59.390625 C-40.76029566 56.63684576 -39.73077065 53.8833511 -38.70117188 51.12988281 C-37.98651087 49.21741885 -37.27263735 47.30466042 -36.55957031 45.39160156 C-35.53397633 42.6404957 -34.50554696 39.89046425 -33.4765625 37.140625 C-33.15877838 36.28631897 -32.84099426 35.43201294 -32.51358032 34.55181885 C-32.2134201 33.75129089 -31.91325989 32.95076294 -31.60400391 32.12597656 C-31.21095566 31.07340668 -31.21095566 31.07340668 -30.80996704 29.99957275 C-29.97513257 27.93860955 -29.02002624 25.97500993 -28 24 C-44.61671329 32.90660386 -44.61671329 32.90660386 -60.734375 42.671875 C-63 44 -63 44 -65 44 C-64.61232134 41.95587615 -64.19949572 39.91501465 -63.703125 37.89453125 C-63.20052412 35.82549095 -62.78258147 33.73515299 -62.421875 31.63671875 C-60.98635712 25.66626937 -59.51054801 21.66354256 -54.32421875 18.30078125 C-50.31122771 16.04778805 -46.14048076 14.17219443 -41.92871094 12.32421875 C-38.73641181 10.88081841 -35.62660032 9.31453744 -32.5078125 7.71875 C-30.29737521 6.60317499 -28.08644311 5.48857981 -25.875 4.375 C-24.83311523 3.84116699 -23.79123047 3.30733398 -22.71777344 2.75732422 C-14.76627617 -1.12641095 -8.62913737 -2.22687416 0 0 Z " fill="#E30913" transform="translate(109,15)"/>
<path d="M0 0 C0.33 0.66 0.66 1.32 1 2 C2.98 1.67 4.96 1.34 7 1 C7 2.32 7 3.64 7 5 C4.36 5 1.72 5 -1 5 C-1 7.64 -1 10.28 -1 13 C-3.64 13 -6.28 13 -9 13 C-9 20.26 -9 27.52 -9 35 C-9.66 35 -10.32 35 -11 35 C-10.95875 36.216875 -10.9175 37.43375 -10.875 38.6875 C-10.86245492 42.21894127 -11.40001783 44.80003566 -13 48 C-13.66 48 -14.32 48 -15 48 C-15.98120464 51.05263664 -15.98120464 52.94736336 -15 56 C-15.99 56.33 -16.98 56.66 -18 57 C-17.835 57.495 -17.67 57.99 -17.5 58.5 C-16.79311182 62.03444089 -16.93994845 65.39690701 -17 69 C-19.64 69 -22.28 69 -25 69 C-25.33 67.68 -25.66 66.36 -26 65 C-26.36222656 65.63550781 -26.72445312 66.27101563 -27.09765625 66.92578125 C-29.703017 69.76653394 -31.65583058 69.75396015 -35.4375 70.1875 C-39.90150591 70.69085056 -39.90150591 70.69085056 -44.28515625 71.61328125 C-46 72 -46 72 -48 71 C-48 71.66 -48 72.32 -48 73 C-47.34 73.33 -46.68 73.66 -46 74 C-48.43757413 74.02698422 -50.87484915 74.04683099 -53.3125 74.0625 C-54.00279297 74.07087891 -54.69308594 74.07925781 -55.40429688 74.08789062 C-58.5483025 74.10307906 -60.99420019 74.00193327 -64 73 C-66.00875442 73.27571139 -68.01178687 73.60235737 -70 74 C-70.33 73.34 -70.66 72.68 -71 72 C-72.88263881 71.09656316 -72.88263881 71.09656316 -75.0625 70.375 C-75.79597656 70.11460938 -76.52945313 69.85421875 -77.28515625 69.5859375 C-77.85105469 69.39257812 -78.41695313 69.19921875 -79 69 C-79 69.66 -79 70.32 -79 71 C-104.08 71 -129.16 71 -155 71 C-153.87637492 63.13462442 -153.87637492 63.13462442 -152.80859375 60.140625 C-152.58623047 59.49996094 -152.36386719 58.85929687 -152.13476562 58.19921875 C-151.90466797 57.55597656 -151.67457031 56.91273437 -151.4375 56.25 C-149.60195922 51.25639697 -149.60195922 51.25639697 -149 46 C-145.41577704 43.61051803 -143.62767404 43.69766832 -139.36328125 43.5859375 C-138.06455078 43.54726562 -136.76582031 43.50859375 -135.42773438 43.46875 C-134.05599427 43.43729483 -132.68424939 43.40604749 -131.3125 43.375 C-129.92901215 43.33680803 -128.54554777 43.29775558 -127.16210938 43.2578125 C-123.7748755 43.16339483 -120.38764931 43.07781882 -117 43 C-116.32880451 41.5437455 -115.66318193 40.08492133 -115 38.625 C-114.62875 37.81289062 -114.2575 37.00078125 -113.875 36.1640625 C-112.87504987 34.08001567 -112.87504987 34.08001567 -113 32 C-112.34 32 -111.68 32 -111 32 C-110.67 30.02 -110.34 28.04 -110 26 C-110.99 27.32 -111.98 28.64 -113 30 C-113.495 24.555 -113.495 24.555 -114 19 C-109.545 16.525 -109.545 16.525 -105 14 C-105.75127114 17.75635569 -106.24005726 19.83210307 -108 23 C-107.505 22.505 -107.505 22.505 -107 22 C-106.34 21.67 -105.68 21.34 -105 21 C-103.88205942 25.03766356 -104.15192694 27.36533182 -105.6171875 31.265625 C-105.97683594 32.23757812 -106.33648437 33.20953125 -106.70703125 34.2109375 C-107.28517578 35.71527344 -107.28517578 35.71527344 -107.875 37.25 C-108.25269531 38.26835938 -108.63039062 39.28671875 -109.01953125 40.3359375 C-111.82569296 47.82569296 -111.82569296 47.82569296 -113 49 C-115.29151417 49.08790975 -117.58572524 49.10694038 -119.87890625 49.09765625 C-120.90889992 49.09553383 -120.90889992 49.09553383 -121.95970154 49.09336853 C-124.16067801 49.08775479 -126.36155409 49.07520007 -128.5625 49.0625 C-130.05143083 49.05748676 -131.54036324 49.05292355 -133.02929688 49.04882812 C-136.68623075 49.03778093 -140.34310558 49.02050713 -144 49 C-144.10957031 49.556875 -144.21914062 50.11375 -144.33203125 50.6875 C-144.56986328 51.8321875 -144.56986328 51.8321875 -144.8125 53 C-144.96332031 53.7425 -145.11414063 54.485 -145.26953125 55.25 C-146.2432698 58.91583924 -147.6682029 62.44854106 -149 66 C-127.22 66 -105.44 66 -83 66 C-83.33 64.35 -83.66 62.7 -84 61 C-80.59928863 61.43880147 -78.02939817 62.46982024 -75.01953125 64.015625 C-69.54573365 66.47648049 -64.55740089 66.61146167 -58.625 66.5 C-57.60929932 66.48936523 -56.59359863 66.47873047 -55.54711914 66.46777344 C-48.43719842 66.28706605 -42.29760285 65.52176625 -36 62 C-34.9275 61.4225 -33.855 60.845 -32.75 60.25 C-23.5423464 52.71646523 -18.82612315 43.5935409 -15.6875 32.26953125 C-14.69411222 28.99022273 -13.46350566 25.46350566 -11 23 C-11.3193648 17.57079836 -12.36837613 14.08557685 -16 10 C-21.38398327 6.54985562 -26.71413528 5.52690198 -33.03125 5.2734375 C-33.6809375 5.18320312 -34.330625 5.09296875 -35 5 C-35.495 4.01 -35.495 4.01 -36 3 C-24.12 3 -12.24 3 0 3 C0 2.01 0 1.02 0 0 Z M-14 43 C-13 45 -13 45 -13 45 Z M-30 64 C-30.33 64.66 -30.66 65.32 -31 66 C-30.34 66 -29.68 66 -29 66 C-29.33 65.34 -29.66 64.68 -30 64 Z " fill="#F2C21C" transform="translate(177,35)"/>
<path d="M0 0 C-0.33 1.65 -0.66 3.3 -1 5 C-2.08007324 5.02505615 -3.16014648 5.0501123 -4.27294922 5.07592773 C-8.27242312 5.16995572 -12.27172147 5.27018754 -16.27099609 5.37231445 C-18.00337626 5.4156808 -19.73579963 5.45735463 -21.46826172 5.49731445 C-23.95553627 5.55497594 -26.44259293 5.61868198 -28.9296875 5.68359375 C-29.70682098 5.70030624 -30.48395447 5.71701874 -31.28463745 5.73423767 C-35.27274216 5.76473429 -35.27274216 5.76473429 -39 7 C-38.24976563 7.02578125 -37.49953125 7.0515625 -36.7265625 7.078125 C-28.49125719 7.53448953 -20.55552999 8.44447001 -14.5 14.5 C-14.005 15.325 -13.51 16.15 -13 17 C-12.5875 17.66 -12.175 18.32 -11.75 19 C-10.81748094 21.4867175 -10.72263728 23.36505412 -11 26 C-11.66 26.66 -12.32 27.32 -13 28 C-13.69748583 29.31747324 -14.36959957 30.64914193 -15 32 C-15.08636719 31.26394531 -15.17273438 30.52789062 -15.26171875 29.76953125 C-15.92130396 25.18874219 -16.41793128 21.82174407 -19.125 18 C-27.46645452 12.19724903 -36.17539585 12.04827245 -46 13 C-48.69620271 13.85255422 -50.95275774 14.82040357 -53.3984375 16.22265625 C-53.92695312 16.47917969 -54.45546875 16.73570313 -55 17 C-55.66 16.67 -56.32 16.34 -57 16 C-52.72203655 9.61546364 -47.95760439 4.4788022 -41 1 C-38.27743371 0.84297914 -35.57658578 0.74150132 -32.8515625 0.68359375 C-31.63815689 0.6524221 -31.63815689 0.6524221 -30.40023804 0.62062073 C-27.80857968 0.5551603 -25.21681677 0.49631763 -22.625 0.4375 C-20.88540616 0.39430138 -19.14582259 0.35068666 -17.40625 0.30664062 C-5.06201444 0 -5.06201444 0 0 0 Z " fill="#FCCE1E" transform="translate(178,32)"/>
<path d="M0 0 C1.875 1.9375 1.875 1.9375 2.5 5 C1.48513229 11.39366659 -1.0266033 16.8391033 -5.625 21.4375 C-10.32780569 24.25918342 -14.12346337 25.24822971 -19.625 25.3125 C-20.7284375 25.34085938 -21.831875 25.36921875 -22.96875 25.3984375 C-26.828534 24.83475617 -28.47823459 23.7764886 -31.125 20.9375 C-31.96372778 16.54416403 -30.44818744 12.55993507 -28.4375 8.6875 C-21.07093422 -0.07274038 -11.10159331 -3.77454172 0 0 Z M-19.9375 6.75 C-21.37296266 9.39427332 -22.27381835 12.05657748 -23.125 14.9375 C-23.785 14.2775 -24.445 13.6175 -25.125 12.9375 C-26.13611093 15.98663228 -26.13611093 15.98663228 -25.125 18.9375 C-24.465 18.9375 -23.805 18.9375 -23.125 18.9375 C-23.125 18.2775 -23.125 17.6175 -23.125 16.9375 C-21.145 16.9375 -19.165 16.9375 -17.125 16.9375 C-17.125 17.5975 -17.125 18.2575 -17.125 18.9375 C-13.6719744 19.42092358 -11.17131582 19.72557617 -8.2890625 17.5546875 C-4.89104943 13.894378 -4.89104943 13.894378 -4.1875 9.125 C-4.79334883 7.71135274 -5.43718442 6.31313117 -6.125 4.9375 C-8.06127769 4.82942869 -9.99927756 4.7518775 -11.9375 4.6875 C-13.01644531 4.64109375 -14.09539062 4.5946875 -15.20703125 4.546875 C-18.20147946 4.64723088 -18.20147946 4.64723088 -19.9375 6.75 Z M-4.125 4.9375 C-3.465 5.5975 -2.805 6.2575 -2.125 6.9375 C-2.125 6.2775 -2.125 5.6175 -2.125 4.9375 C-2.785 4.9375 -3.445 4.9375 -4.125 4.9375 Z " fill="#F1C01D" transform="translate(141.125,61.0625)"/>
<path d="M0 0 C0.99033234 0.0028299 1.98066467 0.00565979 3.00100708 0.00857544 C6.14923426 0.0197278 9.29717199 0.04482343 12.4453125 0.0703125 C14.58593338 0.08034868 16.72655874 0.08947342 18.8671875 0.09765625 C24.10166047 0.11965092 29.3359658 0.15307917 34.5703125 0.1953125 C34.64100444 5.51895943 34.44854603 9.15373828 32.5703125 14.1953125 C31.53080115 17.85134999 30.55047774 21.52296007 29.5703125 25.1953125 C28.90878174 25.03232666 28.24725098 24.86934082 27.56567383 24.70141602 C23.90959482 24.08367604 20.33887524 24.07109613 16.64453125 24.09765625 C15.89694046 24.0990712 15.14934967 24.10048615 14.37910461 24.10194397 C12.00529885 24.10751486 9.63158947 24.1200619 7.2578125 24.1328125 C5.64257949 24.13783127 4.027345 24.14239351 2.41210938 24.14648438 C-1.53519305 24.15747475 -5.48242397 24.17471918 -9.4296875 24.1953125 C-9.4296875 23.8653125 -9.4296875 23.5353125 -9.4296875 23.1953125 C1.4603125 22.8653125 12.3503125 22.5353125 23.5703125 22.1953125 C25.2203125 16.5853125 26.8703125 10.9753125 28.5703125 5.1953125 C23.55602342 5.24684682 18.54458305 5.31045108 13.53125 5.40283203 C11.83245422 5.43073899 10.13353589 5.45210099 8.43457031 5.46630859 C-1.58206723 5.55500373 -10.30162248 6.18274428 -19.85302734 9.44433594 C-22.4296875 10.1953125 -22.4296875 10.1953125 -24.4296875 9.1953125 C-24.4296875 8.2053125 -24.4296875 7.2153125 -24.4296875 6.1953125 C-23.22412146 5.56499117 -22.01505561 4.9413628 -20.8046875 4.3203125 C-20.13179687 3.97226563 -19.45890625 3.62421875 -18.765625 3.265625 C-12.33599629 0.31960783 -6.97211863 -0.0754917 0 0 Z " fill="#DCB01A" transform="translate(149.4296875,8.8046875)"/>
<path d="M0 0 C0.495 0.99 0.495 0.99 1 2 C2.98 1.67 4.96 1.34 7 1 C7 2.32 7 3.64 7 5 C4.36 5 1.72 5 -1 5 C-1 7.64 -1 10.28 -1 13 C-3.64 13 -6.28 13 -9 13 C-9 16.63 -9 20.26 -9 24 C-9.33 24 -9.66 24 -10 24 C-10.2475 22.80375 -10.495 21.6075 -10.75 20.375 C-12.00774511 15.53225353 -13.5104415 11.59352109 -17.91015625 8.77734375 C-22.90108697 6.32148895 -27.496504 5.49551064 -33.03125 5.2734375 C-33.6809375 5.18320312 -34.330625 5.09296875 -35 5 C-35.33 4.34 -35.66 3.68 -36 3 C-24.12 3 -12.24 3 0 3 C0 2.01 0 1.02 0 0 Z " fill="#010002" transform="translate(177,35)"/>
<path d="M0 0 C-2.19037174 6.72045875 -4.55765661 13.36724003 -7 20 C-8.32 19.34 -9.64 18.68 -11 18 C-10.67 15.69 -10.34 13.38 -10 11 C-10.85271484 11.59748047 -10.85271484 11.59748047 -11.72265625 12.20703125 C-16.35654013 15.38654089 -20.7769436 17.87208813 -26 20 C-27.23779811 20.71441624 -28.4670531 21.44383066 -29.6875 22.1875 C-33 24 -33 24 -37 24 C-37 22.68 -37 21.36 -37 20 C-33.46255395 17.95435472 -29.92452372 15.90972373 -26.38598633 13.8659668 C-25.18628732 13.17287519 -23.98673882 12.479523 -22.78735352 11.78588867 C-18.86261414 9.51625859 -14.93315003 7.25503831 -11 5 C-10.0807373 4.47067871 -9.16147461 3.94135742 -8.21435547 3.39599609 C-7.4101416 2.93918457 -6.60592773 2.48237305 -5.77734375 2.01171875 C-4.74275024 1.42136841 -4.74275024 1.42136841 -3.68725586 0.8190918 C-2 0 -2 0 0 0 Z " fill="#FBC91D" transform="translate(81,39)"/>
<path d="M0 0 C0.66 0 1.32 0 2 0 C2.33 1.32 2.66 2.64 3 4 C2.01 4.33 1.02 4.66 0 5 C0.2475 5.7425 0.2475 5.7425 0.5 6.5 C1.20688818 10.03444089 1.06005155 13.39690701 1 17 C-1.64 17 -4.28 17 -7 17 C-7.33 15.68 -7.66 14.36 -8 13 C-8.350625 13.66 -8.70125 14.32 -9.0625 15 C-11 17 -11 17 -14.6875 17.25 C-15.780625 17.1675 -16.87375 17.085 -18 17 C-14.375 14 -14.375 14 -11 14 C-10.7421875 13.41347656 -10.484375 12.82695313 -10.21875 12.22265625 C-8.90493528 9.82662877 -7.4781599 8.31088448 -5.5 6.4375 C-3.27903267 4.32475777 -1.72257583 2.58386374 0 0 Z " fill="#010000" transform="translate(159,87)"/>
<path d="M0 0 C0.66 0.33 1.32 0.66 2 1 C2 4.63 2 8.26 2 12 C1.34 12 0.68 12 0 12 C0.061875 13.8253125 0.061875 13.8253125 0.125 15.6875 C0.13754508 19.21894127 -0.40001783 21.80003566 -2 25 C-4.31 24.34 -6.62 23.68 -9 23 C-8.31015605 20.93046816 -7.61956966 18.86118159 -6.92578125 16.79296875 C-6.26504476 14.79960762 -5.61810835 12.80165032 -4.98046875 10.80078125 C-4.63628906 9.73214844 -4.29210937 8.66351563 -3.9375 7.5625 C-3.45603516 6.04849609 -3.45603516 6.04849609 -2.96484375 4.50390625 C-2 2 -2 2 0 0 Z M-3 20 C-2 22 -2 22 -2 22 Z " fill="#DEB11A" transform="translate(166,58)"/>
<path d="M0 0 C0.66 0.99 1.32 1.98 2 3 C2.99 3.33 3.98 3.66 5 4 C5 4.99 5 5.98 5 7 C5.61488281 6.79503906 6.22976562 6.59007812 6.86328125 6.37890625 C10.2421875 5.25260417 13.62109375 4.12630208 17 3 C17 4.65 17 6.3 17 8 C15.83984375 8.03867188 15.83984375 8.03867188 14.65625 8.078125 C7.73183653 8.45519702 2.96474358 9.44409517 -3 13 C-2.67 10.36 -2.34 7.72 -2 5 C-2.66 4.67 -3.32 4.34 -4 4 C-2.68 2.68 -1.36 1.36 0 0 Z " fill="#E1BC1A" transform="translate(39,56)"/>
<path d="M0 0 C1 3 1 3 0.2578125 4.75390625 C-0.11601563 5.35074219 -0.48984375 5.94757812 -0.875 6.5625 C-1.24367188 7.16191406 -1.61234375 7.76132812 -1.9921875 8.37890625 C-2.32476562 8.91386719 -2.65734375 9.44882812 -3 10 C-3.33 10.66 -3.66 11.32 -4 12 C-4.99 13.32 -5.98 14.64 -7 16 C-7.33 12.37 -7.66 8.74 -8 5 C-4.04 2.525 -4.04 2.525 0 0 Z " fill="#020003" transform="translate(71,49)"/>
<path d="M0 0 C0 1.65 0 3.3 0 5 C-6.0546875 5.9765625 -6.0546875 5.9765625 -8 6 C-8.66 5.34 -9.32 4.68 -10 4 C-8.52184338 3.3310968 -7.04244528 2.66493641 -5.5625 2 C-4.73878906 1.62875 -3.91507813 1.2575 -3.06640625 0.875 C-1 0 -1 0 0 0 Z " fill="#030002" transform="translate(56,59)"/>
<path d="M0 0 C1.98 0 3.96 0 6 0 C6 0.66 6 1.32 6 2 C6.99 2.33 7.98 2.66 9 3 C5.37 3 1.74 3 -2 3 C-1.34 2.67 -0.68 2.34 0 2 C0 1.34 0 0.68 0 0 Z " fill="#030000" transform="translate(118,78)"/>
<path d="M0 0 C3.63 0 7.26 0 11 0 C10.67 1.65 10.34 3.3 10 5 C9.34 3.68 8.68 2.36 8 1 C5.36 1 2.72 1 0 1 C0 0.67 0 0.34 0 0 Z " fill="#040101" transform="translate(127,65)"/>
<path d="M0 0 C-6.625 3.125 -6.625 3.125 -10 2 C-3.375 -1.125 -3.375 -1.125 0 0 Z " fill="#000000" transform="translate(144,106)"/>
<path d="M0 0 C0.33 0.66 0.66 1.32 1 2 C0.67 2.66 0.34 3.32 0 4 C-0.66 4 -1.32 4 -2 4 C-2 3.01 -2 2.02 -2 1 C-1.34 0.67 -0.68 0.34 0 0 Z " fill="#000000" transform="translate(61,72)"/>
<path d="" fill="#020004" transform="translate(0,0)"/>
<path d="" fill="#020004" transform="translate(0,0)"/>
</svg>
