<?xml version="1.0" encoding="UTF-8"?>
<svg version="1.1" xmlns="http://www.w3.org/2000/svg" width="206" height="116">
<path d="M0 0 C5.12279571 -0.12432113 10.2446986 -0.2146756 15.36865234 -0.2746582 C17.10871696 -0.29968233 18.84867773 -0.33371294 20.58837891 -0.37719727 C23.10084755 -0.4383892 25.6119178 -0.46632959 28.125 -0.48828125 C28.89303955 -0.51408768 29.6610791 -0.5398941 30.45239258 -0.56648254 C35.75238286 -0.56918677 38.88634902 0.70904086 43.17138672 3.82575989 C45.11365533 5.07298353 46.74703001 5.56476186 49 6 C49 6.99 49 7.98 49 9 C49.99 9.33 50.98 9.66 52 10 C52 10.99 52 11.98 52 13 C51.34 13 50.68 13 50 13 C50.01571045 14.34578125 50.01571045 14.34578125 50.03173828 15.71875 C50.06603726 19.08091862 50.09100375 22.44289844 50.10986328 25.80517578 C50.11985586 27.25409906 50.13345453 28.70300251 50.15087891 30.15185547 C50.32450751 44.97156783 50.32450751 44.97156783 48 52 C51.63 52 55.26 52 59 52 C59 70.48 59 88.96 59 108 C56.36 108 53.72 108 51 108 C50.67 104.37 50.34 100.74 50 97 C48.68 97 47.36 97 46 97 C46.33 97.99 46.66 98.98 47 100 C46.360625 100.12375 45.72125 100.2475 45.0625 100.375 C44.0415625 100.684375 44.0415625 100.684375 43 101 C42.67 101.66 42.34 102.32 42 103 C42.99 103.495 42.99 103.495 44 104 C38.41069964 106.34329402 33.80922668 107.48199809 27.7734375 107.6171875 C27.02212555 107.64225372 26.2708136 107.66731995 25.49673462 107.69314575 C23.92217351 107.74174395 22.34738399 107.78340424 20.77246094 107.81835938 C18.3731277 107.87504423 15.97636712 107.96350331 13.578125 108.0546875 C12.03911544 108.09826571 10.50005221 108.13999603 8.9609375 108.1796875 C7.89666031 108.22160721 7.89666031 108.22160721 6.81088257 108.26437378 C2.1101329 108.33800395 -1.02446985 107.505486 -5 105 C-6.625 102.5625 -6.625 102.5625 -8 100 C-9.00740234 99.23042969 -9.00740234 99.23042969 -10.03515625 98.4453125 C-13.03945678 94.70636194 -12.71199071 90.98098342 -12.8125 86.3125 C-12.85052734 85.43271484 -12.88855469 84.55292969 -12.92773438 83.64648438 C-13.09562115 79.01352384 -13.09562115 79.01352384 -13 77 C-12 76 -12 76 -9.86694336 75.88647461 C-8.49227905 75.89432983 -8.49227905 75.89432983 -7.08984375 75.90234375 C-6.10048828 75.90556641 -5.11113281 75.90878906 -4.09179688 75.91210938 C-3.05087891 75.92048828 -2.00996094 75.92886719 -0.9375 75.9375 C0.62967773 75.94426758 0.62967773 75.94426758 2.22851562 75.95117188 C4.8190666 75.96300087 7.40950559 75.97948311 10 76 C11 78 11 78 10 84 C15.28 84 20.56 84 26 84 C26 77.73 26 71.46 26 65 C18.74 65 11.48 65 4 65 C3.97317208 61.18745377 3.95324523 57.37509388 3.9375 53.5625 C3.92912109 52.47388672 3.92074219 51.38527344 3.91210938 50.26367188 C3.90727539 48.71196289 3.90727539 48.71196289 3.90234375 47.12890625 C3.89448853 45.69140015 3.89448853 45.69140015 3.88647461 44.22485352 C4 42 4 42 5 41 C6.56423432 40.98334926 8.12935006 41.03691108 9.69140625 41.12109375 C11.10776367 41.19360352 11.10776367 41.19360352 12.55273438 41.26757812 C13.54595703 41.32365234 14.53917969 41.37972656 15.5625 41.4375 C16.55958984 41.48970703 17.55667969 41.54191406 18.58398438 41.59570312 C21.05623854 41.72582177 23.52815527 41.86232227 26 42 C26 36.72 26 31.44 26 26 C20.72 26 15.44 26 10 26 C10 28.64 10 31.28 10 34 C5.38 34 0.76 34 -4 34 C-4.33 34.99 -4.66 35.98 -5 37 C-6.98 36.67 -8.96 36.34 -11 36 C-11.144375 35.21625 -11.28875 34.4325 -11.4375 33.625 C-11.87798925 31.03578982 -11.87798925 31.03578982 -13 29 C-13.07194869 26.11629667 -13.09291708 23.25760336 -13.0625 20.375 C-13.05798828 19.57320312 -13.05347656 18.77140625 -13.04882812 17.9453125 C-13.03703168 15.96350994 -13.01909605 13.98174567 -13 12 C-11.68 11.34 -10.36 10.68 -9 10 C-9 9.34 -9 8.68 -9 8 C-7 6.375 -7 6.375 -5 5 C-5.33 4.34 -5.66 3.68 -6 3 C-4.35 3 -2.7 3 -1 3 C-0.67 2.01 -0.34 1.02 0 0 Z M47 10 C47.66 10.66 48.32 11.32 49 12 C49 11.34 49 10.68 49 10 C48.34 10 47.68 10 47 10 Z M11 23 C10.67 23.66 10.34 24.32 10 25 C15.28 25 20.56 25 26 25 C26 24.34 26 23.68 26 23 C21.05 23 16.1 23 11 23 Z " fill="#F8FBFC" transform="translate(85,4)"/>
<path d="M0 0 C5.12279571 -0.12432113 10.2446986 -0.2146756 15.36865234 -0.2746582 C17.10871696 -0.29968233 18.84867773 -0.33371294 20.58837891 -0.37719727 C23.10084755 -0.4383892 25.6119178 -0.46632959 28.125 -0.48828125 C28.89303955 -0.51408768 29.6610791 -0.5398941 30.45239258 -0.56648254 C35.75238286 -0.56918677 38.88634902 0.70904086 43.17138672 3.82575989 C45.11365533 5.07298353 46.74703001 5.56476186 49 6 C49 6.99 49 7.98 49 9 C49.99 9.33 50.98 9.66 52 10 C52 10.99 52 11.98 52 13 C51.34 13 50.68 13 50 13 C50.01571045 14.34578125 50.01571045 14.34578125 50.03173828 15.71875 C50.06603726 19.08091862 50.09100375 22.44289844 50.10986328 25.80517578 C50.11985586 27.25409906 50.13345453 28.70300251 50.15087891 30.15185547 C50.32450751 44.97156783 50.32450751 44.97156783 48 52 C51.63 52 55.26 52 59 52 C59 70.48 59 88.96 59 108 C56.36 108 53.72 108 51 108 C50.67 104.37 50.34 100.74 50 97 C48.68 97 47.36 97 46 97 C46.33 97.99 46.66 98.98 47 100 C46.360625 100.12375 45.72125 100.2475 45.0625 100.375 C44.0415625 100.684375 44.0415625 100.684375 43 101 C42.67 101.66 42.34 102.32 42 103 C42.99 103.495 42.99 103.495 44 104 C38.41069964 106.34329402 33.80922668 107.48199809 27.7734375 107.6171875 C27.02212555 107.64225372 26.2708136 107.66731995 25.49673462 107.69314575 C23.92217351 107.74174395 22.34738399 107.78340424 20.77246094 107.81835938 C18.3731277 107.87504423 15.97636712 107.96350331 13.578125 108.0546875 C12.03911544 108.09826571 10.50005221 108.13999603 8.9609375 108.1796875 C7.89666031 108.22160721 7.89666031 108.22160721 6.81088257 108.26437378 C2.1101329 108.33800395 -1.02446985 107.505486 -5 105 C-6.625 102.5625 -6.625 102.5625 -8 100 C-9.00740234 99.23042969 -9.00740234 99.23042969 -10.03515625 98.4453125 C-13.03945678 94.70636194 -12.71199071 90.98098342 -12.8125 86.3125 C-12.85052734 85.43271484 -12.88855469 84.55292969 -12.92773438 83.64648438 C-13.09562115 79.01352384 -13.09562115 79.01352384 -13 77 C-12 76 -12 76 -9.86694336 75.88647461 C-8.49227905 75.89432983 -8.49227905 75.89432983 -7.08984375 75.90234375 C-6.10048828 75.90556641 -5.11113281 75.90878906 -4.09179688 75.91210938 C-3.05087891 75.92048828 -2.00996094 75.92886719 -0.9375 75.9375 C0.62967773 75.94426758 0.62967773 75.94426758 2.22851562 75.95117188 C4.8190666 75.96300087 7.40950559 75.97948311 10 76 C11 78 11 78 10 84 C15.28 84 20.56 84 26 84 C26 77.73 26 71.46 26 65 C18.74 65 11.48 65 4 65 C3.97317208 61.18745377 3.95324523 57.37509388 3.9375 53.5625 C3.92912109 52.47388672 3.92074219 51.38527344 3.91210938 50.26367188 C3.90727539 48.71196289 3.90727539 48.71196289 3.90234375 47.12890625 C3.89448853 45.69140015 3.89448853 45.69140015 3.88647461 44.22485352 C4 42 4 42 5 41 C6.56423432 40.98334926 8.12935006 41.03691108 9.69140625 41.12109375 C11.10776367 41.19360352 11.10776367 41.19360352 12.55273438 41.26757812 C13.54595703 41.32365234 14.53917969 41.37972656 15.5625 41.4375 C16.55958984 41.48970703 17.55667969 41.54191406 18.58398438 41.59570312 C21.05623854 41.72582177 23.52815527 41.86232227 26 42 C26 36.72 26 31.44 26 26 C20.72 26 15.44 26 10 26 C10 28.64 10 31.28 10 34 C5.38 34 0.76 34 -4 34 C-4.33 34.99 -4.66 35.98 -5 37 C-6.98 36.67 -8.96 36.34 -11 36 C-11.144375 35.21625 -11.28875 34.4325 -11.4375 33.625 C-11.87798925 31.03578982 -11.87798925 31.03578982 -13 29 C-13.07194869 26.11629667 -13.09291708 23.25760336 -13.0625 20.375 C-13.05798828 19.57320312 -13.05347656 18.77140625 -13.04882812 17.9453125 C-13.03703168 15.96350994 -13.01909605 13.98174567 -13 12 C-11.68 11.34 -10.36 10.68 -9 10 C-9 9.34 -9 8.68 -9 8 C-7 6.375 -7 6.375 -5 5 C-5.33 4.34 -5.66 3.68 -6 3 C-4.35 3 -2.7 3 -1 3 C-0.67 2.01 -0.34 1.02 0 0 Z M-9 14 C-9.89279179 18.71452713 -9.56686284 22.1558994 -9 27 C-4.05 27 0.9 27 6 27 C6 24.36 6 21.72 6 19 C13.92 19 21.84 19 30 19 C30 27.91 30 36.82 30 46 C23.07 46 16.14 46 9 46 C9 50.95 9 55.9 9 61 C15.93 61 22.86 61 30 61 C30 69.91 30 78.82 30 88 C22.08 88 14.16 88 6 88 C6 85.36 6 82.72 6 80 C1.05 80 -3.9 80 -9 80 C-9.20625 82.124375 -9.4125 84.24875 -9.625 86.4375 C-9.74101563 87.63246094 -9.85703125 88.82742187 -9.9765625 90.05859375 C-9.39504548 95.10710023 -6.02717971 98.07187821 -2.26708984 101.18286133 C3.49149795 104.38575842 9.31074872 104.33601232 15.73144531 104.17333984 C18.00093384 104.1249801 20.254435 104.17298211 22.5234375 104.23046875 C29.44960968 104.26797064 35.26551906 103.70813035 41 99.40625 C45.71190378 94.35935306 46.3005405 89.22355408 46.171875 82.53125 C46.14287109 81.84804687 46.11386719 81.16484375 46.08398438 80.4609375 C45.99974217 78.3685963 46.00188254 76.28907477 46.015625 74.1953125 C45.97257506 65.80617973 45.97257506 65.80617973 41.94921875 58.69921875 C40.97597656 57.80847656 40.00273438 56.91773438 39 56 C38.8125 53.4375 38.8125 53.4375 40 51 C40.83402344 50.278125 41.66804688 49.55625 42.52734375 48.8125 C46.55245503 44.04256458 45.81654873 37.60409579 45.76171875 31.68725586 C45.75003669 29.56915222 45.80230539 27.45903027 45.859375 25.34179688 C46.01172715 18.15951819 46.01172715 18.15951819 43.52929688 11.57373047 C41.7746521 9.78765221 40.07290064 8.39661814 38 7 C37.40807861 6.4622998 36.81615723 5.92459961 36.20629883 5.37060547 C31.68707682 2.56315694 25.82912262 3.28083911 20.63061523 3.22436523 C18.46490446 3.18796066 16.30965863 3.08218692 14.14648438 2.97460938 C3.9374109 2.7028752 -3.0740278 5.07516834 -9 14 Z M47 10 C47.66 10.66 48.32 11.32 49 12 C49 11.34 49 10.68 49 10 C48.34 10 47.68 10 47 10 Z M11 23 C10.67 23.66 10.34 24.32 10 25 C15.28 25 20.56 25 26 25 C26 24.34 26 23.68 26 23 C21.05 23 16.1 23 11 23 Z " fill="#07478D" transform="translate(85,4)"/>
<path d="M0 0 C5.12279571 -0.12432113 10.2446986 -0.2146756 15.36865234 -0.2746582 C17.10871696 -0.29968233 18.84867773 -0.33371294 20.58837891 -0.37719727 C23.10084755 -0.4383892 25.6119178 -0.46632959 28.125 -0.48828125 C28.89303955 -0.51408768 29.6610791 -0.5398941 30.45239258 -0.56648254 C35.75238286 -0.56918677 38.88634902 0.70904086 43.17138672 3.82575989 C45.11365533 5.07298353 46.74703001 5.56476186 49 6 C49 6.99 49 7.98 49 9 C49.99 9.33 50.98 9.66 52 10 C52 10.99 52 11.98 52 13 C51.34 13 50.68 13 50 13 C50.01571045 14.34578125 50.01571045 14.34578125 50.03173828 15.71875 C50.06603726 19.08091862 50.09100375 22.44289844 50.10986328 25.80517578 C50.11985586 27.25409906 50.13345453 28.70300251 50.15087891 30.15185547 C50.32450751 44.97156783 50.32450751 44.97156783 48 52 C51.63 52 55.26 52 59 52 C59 70.48 59 88.96 59 108 C56.36 108 53.72 108 51 108 C50.95101562 107.22914062 50.90203125 106.45828125 50.8515625 105.6640625 C50.77679688 104.66117187 50.70203125 103.65828125 50.625 102.625 C50.52058594 101.12839844 50.52058594 101.12839844 50.4140625 99.6015625 C50.23636036 96.84491121 50.23636036 96.84491121 48 95 C47.83705787 92.45339347 47.79254082 90.01701583 47.83984375 87.47265625 C47.84504532 86.72793564 47.85024689 85.98321503 47.85560608 85.21592712 C47.87344722 82.83125489 47.90461188 80.44700856 47.9375 78.0625 C47.96512619 75.68160289 47.98984824 73.30076787 48.00868225 70.91978455 C48.02092578 69.43727619 48.03851629 67.95480033 48.06199646 66.47242737 C48.09218958 63.35634354 47.9940758 60.9822274 47 58 C46.34 58 45.68 58 45 58 C42.88704744 54.83057116 42.74749071 54.00370047 42.8125 50.375 C42.81894531 49.57835937 42.82539062 48.78171875 42.83203125 47.9609375 C43 46 43 46 44 45 C44.41253135 40.73187297 44.52827939 36.45903504 44.62475586 32.17431641 C44.66619276 30.73837475 44.72734851 29.30285077 44.80932617 27.86865234 C45.14678472 21.86397759 45.384417 16.39973508 42.28759766 11.03173828 C37.55126437 6.0294638 33.17380102 4.43954936 26.375 3.8046875 C24.28603896 3.75656585 22.21177122 3.77014287 20.12304688 3.82666016 C17.99804426 3.87504453 15.89010975 3.82701615 13.765625 3.76953125 C6.74376245 3.73559805 1.60064753 4.49921762 -3.9296875 9.09765625 C-7.8921451 13.28089594 -9.23622069 15.83463472 -9.125 21.5625 C-9.08375 23.686875 -9.0425 25.81125 -9 28 C-3.39 28 2.22 28 8 28 C8.66 26.68 9.32 25.36 10 24 C15.28 24.33 20.56 24.66 26 25 C26 25.33 26 25.66 26 26 C20.72 26 15.44 26 10 26 C10 28.64 10 31.28 10 34 C5.38 34 0.76 34 -4 34 C-4.33 34.99 -4.66 35.98 -5 37 C-6.98 36.67 -8.96 36.34 -11 36 C-11.144375 35.21625 -11.28875 34.4325 -11.4375 33.625 C-11.87798925 31.03578982 -11.87798925 31.03578982 -13 29 C-13.07194869 26.11629667 -13.09291708 23.25760336 -13.0625 20.375 C-13.05798828 19.57320312 -13.05347656 18.77140625 -13.04882812 17.9453125 C-13.03703168 15.96350994 -13.01909605 13.98174567 -13 12 C-11.68 11.34 -10.36 10.68 -9 10 C-9 9.34 -9 8.68 -9 8 C-7 6.375 -7 6.375 -5 5 C-5.33 4.34 -5.66 3.68 -6 3 C-4.35 3 -2.7 3 -1 3 C-0.67 2.01 -0.34 1.02 0 0 Z M47 10 C47.66 10.66 48.32 11.32 49 12 C49 11.34 49 10.68 49 10 C48.34 10 47.68 10 47 10 Z " fill="#084181" transform="translate(85,4)"/>
<path d="M0 0 C0 0.99 0 1.98 0 3 C3.63 3 7.26 3 11 3 C11 21.48 11 39.96 11 59 C8.36 59 5.72 59 3 59 C2.95101562 58.22914062 2.90203125 57.45828125 2.8515625 56.6640625 C2.77679688 55.66117188 2.70203125 54.65828125 2.625 53.625 C2.55539063 52.62726563 2.48578125 51.62953125 2.4140625 50.6015625 C2.23636036 47.84491121 2.23636036 47.84491121 0 46 C-0.16294213 43.45339347 -0.20745918 41.01701583 -0.16015625 38.47265625 C-0.15495468 37.72793564 -0.14975311 36.98321503 -0.14439392 36.21592712 C-0.12655278 33.83125489 -0.09538812 31.44700856 -0.0625 29.0625 C-0.03487381 26.68160289 -0.01015176 24.30076787 0.00868225 21.91978455 C0.02092578 20.43727619 0.03851629 18.95480033 0.06199646 17.47242737 C0.09218958 14.35634354 -0.0059242 11.9822274 -1 9 C-1.66 9 -2.32 9 -3 9 C-5 6 -5 6 -5 3 C-2.55555556 0 -2.55555556 0 0 0 Z " fill="#000100" transform="translate(133,53)"/>
<path d="M0 0 C2 3 2 3 1.8125 5.25 C1.72468185 8.26777935 1.72468185 8.26777935 4.48828125 10.62109375 C8.87623183 16.55302481 7.54998492 24.78244325 7.375 31.8125 C7.35847373 33.35349357 7.34413062 34.89451219 7.33203125 36.43554688 C7.19740676 47.60518647 7.19740676 47.60518647 6 50 C5.34 50 4.68 50 4 50 C4.33 50.99 4.66 51.98 5 53 C4.360625 53.12375 3.72125 53.2475 3.0625 53.375 C2.381875 53.58125 1.70125 53.7875 1 54 C0.505 54.99 0.505 54.99 0 56 C0.99 56.495 0.99 56.495 2 57 C-3.58930036 59.34329402 -8.19077332 60.48199809 -14.2265625 60.6171875 C-14.97787445 60.64225372 -15.7291864 60.66731995 -16.50326538 60.69314575 C-18.07782649 60.74174395 -19.65261601 60.78340424 -21.22753906 60.81835938 C-23.6268723 60.87504423 -26.02363288 60.96350331 -28.421875 61.0546875 C-29.96088456 61.09826571 -31.49994779 61.13999603 -33.0390625 61.1796875 C-34.10333969 61.22160721 -34.10333969 61.22160721 -35.18911743 61.26437378 C-39.8898671 61.33800395 -43.02446985 60.505486 -47 58 C-48.625 55.5625 -48.625 55.5625 -50 53 C-51.00933594 52.23236328 -51.00933594 52.23236328 -52.0390625 51.44921875 C-55.04575665 47.69384578 -54.67394374 43.93091739 -54.75 39.25 C-54.77964844 38.36183594 -54.80929688 37.47367188 -54.83984375 36.55859375 C-54.91036918 34.37230551 -54.96314637 32.18707232 -55 30 C-54.34 29.67 -53.68 29.34 -53 29 C-53 30.65 -53 32.3 -53 34 C-52.34 34 -51.68 34 -51 34 C-51.020625 34.85722656 -51.04125 35.71445313 -51.0625 36.59765625 C-51.07533089 43.42655713 -51.07533089 43.42655713 -48.1875 49.38671875 C-46.19534175 51.08361069 -44.19581005 52.58029523 -42 54 C-41.67 54.33 -41.34 54.66 -41 55 C-36.30233546 55.36538215 -31.60288215 55.4426873 -26.89257812 55.51489258 C-25.31143783 55.54635404 -23.73052699 55.59392175 -22.15039062 55.65844727 C-11.24957717 56.19276686 -11.24957717 56.19276686 -1.46484375 51.9375 C3.37233356 46.63681371 3.25526438 40.34790988 3.00854492 33.53637695 C2.93743132 31.43547093 2.94690126 29.34595269 2.96679688 27.24414062 C2.96821008 18.82924568 2.96821008 18.82924568 -1.0546875 11.703125 C-2.51261719 10.36507812 -2.51261719 10.36507812 -4 9 C-4.09074737 5.09786295 -2.48375712 2.91571488 0 0 Z " fill="#154C84" transform="translate(127,51)"/>
<path d="M0 0 C2 3 2 3 1.8125 5.25 C1.72612722 8.26990128 1.72612722 8.26990128 4.4921875 10.64453125 C8.82335147 16.49455445 7.51290742 24.50642842 7.3125 31.4375 C7.28738916 32.94722875 7.26458088 34.45699766 7.24414062 35.96679688 C7.18935733 39.64537284 7.10324012 43.32242808 7 47 C6.34 47 5.68 47 5 47 C5 47.66 5 48.32 5 49 C4.34 49 3.68 49 3 49 C3.00112793 48.03698975 3.00225586 47.07397949 3.00341797 46.08178711 C2.99972545 42.48240373 2.95674157 38.88434496 2.90234375 35.28540039 C2.88426155 33.73275325 2.87660109 32.17994622 2.87988281 30.62719727 C3.27200572 20.41818809 3.27200572 20.41818809 -1.05078125 11.609375 C-2.02402344 10.74828125 -2.99726562 9.8871875 -4 9 C-4.09074737 5.09786295 -2.48375712 2.91571488 0 0 Z " fill="#024B98" transform="translate(127,51)"/>
<path d="M0 0 C2 1 4 2 6 3 C6.763125 3.33 7.52625 3.66 8.3125 4 C10 5 10 5 11 8 C11.99 8.33 12.98 8.66 14 9 C14 9.99 14 10.98 14 12 C13.34 12 12.68 12 12 12 C12.00523682 12.91289795 12.01047363 13.8257959 12.01586914 14.76635742 C12.03295631 18.16756833 12.0454722 21.56873331 12.05493164 24.9699707 C12.05994669 26.43937909 12.06676033 27.90878252 12.07543945 29.37817383 C12.08762928 31.49561795 12.09325669 33.61299583 12.09765625 35.73046875 C12.10289307 37.00301514 12.10812988 38.27556152 12.11352539 39.58666992 C12.01470642 42.55782706 11.82568945 45.14860161 11 48 C9.0625 49.25 9.0625 49.25 7 50 C6.01 50.495 6.01 50.495 5 51 C4.75 45.375 4.75 45.375 7 42 C7.36798693 39.28924456 7.36798693 39.28924456 7.4140625 36.23828125 C7.47207031 34.56088867 7.47207031 34.56088867 7.53125 32.84960938 C7.57765625 31.09874023 7.57765625 31.09874023 7.625 29.3125 C7.66367188 28.13365234 7.70234375 26.95480469 7.7421875 25.74023438 C7.83654391 22.82698023 7.92213161 19.91373393 8 17 C8.66 17 9.32 17 10 17 C10.33 14.36 10.66 11.72 11 9 C10.484375 8.773125 9.96875 8.54625 9.4375 8.3125 C6.10452995 6.51782382 2.85296329 4.50034985 0 2 C0 1.34 0 0.68 0 0 Z " fill="#004797" transform="translate(123,5)"/>
<path d="M0 0 C7.92 0 15.84 0 24 0 C24 8.91 24 17.82 24 27 C23.67 27 23.34 27 23 27 C23 18.42 23 9.84 23 1 C22.34 1 21.68 1 21 1 C21 8.26 21 15.52 21 23 C20.67 23 20.34 23 20 23 C20 16.73 20 10.46 20 4 C11.585 4.495 11.585 4.495 3 5 C3 6.65 3 8.3 3 10 C-2.94 9.67 -8.88 9.34 -15 9 C-15 8.67 -15 8.34 -15 8 C-10.05 8 -5.1 8 0 8 C0 5.36 0 2.72 0 0 Z " fill="#396593" transform="translate(91,23)"/>
<path d="M0 0 C5.17772746 -0.12385084 10.35458788 -0.21445571 15.53344727 -0.2746582 C17.29401676 -0.29976061 19.05448247 -0.33385028 20.81469727 -0.37719727 C23.34938179 -0.43804115 25.88268575 -0.46625113 28.41796875 -0.48828125 C29.59325386 -0.52699089 29.59325386 -0.52699089 30.7922821 -0.56648254 C35.04108534 -0.56864976 36.51292596 -0.40492042 39.90795898 2.41748047 C40.59833252 3.26971191 41.28870605 4.12194336 42 5 C43.01707031 5.89525391 43.01707031 5.89525391 44.0546875 6.80859375 C45.89739671 8.45754169 47.52866987 10.00912007 49 12 C48.9375 15.4375 48.9375 15.4375 48 18 C47.34 18 46.68 18 46 18 C46 26.25 46 34.5 46 43 C45.67 43 45.34 43 45 43 C45.0220752 42.16863525 45.04415039 41.33727051 45.06689453 40.48071289 C45.12564527 37.35408539 45.13864554 34.23131498 45.12207031 31.10424805 C45.12494281 29.10235384 45.17914409 27.1007436 45.234375 25.09960938 C45.19629476 17.5377229 45.19629476 17.5377229 41.69824219 11.05029297 C39.22741382 8.82654744 36.75956693 6.84901649 34 5 C34.33 4.34 34.66 3.68 35 3 C23.12 2.67 11.24 2.34 -1 2 C-0.67 1.34 -0.34 0.68 0 0 Z " fill="#124B8A" transform="translate(85,4)"/>
<path d="M0 0 C0.66 0 1.32 0 2 0 C2 8.58 2 17.16 2 26 C-4.6 26 -11.2 26 -18 26 C-18 24.68 -18 23.36 -18 22 C-19.65 22.33 -21.3 22.66 -23 23 C-22.67 22.34 -22.34 21.68 -22 21 C-14.74 21.33 -7.48 21.66 0 22 C0 14.74 0 7.48 0 0 Z " fill="#02458F" transform="translate(112,24)"/>
<path d="M0 0 C6.93 0 13.86 0 21 0 C21 8.91 21 17.82 21 27 C13.08 27 5.16 27 -3 27 C-3 24.36 -3 21.72 -3 19 C-2.67 19 -2.34 19 -2 19 C-2 21.31 -2 23.62 -2 26 C4.6 26 11.2 26 18 26 C18 18.08 18 10.16 18 2 C12.06 1.67 6.12 1.34 0 1 C0 0.67 0 0.34 0 0 Z " fill="#346CA4" transform="translate(94,65)"/>
<path d="M0 0 C0.99 0 1.98 0 3 0 C3.33 6.93 3.66 13.86 4 21 C2.35 21.33 0.7 21.66 -1 22 C-1.02887814 18.52085059 -1.04675687 15.04173169 -1.0625 11.5625 C-1.07087891 10.56927734 -1.07925781 9.57605469 -1.08789062 8.55273438 C-1.09111328 7.60849609 -1.09433594 6.66425781 -1.09765625 5.69140625 C-1.10289307 4.81685791 -1.10812988 3.94230957 -1.11352539 3.04125977 C-1 1 -1 1 0 0 Z " fill="#054A95" transform="translate(91,46)"/>
<path d="M0 0 C6.6 0 13.2 0 20 0 C20 0.99 20 1.98 20 3 C15.38 3 10.76 3 6 3 C5.67 3.99 5.34 4.98 5 6 C2.03 5.505 2.03 5.505 -1 5 C-0.67 3.35 -0.34 1.7 0 0 Z " fill="#00010B" transform="translate(75,35)"/>
<path d="M0 0 C0.33 0 0.66 0 1 0 C1 1.65 1 3.3 1 5 C1.66 5 2.32 5 3 5 C3.06058594 5.92683594 3.12117188 6.85367188 3.18359375 7.80859375 C3.26738281 9.00613281 3.35117188 10.20367187 3.4375 11.4375 C3.51871094 12.63246094 3.59992188 13.82742187 3.68359375 15.05859375 C3.67656114 17.88570244 3.67656114 17.88570244 5 19 C5.04063832 20.66617115 5.042721 22.33388095 5 24 C1.125 22.25 1.125 22.25 0 20 C-0.35924346 16.82430363 -0.46694033 13.62891066 -0.625 10.4375 C-0.6765625 9.54869141 -0.728125 8.65988281 -0.78125 7.74414062 C-0.82507813 6.89916016 -0.86890625 6.05417969 -0.9140625 5.18359375 C-0.9548291 4.40556396 -0.9955957 3.62753418 -1.03759766 2.82592773 C-1 1 -1 1 0 0 Z " fill="#0A4382" transform="translate(73,80)"/>
<path d="M0 0 C2 1 4 2 6 3 C6.763125 3.33 7.52625 3.66 8.3125 4 C10 5 10 5 11 8 C11.99 8.33 12.98 8.66 14 9 C14 9.99 14 10.98 14 12 C13.34 12 12.68 12 12 12 C12 22.23 12 32.46 12 43 C11.67 43 11.34 43 11 43 C11 31.78 11 20.56 11 9 C9.68 8.34 8.36 7.68 7 7 C5.73128376 6.19544824 4.4802486 5.36222551 3.25 4.5 C2.63640625 4.0771875 2.0228125 3.654375 1.390625 3.21875 C0.93171875 2.8165625 0.4728125 2.414375 0 2 C0 1.34 0 0.68 0 0 Z " fill="#000104" transform="translate(123,5)"/>
<path d="M0 0 C2 3 2 3 1.9375 5.375 C2.0156164 8.65588886 3.17031717 10.33171253 5 13 C4.34 13 3.68 13 3 13 C2.67 13.99 2.34 14.98 2 16 C-3.97701546 9.98833517 -3.97701546 9.98833517 -4.0625 6.3125 C-2.95900176 3.91076854 -1.71198219 2.00971822 0 0 Z " fill="#125295" transform="translate(127,51)"/>
<path d="M0 0 C0.83144531 0.00902344 1.66289063 0.01804687 2.51953125 0.02734375 C4.55481337 0.0507378 6.58994564 0.08660275 8.625 0.125 C7.965 1.445 7.305 2.765 6.625 4.125 C-0.635 3.795 -7.895 3.465 -15.375 3.125 C-15.375 2.795 -15.375 2.465 -15.375 2.125 C-10.12544832 -0.03258273 -5.56689716 -0.11542211 0 0 Z " fill="#0B4383" transform="translate(104.375,65.875)"/>
<path d="M0 0 C-5 5 -5 5 -6.75 6.5625 C-8.26500693 8.30475797 -8.61186118 9.74879482 -9 12 C-9.66 12 -10.32 12 -11 12 C-11 9.36 -11 6.72 -11 4 C-10.34 4 -9.68 4 -9 4 C-9 3.34 -9 2.68 -9 2 C-5.5647952 -0.29013653 -4.014669 -0.17842973 0 0 Z " fill="#11539C" transform="translate(85,10)"/>
<path d="M0 0 C0.99 0 1.98 0 3 0 C3 6.27 3 12.54 3 19 C2.67 19 2.34 19 2 19 C1.67 15.37 1.34 11.74 1 8 C0.34 8 -0.32 8 -1 8 C-1.04241723 5.66705225 -1.04092937 3.33297433 -1 1 C-0.67 0.67 -0.34 0.34 0 0 Z " fill="#1058A5" transform="translate(91,46)"/>
<path d="M0 0 C2.31 0 4.62 0 7 0 C6.67 0.66 6.34 1.32 6 2 C9.63 2.33 13.26 2.66 17 3 C17 3.33 17 3.66 17 4 C8.585 4.495 8.585 4.495 0 5 C0 3.35 0 1.7 0 0 Z " fill="#1A61AB" transform="translate(74,80)"/>
<path d="M0 0 C0.33 0.66 0.66 1.32 1 2 C1.66 2 2.32 2 3 2 C3 3.65 3 5.3 3 7 C1 8 -1 9 -3 10 C-3.36923077 4.58461538 -3.36923077 4.58461538 -1.5 1.625 C-1.005 1.08875 -0.51 0.5525 0 0 Z " fill="#08448E" transform="translate(131,46)"/>
<path d="M0 0 C1.98 1.65 3.96 3.3 6 5 C5.01 6.32 4.02 7.64 3 9 C1.5 7.875 1.5 7.875 0 6 C-0.1875 2.8125 -0.1875 2.8125 0 0 Z " fill="#165497" transform="translate(78,99)"/>
<path d="M0 0 C1.2065625 0.0309375 1.2065625 0.0309375 2.4375 0.0625 C2.7675 0.7225 3.0975 1.3825 3.4375 2.0625 C2.798125 2.18625 2.15875 2.31 1.5 2.4375 C0.819375 2.64375 0.13875 2.85 -0.5625 3.0625 C-0.8925 3.7225 -1.2225 4.3825 -1.5625 5.0625 C-0.9025 5.3925 -0.2425 5.7225 0.4375 6.0625 C-1.5425 6.7225 -3.5225 7.3825 -5.5625 8.0625 C-5.2325 7.4025 -4.9025 6.7425 -4.5625 6.0625 C-3.9025 6.0625 -3.2425 6.0625 -2.5625 6.0625 C-2.8409375 4.8559375 -2.8409375 4.8559375 -3.125 3.625 C-3.269375 2.779375 -3.41375 1.93375 -3.5625 1.0625 C-2.5625 0.0625 -2.5625 0.0625 0 0 Z " fill="#07264E" transform="translate(128.5625,101.9375)"/>
<path d="M0 0 C3.98175544 2.10148204 6.35039045 4.36905358 9 8 C7.0625 7.6875 7.0625 7.6875 5 7 C4.67 6.01 4.34 5.02 4 4 C3.34 4 2.68 4 2 4 C2 3.34 2 2.68 2 2 C1.34 2 0.68 2 0 2 C0 1.34 0 0.68 0 0 Z " fill="#0E437E" transform="translate(124,8)"/>
<path d="M0 0 C0.33 0.66 0.66 1.32 1 2 C1.66 2 2.32 2 3 2 C3 1.34 3 0.68 3 0 C3.66 0.33 4.32 0.66 5 1 C3.875 2.5 3.875 2.5 2 4 C-1.1875 4.1875 -1.1875 4.1875 -4 4 C-2.68 2.68 -1.36 1.36 0 0 Z " fill="#15528E" transform="translate(129,98)"/>
<path d="M0 0 C1.2077558 3.62326739 0.54311128 4.64146369 -1 8 C-1.66 8 -2.32 8 -3 8 C-3.1875 5.125 -3.1875 5.125 -3 2 C-2.01 1.34 -1.02 0.68 0 0 Z " fill="#0E4B95" transform="translate(77,14)"/>
<path d="M0 0 C3 1 3 1 3 1 Z " fill="#000211" transform="translate(75,10)"/>
<path d="" fill="#00031A" transform="translate(0,0)"/>
</svg>
