<?xml version="1.0" encoding="UTF-8"?>
<svg version="1.1" xmlns="http://www.w3.org/2000/svg" width="206" height="116">
<path d="M0 0 C26.4 0 52.8 0 80 0 C80 2 80 2 78.25 3.8125 C77.5075 4.534375 76.765 5.25625 76 6 C75.34 6.886875 74.68 7.77375 74 8.6875 C72 11 72 11 69.875 11.5 C69.25625 11.665 68.6375 11.83 68 12 C66.78702351 14.2806707 66.78702351 14.2806707 66 17 C64.17661326 21.86236463 61.74907626 25.90848887 58.8125 30.1875 C56.81943289 32.72253373 56.81943289 32.72253373 57 35 C58.98 35.99 60.96 36.98 63 38 C63 38.66 63 39.32 63 40 C67.455 39.505 67.455 39.505 72 39 C72.33 38.01 72.66 37.02 73 36 C74.62655892 34.29416835 76.30205914 32.6347943 78 31 C87.02336431 21.79455909 87.02336431 21.79455909 94.8125 11.5625 C101.02860001 2.43448906 101.02860001 2.43448906 106 0 C110.72887426 -0.55603807 115.26428771 -0.41903072 120 0 C119.625 2.4375 119.625 2.4375 119 5 C117 6 117 6 114 7 C114 23.17 114 39.34 114 56 C114.66 56 115.32 56 116 56 C116.268125 55.38125 116.53625 54.7625 116.8125 54.125 C118 52 118 52 121 50 C121 68.81 121 87.62 121 107 C111.43 107 101.86 107 92 107 C92 85.55 92 64.1 92 42 C79.58038515 41.38720528 79.58038515 41.38720528 68 44 C69.485 44.99 69.485 44.99 71 46 C71 46.66 71 47.32 71 48 C71.66 48 72.32 48 73 48 C73 49.32 73 50.64 73 52 C73.66 52 74.32 52 75 52 C79.0996608 61.66348617 80.98619653 72.4202446 78.27734375 82.7578125 C76.98630526 85.7580396 75.42590619 88.37643568 73.5859375 91.0703125 C73.12445313 91.74835938 72.66296875 92.42640625 72.1875 93.125 C71.74792969 93.70507812 71.30835937 94.28515625 70.85546875 94.8828125 C69.56833861 98.06831266 70.35505291 100.70008667 71 104 C58.1589885 107.76983824 46.34529194 108.46962904 33 108 C33 105.36 33 102.72 33 100 C31.989375 100.061875 30.97875 100.12375 29.9375 100.1875 C20.53535581 99.73977885 11.47258532 93.51337892 5 87 C4.154375 86.67 3.30875 86.34 2.4375 86 C-0.47261709 84.80610581 -1.53440663 83.76834303 -3 81 C-2.78961776 77.98452118 -1.96596532 76.96422949 0.14453125 74.74609375 C1.02496094 73.98425781 1.90539063 73.22242187 2.8125 72.4375 C3.68519531 71.67308594 4.55789062 70.90867187 5.45703125 70.12109375 C6.29621094 69.42113281 7.13539062 68.72117187 8 68 C8.68449219 67.39285156 9.36898437 66.78570312 10.07421875 66.16015625 C12 65 12 65 14.02734375 65.0703125 C16.54894062 66.25870865 17.80057382 67.72284856 19.5625 69.875 C25.26584907 76.77547416 25.26584907 76.77547416 33.71875 79.30078125 C37.77720968 79.3178815 41.24013714 79.24315611 45.125 78 C47.55458272 75.40844509 47.91934956 73.43355748 48.125 69.9375 C48.09454904 67.86117535 48.09454904 67.86117535 47 65.5625 C42.52039602 62.06280939 35.60664823 62.81786271 30.09765625 62.68359375 C29.01380898 62.6524221 29.01380898 62.6524221 27.9080658 62.62062073 C25.6262963 62.55584574 23.34442333 62.4965797 21.0625 62.4375 C19.50454709 62.39424603 17.9466042 62.35062969 16.38867188 62.30664062 C12.59255078 62.20023961 8.79632686 62.09877501 5 62 C6.12451727 59.0280615 7.22293791 56.66559313 9 54 C8.505 52.515 8.505 52.515 8 51 C9.32 51.33 10.64 51.66 12 52 C12.66 50.35 13.32 48.7 14 47 C14.66 47 15.32 47 16 47 C16 46.34 16 45.68 16 45 C17.32093103 43.65437867 18.6576883 42.3242941 20 41 C21.81215347 38.79693515 23.5296629 36.52513726 25.25 34.25 C26.8175 32.1875 28.385 30.125 30 28 C15.15 27.505 15.15 27.505 0 27 C0 18.09 0 9.18 0 0 Z " fill="#FDFAFC" transform="translate(44,4)"/>
<path d="M0 0 C-0.375 2.4375 -0.375 2.4375 -1 5 C-3 6 -3 6 -6 7 C-6 23.17 -6 39.34 -6 56 C-5.34 56 -4.68 56 -4 56 C-3.731875 55.38125 -3.46375 54.7625 -3.1875 54.125 C-2 52 -2 52 1 50 C1 68.81 1 87.62 1 107 C-8.57 107 -18.14 107 -28 107 C-28 85.55 -28 64.1 -28 42 C-40.41961485 41.38720528 -40.41961485 41.38720528 -52 44 C-51.01 44.66 -50.02 45.32 -49 46 C-49 46.66 -49 47.32 -49 48 C-48.34 48 -47.68 48 -47 48 C-47 49.32 -47 50.64 -47 52 C-46.34 52 -45.68 52 -45 52 C-40.9003392 61.66348617 -39.01380347 72.4202446 -41.72265625 82.7578125 C-43.01369474 85.7580396 -44.57409381 88.37643568 -46.4140625 91.0703125 C-46.87554687 91.74835938 -47.33703125 92.42640625 -47.8125 93.125 C-48.25207031 93.70507812 -48.69164062 94.28515625 -49.14453125 94.8828125 C-50.43166139 98.06831266 -49.64494709 100.70008667 -49 104 C-51.70647467 104.67511172 -54.41477185 105.34027341 -57.125 106 C-57.88554688 106.19078125 -58.64609375 106.3815625 -59.4296875 106.578125 C-63.71588834 107.6127252 -67.55400901 108.2272711 -72 108 C-72 107.67 -72 107.34 -72 107 C-75.63 106.67 -79.26 106.34 -83 106 C-83 104.02 -83 102.04 -83 100 C-82.09378906 99.84144531 -81.18757813 99.68289062 -80.25390625 99.51953125 C-70.22490805 97.59863318 -61.6809375 95.28058594 -55.21875 86.93359375 C-50.81157683 79.94144401 -49.90011245 72.11167067 -51 64 C-52.91270684 57.70400664 -56.06537245 52.94997865 -61.53125 49.25 C-66.43235901 46.76842582 -71.70006923 45.37345767 -77 44 C-75.125 40.125 -75.125 40.125 -74 39 C-72.33382885 38.95936168 -70.66611905 38.957279 -69 39 C-69.24878906 38.46375 -69.49757813 37.9275 -69.75390625 37.375 C-70.14147855 33.63461971 -68.17591796 31.91176321 -65.9375 29 C-65.16277344 27.96875 -64.38804688 26.9375 -63.58984375 25.875 C-60.86602461 22.85127317 -58.45392873 21.08539093 -55 19 C-56.96454718 23.10075382 -59.36375434 26.89753689 -61.7578125 30.7578125 C-63.16153582 32.86436293 -63.16153582 32.86436293 -63 35 C-61.02 35.99 -59.04 36.98 -57 38 C-57 38.66 -57 39.32 -57 40 C-52.545 39.505 -52.545 39.505 -48 39 C-47.67 38.01 -47.34 37.02 -47 36 C-45.37344108 34.29416835 -43.69794086 32.6347943 -42 31 C-32.97663569 21.79455909 -32.97663569 21.79455909 -25.1875 11.5625 C-18.02207468 1.04045554 -12.89604773 -1.14108288 0 0 Z " fill="#FDFBFD" transform="translate(164,4)"/>
<path d="M0 0 C23.76 0 47.52 0 72 0 C68 6 68 6 65.16522217 6.7215271 C64.07268127 6.70820343 62.98014038 6.69487976 61.85449219 6.68115234 C60.61350769 6.68069916 59.37252319 6.68024597 58.09393311 6.67977905 C56.74489898 6.64914154 55.39587967 6.6178456 54.046875 6.5859375 C52.66255533 6.57474161 51.27821183 6.56620327 49.89385986 6.56021118 C46.25673351 6.53734227 42.6210534 6.47844032 38.98449707 6.4119873 C35.27111375 6.35052021 31.55749582 6.32318701 27.84375 6.29296875 C20.56184186 6.22869129 13.28112385 6.12634009 6 6 C6 9.63 6 13.26 6 17 C18.87 17 31.74 17 45 17 C36.57142857 29.64285714 36.57142857 29.64285714 34 33 C33.34 33 32.68 33 32 33 C31.66355469 33.78117187 31.66355469 33.78117187 31.3203125 34.578125 C29.50575891 37.90659609 27.21085825 40.77292576 24.875 43.75 C24.40707031 44.35199219 23.93914062 44.95398437 23.45703125 45.57421875 C22.30774993 47.05186616 21.15428765 48.52626005 20 50 C21.17175781 50.02578125 22.34351563 50.0515625 23.55078125 50.078125 C34.09120189 50.41379288 43.37113763 50.91631554 52.1875 57.3125 C55.82316563 62.55805448 54.9894211 70.03793994 54 76 C51.58378768 81.07180172 47.91984748 83.95069109 42.75 86 C34.92869589 88.03513525 27.44317612 88.00283806 20.1484375 84.35546875 C16.39606009 81.98805973 13.17707533 79.08184963 10 76 C6.59787701 77.61382757 3.89675481 79.58603766 1 82 C-0.32 80.68 -1.64 79.36 -3 78 C-1.65396518 73.96189555 0.65336723 72.52704924 4 70 C4.66 70 5.32 70 6 70 C6 69.34 6 68.68 6 68 C7.98 67.01 7.98 67.01 10 66 C10.68707031 66.71027344 11.37414063 67.42054687 12.08203125 68.15234375 C13.43361328 69.53099609 13.43361328 69.53099609 14.8125 70.9375 C15.70582031 71.85402344 16.59914063 72.77054687 17.51953125 73.71484375 C19.85436593 76.17935108 19.85436593 76.17935108 23 77 C24.485 76.505 24.485 76.505 26 76 C26.66 76.33 27.32 76.66 28 77 C32.86083351 77.40702632 37.45835286 77.49332708 42.125 76 C44.55458272 73.40844509 44.91934956 71.43355748 45.125 67.9375 C45.09454904 65.86117535 45.09454904 65.86117535 44 63.5625 C39.52039602 60.06280939 32.60664823 60.81786271 27.09765625 60.68359375 C26.01380898 60.6524221 26.01380898 60.6524221 24.9080658 60.62062073 C22.6262963 60.55584574 20.34442333 60.4965797 18.0625 60.4375 C16.50454709 60.39424603 14.9466042 60.35062969 13.38867188 60.30664062 C9.59255078 60.20023961 5.79632686 60.09877501 2 60 C3.12451727 57.0280615 4.22293791 54.66559313 6 52 C5.505 50.515 5.505 50.515 5 49 C6.32 49.33 7.64 49.66 9 50 C9.66 48.35 10.32 46.7 11 45 C11.66 45 12.32 45 13 45 C13 44.34 13 43.68 13 43 C15.5 41.5 15.5 41.5 18 40 C24.06066017 34.17504209 24.06066017 34.17504209 32 23 C21.44 23 10.88 23 0 23 C0 15.41 0 7.82 0 0 Z " fill="#DC92B3" transform="translate(47,6)"/>
<path d="M0 0 C-1.64413654 4.08572852 -4.56780172 6.93463184 -7.5625 10.0625 C-12.36550682 15.1610653 -16.88249313 20.38231284 -21.2578125 25.85546875 C-23 28 -23 28 -25 30 C-21.37 30.33 -17.74 30.66 -14 31 C-14 52.78 -14 74.56 -14 97 C-10.04 97 -6.08 97 -2 97 C-2 84.46 -2 71.92 -2 59 C-1.34 59 -0.68 59 0 59 C0.28875 58.360625 0.5775 57.72125 0.875 57.0625 C2 55 2 55 4 54 C4 70.17 4 86.34 4 103 C-3.92 103 -11.84 103 -20 103 C-20 81.55 -20 60.1 -20 38 C-26.6 38 -33.2 38 -40 38 C-38.04243718 34.08487436 -35.77223466 31.37683645 -32.8125 28.25 C-31.8066693 27.16985004 -30.80145959 26.08912149 -29.796875 25.0078125 C-29.31154297 24.48735352 -28.82621094 23.96689453 -28.32617188 23.43066406 C-26.70948789 21.68659776 -25.12793225 19.91517252 -23.5625 18.125 C-23.02625 17.51914062 -22.49 16.91328125 -21.9375 16.2890625 C-20.3021964 14.35703042 -18.7420272 12.39491802 -17.1875 10.3984375 C-16.41684204 9.43719971 -16.41684204 9.43719971 -15.63061523 8.45654297 C-14.60506379 7.17695877 -13.59833481 5.88199944 -12.61352539 4.57080078 C-8.67116016 -0.28348062 -6.18021223 -0.69335714 0 0 Z " fill="#DA93B2" transform="translate(159,6)"/>
<path d="M0 0 C0 4.63565841 -2.61150605 7.43390882 -5.1875 11.1875 C-7.18056711 13.72253373 -7.18056711 13.72253373 -7 16 C-5.02 16.99 -3.04 17.98 -1 19 C-1 19.66 -1 20.32 -1 21 C2.96 20.505 2.96 20.505 7 20 C6.625 21.9375 6.625 21.9375 6 24 C5.01 24.495 5.01 24.495 4 25 C5.485 25.99 5.485 25.99 7 27 C7 27.66 7 28.32 7 29 C7.66 29 8.32 29 9 29 C9 30.32 9 31.64 9 33 C9.66 33 10.32 33 11 33 C15.0996608 42.66348617 16.98619653 53.4202446 14.27734375 63.7578125 C12.98630526 66.7580396 11.42590619 69.37643568 9.5859375 72.0703125 C9.12445313 72.74835938 8.66296875 73.42640625 8.1875 74.125 C7.74792969 74.70507812 7.30835938 75.28515625 6.85546875 75.8828125 C5.56833861 79.06831266 6.35505291 81.70008667 7 85 C4.29352533 85.67511172 1.58522815 86.34027341 -1.125 87 C-1.88554688 87.19078125 -2.64609375 87.3815625 -3.4296875 87.578125 C-7.71588834 88.6127252 -11.55400901 89.2272711 -16 89 C-16 88.67 -16 88.34 -16 88 C-19.63 87.67 -23.26 87.34 -27 87 C-27 85.02 -27 83.04 -27 81 C-26.09378906 80.84144531 -25.18757813 80.68289062 -24.25390625 80.51953125 C-14.22490805 78.59863318 -5.6809375 76.28058594 0.78125 67.93359375 C5.18842317 60.94144401 6.09988755 53.11167067 5 45 C3.08729316 38.70400664 -0.06537245 33.94997865 -5.53125 30.25 C-10.43235901 27.76842582 -15.70006923 26.37345767 -21 25 C-19.125 21.125 -19.125 21.125 -18 20 C-16.33382885 19.95936168 -14.66611905 19.957279 -13 20 C-13.25007813 19.46375 -13.50015625 18.9275 -13.7578125 18.375 C-14.14012365 14.62588423 -12.13235473 12.90335014 -9.875 10 C-9.08867188 8.96875 -8.30234375 7.9375 -7.4921875 6.875 C-5.16943671 4.19546304 -2.84268371 2.10419292 0 0 Z " fill="#DB92B3" transform="translate(108,23)"/>
<path d="M0 0 C-0.375 2.4375 -0.375 2.4375 -1 5 C-2.2337837 5.61689185 -3.48212021 6.20662295 -4.75 6.75 C-7.85220375 8.47344653 -10.31460208 10.68079271 -13 13 C-11.63629701 10.00779732 -10.05091917 7.70973471 -7.875 5.25 C-7.33617187 4.63640625 -6.79734375 4.0228125 -6.2421875 3.390625 C-5.83226562 2.93171875 -5.42234375 2.4728125 -5 2 C-9.49377195 1.83659011 -11.84784119 1.98743722 -15.2890625 5.01171875 C-17.60926106 7.61496559 -19.81835282 10.27987004 -22 13 C-23.1593809 14.3396734 -24.32548017 15.67357923 -25.5 17 C-26.056875 17.64066406 -26.61375 18.28132813 -27.1875 18.94140625 C-29.26371868 21.29952531 -31.38264168 23.6162744 -33.5 25.9375 C-37.58304348 30.4547608 -41.32218647 35.14841619 -45 40 C-38.4 40 -31.8 40 -25 40 C-25 61.45 -25 82.9 -25 105 C-17.08 105 -9.16 105 -1 105 C-1.33 88.5 -1.66 72 -2 55 C-1.34 55 -0.68 55 0 55 C0.33 72.16 0.66 89.32 1 107 C-8.57 107 -18.14 107 -28 107 C-28 85.55 -28 64.1 -28 42 C-35.26 42 -42.52 42 -50 42 C-49.01 39.03 -49.01 39.03 -48 36 C-46.515 35.505 -46.515 35.505 -45 35 C-43.41983233 33.47930027 -43.41983233 33.47930027 -41.875 31.5625 C-39.15437857 28.34252401 -36.36376113 25.21844846 -33.5 22.125 C-30.51161637 18.83322717 -27.90148386 15.51128216 -25.4375 11.8125 C-18.07741985 1.22402106 -13.12847701 -1.16164895 0 0 Z " fill="#FEF0F6" transform="translate(164,4)"/>
<path d="M0 0 C26.4 0 52.8 0 80 0 C80 2 80 2 78.25 3.8125 C77.5075 4.534375 76.765 5.25625 76 6 C75.29875 6.9075 74.5975 7.815 73.875 8.75 C73.25625 9.4925 72.6375 10.235 72 11 C71.34 11 70.68 11 70 11 C70 10.34 70 9.68 70 9 C49.87 9 29.74 9 9 9 C9 8.67 9 8.34 9 8 C9.77007889 7.99635437 10.54015778 7.99270874 11.33357239 7.98895264 C18.5879811 7.95109872 25.84187477 7.89427685 33.09595203 7.81609726 C36.82546064 7.77657355 40.55473143 7.74440953 44.28442383 7.72900391 C47.88329191 7.71386886 51.48150641 7.6794814 55.08008385 7.63169098 C56.45355234 7.61684425 57.82711414 7.60895709 59.20066261 7.60811615 C61.12322468 7.60575502 63.04569669 7.5764413 64.96801758 7.54589844 C66.06277908 7.53701599 67.15754059 7.52813354 68.28547668 7.51898193 C71.54213938 7.21200366 71.54213938 7.21200366 74 3 C50.57 2.67 27.14 2.34 3 2 C3 9.59 3 17.18 3 25 C13.56 25 24.12 25 35 25 C33.03321312 28.93357375 30.71092657 32.27226814 28.0625 35.75 C27.61970703 36.35199219 27.17691406 36.95398437 26.72070312 37.57421875 C25.55376265 39.1081107 24.28263586 40.56145217 23 42 C22.01 42 21.02 42 20 42 C22.85531506 36.79324901 26.22034489 32.85955657 30 28 C15.15 27.505 15.15 27.505 0 27 C0 18.09 0 9.18 0 0 Z " fill="#FEF3FA" transform="translate(44,4)"/>
<path d="M0 0 C0 4.63565841 -2.61150605 7.43390882 -5.1875 11.1875 C-7.18056711 13.72253373 -7.18056711 13.72253373 -7 16 C-5.02 16.99 -3.04 17.98 -1 19 C-1 19.66 -1 20.32 -1 21 C2.96 20.505 2.96 20.505 7 20 C6.625 21.9375 6.625 21.9375 6 24 C5.34 24.33 4.68 24.66 4 25 C4.99 25.66 5.98 26.32 7 27 C7 27.66 7 28.32 7 29 C7.66 29 8.32 29 9 29 C9 30.32 9 31.64 9 33 C9.66 33 10.32 33 11 33 C13.82375209 39.65598708 15.34696671 45.81759826 15.3125 53.0625 C15.32861328 53.74376953 15.34472656 54.42503906 15.36132812 55.12695312 C15.3658263 59.80955397 14.55456007 63.06944738 12 67 C10.515 67.495 10.515 67.495 9 68 C9.2165625 67.12601563 9.2165625 67.12601563 9.4375 66.234375 C11.94605177 55.15493801 12.48294854 43.94641034 6.74609375 33.77734375 C1.80304154 26.57153195 -4.60066825 22.92484686 -13 21 C-13.7578125 18.87890625 -13.7578125 18.87890625 -14 16 C-12.3046875 13.02734375 -12.3046875 13.02734375 -9.875 9.9375 C-8.69550781 8.40416016 -8.69550781 8.40416016 -7.4921875 6.83984375 C-5.16575809 4.18888109 -2.82560614 2.09657964 0 0 Z " fill="#E6E2E5" transform="translate(108,23)"/>
<path d="M0 0 C0.66 0.33 1.32 0.66 2 1 C1.21654285 2.17219543 0.42297164 3.33763668 -0.375 4.5 C-0.81585938 5.1496875 -1.25671875 5.799375 -1.7109375 6.46875 C-2.13632812 6.9740625 -2.56171875 7.479375 -3 8 C-3.66 8 -4.32 8 -5 8 C-5.66 9.65 -6.32 11.3 -7 13 C-5.6996582 13.01401855 -5.6996582 13.01401855 -4.37304688 13.02832031 C-1.12224259 13.07262577 2.12765627 13.13436953 5.37792969 13.20751953 C6.77819961 13.23555071 8.17862251 13.25685316 9.57910156 13.27099609 C24.25888418 13.42805511 24.25888418 13.42805511 31 18 C33.81968675 22.22953012 33.66891983 26.0320466 33 31 C30.8381666 34.08833343 28.46470579 35.61411768 25 37 C21.6171875 37.265625 21.6171875 37.265625 17.875 37.25 C16.63492188 37.25515625 15.39484375 37.2603125 14.1171875 37.265625 C11 37 11 37 9 35 C12.25485714 34.00439664 15.04957719 33.98403234 18.4375 34.125 C21.72152537 34.13376909 23.97432322 34.00821657 27.125 33 C29.55458272 30.40844509 29.91934956 28.43355748 30.125 24.9375 C30.09454904 22.86117535 30.09454904 22.86117535 29 20.5625 C24.52039602 17.06280939 17.60664823 17.81786271 12.09765625 17.68359375 C11.3750914 17.66281265 10.65252655 17.64203156 9.9080658 17.62062073 C7.6262963 17.55584574 5.34442333 17.4965797 3.0625 17.4375 C1.50454709 17.39424603 -0.0533958 17.35062969 -1.61132812 17.30664062 C-5.40744922 17.20023961 -9.20367314 17.09877501 -13 17 C-11.83863766 13.80269837 -10.73842345 11.3627504 -8.3984375 8.88671875 C-7.90859375 8.36142578 -7.41875 7.83613281 -6.9140625 7.29492188 C-6.40617187 6.76447266 -5.89828125 6.23402344 -5.375 5.6875 C-4.6015625 4.86282227 -4.6015625 4.86282227 -3.8125 4.02148438 C-2.54799382 2.67501946 -1.27485078 1.33667465 0 0 Z " fill="#F6E8EF" transform="translate(62,49)"/>
<path d="M0 0 C0 2 0 2 -1.75 3.8125 C-2.4925 4.534375 -3.235 5.25625 -4 6 C-4.70125 6.9075 -5.4025 7.815 -6.125 8.75 C-6.74375 9.4925 -7.3625 10.235 -8 11 C-8.66 11 -9.32 11 -10 11 C-10 10.34 -10 9.68 -10 9 C-30.13 9 -50.26 9 -71 9 C-71 8.67 -71 8.34 -71 8 C-70.22992111 7.99635437 -69.45984222 7.99270874 -68.66642761 7.98895264 C-61.4120189 7.95109872 -54.15812523 7.89427685 -46.90404797 7.81609726 C-43.17453936 7.77657355 -39.44526857 7.74440953 -35.71557617 7.72900391 C-32.11670809 7.71386886 -28.51849359 7.6794814 -24.91991615 7.63169098 C-23.54644766 7.61684425 -22.17288586 7.60895709 -20.79933739 7.60811615 C-18.87677532 7.60575502 -16.95430331 7.5764413 -15.03198242 7.54589844 C-13.93722092 7.53701599 -12.84245941 7.52813354 -11.71452332 7.51898193 C-8.45786062 7.21200366 -8.45786062 7.21200366 -6 3 C-29.43 2.67 -52.86 2.34 -77 2 C-77 1.67 -77 1.34 -77 1 C-67.69872506 0.86920567 -58.39744495 0.73878773 -49.09615803 0.60884857 C-44.77707474 0.5484991 -40.45799334 0.48802062 -36.13891602 0.42724609 C-31.96977848 0.36858616 -27.8006363 0.3102667 -23.63149071 0.25218201 C-22.04191099 0.22997633 -20.45233298 0.20764855 -18.86275673 0.18519592 C-16.6341762 0.1537384 -14.40558999 0.12271734 -12.17700195 0.09179688 C-10.90903275 0.07403198 -9.64106354 0.05626709 -8.33467102 0.03796387 C-5.55598208 0.00632963 -2.77881178 -0.00777157 0 0 Z " fill="#F0EAED" transform="translate(124,4)"/>
<path d="M0 0 C0.33 0.66 0.66 1.32 1 2 C-0.02901047 3.63998544 -1.06462217 5.27826865 -2.1875 6.85546875 C-3.39943065 10.05426648 -2.6312879 12.70546629 -2 16 C-4.70647467 16.67511172 -7.41477185 17.34027341 -10.125 18 C-10.88554688 18.19078125 -11.64609375 18.3815625 -12.4296875 18.578125 C-16.69134599 19.60680119 -20.5820246 20.37260034 -25 20 C-27.375 18.5 -27.375 18.5 -29 17 C-27.081875 16.6596875 -27.081875 16.6596875 -25.125 16.3125 C-15.79491371 14.17405008 -9.61294138 10.34060778 -3.59375 2.890625 C-2 1 -2 1 0 0 Z " fill="#FAF2F7" transform="translate(117,92)"/>
<path d="M0 0 C0 4.63565841 -2.61150605 7.43390882 -5.1875 11.1875 C-7.18056711 13.72253373 -7.18056711 13.72253373 -7 16 C-5.02 16.99 -3.04 17.98 -1 19 C-1 19.66 -1 20.32 -1 21 C2.96 20.505 2.96 20.505 7 20 C6.67 21.32 6.34 22.64 6 24 C4.68 24.33 3.36 24.66 2 25 C2 24.34 2 23.68 2 23 C-3.30094216 21.19695845 -8.60308488 19.49276376 -14 18 C-11.37751514 10.67512849 -6.38432272 4.44967947 0 0 Z " fill="#000000" transform="translate(108,23)"/>
<path d="M0 0 C0 3.93169105 -1.39419615 5.16427228 -4 8 C-4.66 8 -5.32 8 -6 8 C-6 7.34 -6 6.68 -6 6 C-26.13 6 -46.26 6 -67 6 C-67 5.67 -67 5.34 -67 5 C-66.2277005 4.99413376 -65.455401 4.98826752 -64.65969849 4.98222351 C-57.39032614 4.92437944 -50.12129982 4.85235148 -42.85223579 4.76428509 C-39.11489125 4.71950948 -35.37765753 4.68026977 -31.64013672 4.65356445 C-28.0348751 4.6276024 -24.43003831 4.58725188 -20.82503891 4.53681374 C-19.4479487 4.52009662 -18.07078493 4.50861257 -16.69360733 4.50238609 C-14.76843965 4.49279841 -12.8434038 4.46307292 -10.91845703 4.43237305 C-9.82147491 4.42126999 -8.7244928 4.41016693 -7.5942688 4.39872742 C-6.7381601 4.26714737 -5.88205139 4.13556732 -5 4 C-4.34 3.01 -3.68 2.02 -3 1 C-2.01 0.67 -1.02 0.34 0 0 Z " fill="#EDE6EA" transform="translate(120,7)"/>
<path d="M0 0 C0.33 0 0.66 0 1 0 C1.62562066 9.10625621 1.62562066 9.10625621 -0.75 12.5 C-5.40536791 15.60357861 -8.4243616 16.27380225 -14.125 16.25 C-15.36507812 16.25515625 -16.60515625 16.2603125 -17.8828125 16.265625 C-21 16 -21 16 -23 14 C-19.74514286 13.00439664 -16.95042281 12.98403234 -13.5625 13.125 C-10.23532476 13.13832647 -8.05137228 13.01746657 -4.875 11.9375 C-2.21126126 9.18496997 -2.21134953 6.73384175 -2 3 C-1.34 3 -0.68 3 0 3 C0 2.01 0 1.02 0 0 Z " fill="#DCD4DA" transform="translate(94,70)"/>
<path d="M0 0 C1.4606285 2.64738916 2 3.89448334 2 7 C-0.70647467 7.67511172 -3.41477185 8.34027341 -6.125 9 C-6.88554688 9.19078125 -7.64609375 9.3815625 -8.4296875 9.578125 C-12.71588834 10.6127252 -16.55400901 11.2272711 -21 11 C-17.24546929 9.0532063 -13.37359823 7.53603833 -9.4375 6 C-5.63817955 4.44130443 -2.78460979 3.06307076 0 0 Z " fill="#000000" transform="translate(113,101)"/>
<path d="M0 0 C3.36606602 1.12202201 4.19481269 2.09274021 6.4375 4.75 C7.0459375 5.46671875 7.654375 6.1834375 8.28125 6.921875 C10.21515601 9.26014318 12.13184428 11.60876067 14 14 C13.01 14.495 13.01 14.495 12 15 C7.51282966 11.13635705 3.12324647 7.25209792 -1 3 C-0.67 2.01 -0.34 1.02 0 0 Z " fill="#EFE9ED" transform="translate(57,69)"/>
<path d="M0 0 C-0.375 2.4375 -0.375 2.4375 -1 5 C-2.2337837 5.61689185 -3.48212021 6.20662295 -4.75 6.75 C-7.85220375 8.47344653 -10.31460208 10.68079271 -13 13 C-11.63629701 10.00779732 -10.05091917 7.70973471 -7.875 5.25 C-7.33617187 4.63640625 -6.79734375 4.0228125 -6.2421875 3.390625 C-5.62730469 2.70226562 -5.62730469 2.70226562 -5 2 C-7.31 2 -9.62 2 -12 2 C-12 1.67 -12 1.34 -12 1 C-7.915021 0.45533613 -4.1274515 0 0 0 Z " fill="#EAE5E8" transform="translate(164,4)"/>
<path d="M0 0 C1.05960938 0.00676758 1.05960938 0.00676758 2.140625 0.01367188 C3.88545275 0.02546125 5.630237 0.04339676 7.375 0.0625 C7.045 1.0525 6.715 2.0425 6.375 3.0625 C4.08358714 3.11634521 1.79181812 3.15522087 -0.5 3.1875 C-2.41425781 3.22230469 -2.41425781 3.22230469 -4.3671875 3.2578125 C-7.625 3.0625 -7.625 3.0625 -9.625 1.0625 C-6.55966836 -0.47016582 -3.35745728 -0.04026471 0 0 Z " fill="#FDFAFC" transform="translate(80.625,82.9375)"/>
<path d="M0 0 C0 3.5595477 -0.61579539 4.44549506 -3 7 C-5.1875 7.75 -5.1875 7.75 -7 8 C-7 7.34 -7 6.68 -7 6 C-5.46875 4.4921875 -5.46875 4.4921875 -3.5 2.875 C-2.8503125 2.33617187 -2.200625 1.79734375 -1.53125 1.2421875 C-1.0259375 0.83226563 -0.520625 0.42234375 0 0 Z M-11 9 C-10.34 9.66 -9.68 10.32 -9 11 C-9.99 11.495 -9.99 11.495 -11 12 C-11 11.01 -11 10.02 -11 9 Z " fill="#DFDCDE" transform="translate(127,31)"/>
<path d="M0 0 C0 3.93169105 -1.39419615 5.16427228 -4 8 C-4.66 8 -5.32 8 -6 8 C-4.52307692 2.33846154 -4.52307692 2.33846154 -1.875 0.625 C-0.946875 0.315625 -0.946875 0.315625 0 0 Z " fill="#D3CED0" transform="translate(120,7)"/>
<path d="M0 0 C3.875 0.875 3.875 0.875 5 2 C5.04063832 3.66617115 5.042721 5.33388095 5 7 C3.29115995 5.37660195 1.62553283 3.70680947 0 2 C0 1.34 0 0.68 0 0 Z " fill="#FCFAFC" transform="translate(89,66)"/>
<path d="" fill="#000000" transform="translate(0,0)"/>
<path d="" fill="#000000" transform="translate(0,0)"/>
<path d="" fill="#000000" transform="translate(0,0)"/>
<path d="" fill="#000000" transform="translate(0,0)"/>
<path d="" fill="#000000" transform="translate(0,0)"/>
<path d="" fill="#000000" transform="translate(0,0)"/>
<path d="" fill="#000000" transform="translate(0,0)"/>
<path d="" fill="#000000" transform="translate(0,0)"/>
<path d="" fill="#000000" transform="translate(0,0)"/>
<path d="" fill="#000000" transform="translate(0,0)"/>
<path d="" fill="#000000" transform="translate(0,0)"/>
</svg>
