<?xml version="1.0" encoding="UTF-8"?>
<svg version="1.1" xmlns="http://www.w3.org/2000/svg" width="206" height="116">
<path d="M0 0 C0 20.46 0 40.92 0 62 C3.96 62 7.92 62 12 62 C12 67.94 12 73.88 12 80 C8.04 80 4.08 80 0 80 C0 86.6 0 93.2 0 100 C-6.27 100 -12.54 100 -19 100 C-19 93.4 -19 86.8 -19 80 C-35.17 80 -51.34 80 -68 80 C-68 75.05 -68 70.1 -68 65 C-67.01 64.01 -66.02 63.02 -65 62 C-64.31678831 60.83360438 -63.67015327 59.64498269 -63.0625 58.4375 C-61.40825218 55.40788139 -60.1958518 54.38486911 -57 53 C-56.31297115 51.67704362 -55.6492959 50.34187818 -55 49 C-54.11155157 47.75028489 -53.19295768 46.52161509 -52.25 45.3125 C-49.49296091 41.71694537 -47.00635199 38.00717257 -44.58984375 34.17578125 C-43 32 -43 32 -40.7109375 29.7421875 C-37.34445259 26.33689585 -34.55914741 22.63530666 -31.6875 18.8125 C-31.10774414 18.06234619 -30.52798828 17.31219238 -29.93066406 16.53930664 C-27.44216601 13.31184012 -25.09171434 10.15091339 -22.97265625 6.6640625 C-16.68383146 -3.28967833 -13.88022735 0 0 0 Z M-22 35 C-22 41.93 -22 48.86 -22 56 C-27.28 56 -32.56 56 -38 56 C-38 56.99 -38 57.98 -38 59 C-33.35335895 59.70137978 -28.90999254 60.05947482 -24.20703125 60.03125 C-22.73907104 60.02448242 -22.73907104 60.02448242 -21.24145508 60.01757812 C-20.13193481 60.00887695 -20.13193481 60.00887695 -19 60 C-18.9710663 56.20834926 -18.95322399 52.41672673 -18.9375 48.625 C-18.92912109 47.54476562 -18.92074219 46.46453125 -18.91210938 45.3515625 C-18.90888672 44.3203125 -18.90566406 43.2890625 -18.90234375 42.2265625 C-18.89710693 41.27346191 -18.89187012 40.32036133 -18.88647461 39.33837891 C-18.84357401 36.97675594 -18.84357401 36.97675594 -20 35 C-20.66 35 -21.32 35 -22 35 Z " fill="#368B75" transform="translate(150,8)"/>
<path d="M0 0 C0 33 0 66 0 100 C-6.6 100 -13.2 100 -20 100 C-20.33 75.58 -20.66 51.16 -21 26 C-25.455 28.97 -25.455 28.97 -30 32 C-30.99 32 -31.98 32 -33 32 C-33.97159933 24.31395526 -34.10920422 16.74136601 -34 9 C-33.18595703 8.87818359 -33.18595703 8.87818359 -32.35546875 8.75390625 C-29.19042847 7.74088341 -26.99929279 5.88809092 -24.3125 3.9375 C-17 0 -17 0 0 0 Z " fill="#368B74" transform="translate(78,8)"/>
<path d="M0 0 C0.33 0 0.66 0 1 0 C1 6.27 1 12.54 1 19 C-9.625 20.125 -9.625 20.125 -13 19 C-10.960576 14.69935945 -8.25513588 11.06697665 -5.4375 7.25 C-4.93025391 6.55261719 -4.42300781 5.85523438 -3.90039062 5.13671875 C-2.6273237 3.40426282 -1.31684046 1.69942171 0 0 Z " fill="#000100" transform="translate(127,45)"/>
<path d="M0 0 C0.33 0.66 0.66 1.32 1 2 C7.27 2.33 13.54 2.66 20 3 C16.84685215 5.10209857 16.13896919 5.2434761 12.55078125 5.1953125 C11.27944336 5.18564453 11.27944336 5.18564453 9.98242188 5.17578125 C9.10134766 5.15902344 8.22027344 5.14226562 7.3125 5.125 C6.41982422 5.11597656 5.52714844 5.10695313 4.60742188 5.09765625 C2.40467686 5.07409748 0.20247412 5.04120329 -2 5 C-1.34 3.35 -0.68 1.7 0 0 Z " fill="#000100" transform="translate(111,65)"/>
<path d="M0 0 C0.33 0.66 0.66 1.32 1 2 C0.34 1.67 -0.32 1.34 -1 1 C-0.67 0.67 -0.34 0.34 0 0 Z " fill="#000300" transform="translate(84,68)"/>
<path d="" fill="#000000" transform="translate(0,0)"/>
<path d="" fill="#000000" transform="translate(0,0)"/>
<path d="" fill="#000000" transform="translate(0,0)"/>
</svg>
