<?xml version="1.0" encoding="UTF-8"?>
<svg version="1.1" xmlns="http://www.w3.org/2000/svg" width="206" height="116">
<path d="M0 0 C1.29550781 0.04833984 2.59101562 0.09667969 3.92578125 0.14648438 C5.28906763 0.20300129 6.65234883 0.25964351 8.015625 0.31640625 C9.39451112 0.36966447 10.77341735 0.42240459 12.15234375 0.47460938 C15.52367033 0.60427578 18.89470018 0.73924279 22.265625 0.87890625 C23.62983531 3.60732686 23.14369711 5.48843943 22.828125 8.50390625 C22.72628906 9.50679687 22.62445313 10.5096875 22.51953125 11.54296875 C22.43574219 12.31382813 22.35195312 13.0846875 22.265625 13.87890625 C21.60030762 13.9039624 20.93499023 13.92901855 20.24951172 13.95483398 C17.21305013 14.07141761 14.17685154 14.19385976 11.140625 14.31640625 C10.09390625 14.35572266 9.0471875 14.39503906 7.96875 14.43554688 C2.99368658 14.64021721 -1.84207649 14.87166832 -6.734375 15.87890625 C-6.734375 16.53890625 -6.734375 17.19890625 -6.734375 17.87890625 C-9.044375 18.20890625 -11.354375 18.53890625 -13.734375 18.87890625 C-13.96125 19.60078125 -14.188125 20.32265625 -14.421875 21.06640625 C-15.99772628 24.44323042 -17.94314116 26.43657664 -20.734375 28.87890625 C-21.394375 28.87890625 -22.054375 28.87890625 -22.734375 28.87890625 C-22.7613793 30.33713837 -22.78077287 31.795513 -22.796875 33.25390625 C-22.80847656 34.06601562 -22.82007812 34.878125 -22.83203125 35.71484375 C-22.87903834 37.92827767 -22.87903834 37.92827767 -21.734375 39.87890625 C-21.074375 39.21890625 -20.414375 38.55890625 -19.734375 37.87890625 C-17.12060547 37.65185547 -17.12060547 37.65185547 -13.8515625 37.68359375 C-12.10166016 37.69326172 -12.10166016 37.69326172 -10.31640625 37.703125 C-8.48142578 37.72826172 -8.48142578 37.72826172 -6.609375 37.75390625 C-5.37832031 37.76292969 -4.14726563 37.77195313 -2.87890625 37.78125 C0.16946315 37.80488077 3.21744882 37.83782571 6.265625 37.87890625 C6.265625 38.53890625 6.265625 39.19890625 6.265625 39.87890625 C8.905625 40.20890625 11.545625 40.53890625 14.265625 40.87890625 C14.265625 41.53890625 14.265625 42.19890625 14.265625 42.87890625 C15.255625 42.87890625 16.245625 42.87890625 17.265625 42.87890625 C17.265625 43.53890625 17.265625 44.19890625 17.265625 44.87890625 C18.131875 45.15734375 18.131875 45.15734375 19.015625 45.44140625 C25.06324845 49.30516568 26.48941178 57.39572799 28.265625 63.87890625 C31.565625 64.20890625 34.865625 64.53890625 38.265625 64.87890625 C38.719375 65.95140625 39.173125 67.02390625 39.640625 68.12890625 C39.91777344 68.76570313 40.19492188 69.4025 40.48046875 70.05859375 C41.07920586 71.44671063 41.64806505 72.84775438 42.203125 74.25390625 C43.14334632 76.06354932 43.14334632 76.06354932 45.203125 76.50390625 C45.88375 76.62765625 46.564375 76.75140625 47.265625 76.87890625 C48.750625 77.86890625 48.750625 77.86890625 50.265625 78.87890625 C52.82845242 79.60855991 52.82845242 79.60855991 55.265625 79.87890625 C55.595625 79.54890625 55.925625 79.21890625 56.265625 78.87890625 C59.26621134 78.42042029 62.27251411 78.04249236 65.28515625 77.671875 C68.85740796 76.72145941 70.12713093 75.88662655 72.265625 72.87890625 C73.17687644 69.39484989 73.17687644 69.39484989 73.515625 65.62890625 C73.66515625 64.365625 73.8146875 63.10234375 73.96875 61.80078125 C74.06671875 60.8365625 74.1646875 59.87234375 74.265625 58.87890625 C73.31945312 58.76546875 72.37328125 58.65203125 71.3984375 58.53515625 C67.38697953 57.69485084 66.66220091 56.0743408 64.265625 52.87890625 C61.03401014 51.67795008 57.89368627 51.77729754 54.4765625 51.81640625 C53.37054688 51.82414062 52.26453125 51.831875 51.125 51.83984375 C49.40023437 51.85917969 49.40023437 51.85917969 47.640625 51.87890625 C45.35681741 51.90433841 43.07295558 51.92539765 40.7890625 51.94140625 C39.2719165 51.95880859 39.2719165 51.95880859 37.72412109 51.9765625 C35.265625 51.87890625 35.265625 51.87890625 33.265625 50.87890625 C33.265625 47.57890625 33.265625 44.27890625 33.265625 40.87890625 C33.925625 40.87890625 34.585625 40.87890625 35.265625 40.87890625 C35.265625 39.55890625 35.265625 38.23890625 35.265625 36.87890625 C39.39438431 32.49276974 44.76827056 30.07784803 50.265625 27.87890625 C50.925625 27.21890625 51.585625 26.55890625 52.265625 25.87890625 C53.255625 25.54890625 54.245625 25.21890625 55.265625 24.87890625 C57.02347848 23.7992797 58.75040068 22.6685402 60.453125 21.50390625 C61.35417969 20.89804687 62.25523437 20.2921875 63.18359375 19.66796875 C63.87066406 19.07757812 64.55773437 18.4871875 65.265625 17.87890625 C65.265625 16.88890625 65.265625 15.89890625 65.265625 14.87890625 C53.055625 14.87890625 40.845625 14.87890625 28.265625 14.87890625 C25.265625 8.87890625 25.265625 8.87890625 26.015625 5.62890625 C26.74060073 4.03395965 27.48211438 2.44592749 28.265625 0.87890625 C35.88175703 0.58399855 43.49836736 0.33649451 51.1171875 0.12207031 C53.70933938 0.04350058 56.30118472 -0.04596181 58.89257812 -0.14648438 C62.61561849 -0.28902038 66.33800075 -0.39247571 70.0625 -0.48828125 C71.22303894 -0.54112274 72.38357788 -0.59396423 73.57928467 -0.64840698 C76.59078323 -0.70545378 79.31032311 -0.70245195 82.265625 -0.12109375 C85.61409432 3.27991931 86.17877136 5.01905519 86.65625 9.74609375 C86.63004406 11.08259647 86.58289576 12.41884037 86.515625 13.75390625 C86.49757813 14.44226562 86.47953125 15.130625 86.4609375 15.83984375 C86.41426248 17.52014435 86.34253439 19.19971788 86.265625 20.87890625 C86.925625 20.87890625 87.585625 20.87890625 88.265625 20.87890625 C86.48172032 24.70155913 84.83369641 26.50019198 81.265625 28.87890625 C79.2578125 29.22265625 79.2578125 29.22265625 77.140625 29.37890625 C75.2225 29.62640625 75.2225 29.62640625 73.265625 29.87890625 C72.935625 30.53890625 72.605625 31.19890625 72.265625 31.87890625 C69.203125 32.50390625 69.203125 32.50390625 66.265625 32.87890625 C66.760625 35.35390625 66.760625 35.35390625 67.265625 37.87890625 C63.965625 37.87890625 60.665625 37.87890625 57.265625 37.87890625 C59.57800338 38.21308222 61.89053104 38.5462254 64.203125 38.87890625 C65.49089844 39.06453125 66.77867187 39.25015625 68.10546875 39.44140625 C70.17896019 39.75576414 70.17896019 39.75576414 72.265625 39.87890625 C71.605625 39.21890625 70.945625 38.55890625 70.265625 37.87890625 C72.390625 37.12890625 72.390625 37.12890625 75.265625 36.87890625 C79.89375522 39.23834519 81.58270293 41.07055747 83.265625 45.87890625 C84.57829018 47.23259221 85.91129825 48.56690221 87.265625 49.87890625 C90.47492118 55.11512633 90.40253797 60.70974817 90.328125 66.69140625 C90.32361328 67.38427734 90.31910156 68.07714844 90.31445312 68.79101562 C90.30275656 70.48701693 90.28482424 72.18297328 90.265625 73.87890625 C89.605625 73.87890625 88.945625 73.87890625 88.265625 73.87890625 C88.018125 74.74515625 87.770625 75.61140625 87.515625 76.50390625 C86.265625 79.87890625 86.265625 79.87890625 84.203125 82.94140625 C82.31493261 85.80414955 81.81646151 87.5738872 81.265625 90.87890625 C80.605625 91.53890625 79.945625 92.19890625 79.265625 92.87890625 C77.31581473 92.65515753 75.36388256 92.42500774 73.43359375 92.0703125 C71.25019451 91.77320617 71.25019451 91.77320617 69.078125 92.328125 C58.88281869 94.32470582 46.8440513 93.94973743 37.265625 89.87890625 C35.8425 89.32203125 35.8425 89.32203125 34.390625 88.75390625 C33.689375 88.46515625 32.988125 88.17640625 32.265625 87.87890625 C30.93885992 87.52032109 29.60726579 87.17704865 28.265625 86.87890625 C28.265625 86.21890625 28.265625 85.55890625 28.265625 84.87890625 C26.285625 85.53890625 24.305625 86.19890625 22.265625 86.87890625 C21.935625 86.21890625 21.605625 85.55890625 21.265625 84.87890625 C19.285625 85.37390625 19.285625 85.37390625 17.265625 85.87890625 C17.595625 86.53890625 17.925625 87.19890625 18.265625 87.87890625 C16.04235628 89.11405554 14.21425744 89.88892919 11.703125 90.37890625 C9.02201574 90.76961952 9.02201574 90.76961952 6.265625 92.87890625 C-5.2505073 94.59010043 -17.53748592 93.7144753 -27.734375 87.87890625 C-29.43172671 86.58486114 -31.10283676 85.25500164 -32.734375 83.87890625 C-33.600625 83.19828125 -34.466875 82.51765625 -35.359375 81.81640625 C-41.59053398 74.10944646 -41.16114861 63.76695784 -41.015625 54.29882812 C-40.98431246 52.2498137 -40.97461892 50.20157472 -40.96875 48.15234375 C-40.92791778 41.33150681 -40.65983175 34.64071124 -39.734375 27.87890625 C-39.074375 27.87890625 -38.414375 27.87890625 -37.734375 27.87890625 C-37.404375 26.22890625 -37.074375 24.57890625 -36.734375 22.87890625 C-37.394375 22.87890625 -38.054375 22.87890625 -38.734375 22.87890625 C-38.404375 20.56890625 -38.074375 18.25890625 -37.734375 15.87890625 C-37.074375 15.87890625 -36.414375 15.87890625 -35.734375 15.87890625 C-35.074375 14.88890625 -34.414375 13.89890625 -33.734375 12.87890625 C-32.744375 12.87890625 -31.754375 12.87890625 -30.734375 12.87890625 C-29.02553495 11.2555082 -27.35990783 9.58571572 -25.734375 7.87890625 C-24.744375 7.21890625 -23.754375 6.55890625 -22.734375 5.87890625 C-22.404375 4.88890625 -22.074375 3.89890625 -21.734375 2.87890625 C-20.744375 3.20890625 -19.754375 3.53890625 -18.734375 3.87890625 C-16.78087301 3.3848547 -16.78087301 3.3848547 -14.796875 2.50390625 C-9.60541452 0.36330405 -5.67782044 -0.22412449 0 0 Z M69.265625 13.87890625 C68.275625 14.86890625 67.285625 15.85890625 66.265625 16.87890625 C67.585625 16.54890625 68.905625 16.21890625 70.265625 15.87890625 C69.935625 15.21890625 69.605625 14.55890625 69.265625 13.87890625 Z M81.265625 22.87890625 C80.605625 23.53890625 79.945625 24.19890625 79.265625 24.87890625 C80.585625 24.54890625 81.905625 24.21890625 83.265625 23.87890625 C82.605625 23.54890625 81.945625 23.21890625 81.265625 22.87890625 Z M-23.734375 50.87890625 C-23.404375 54.50890625 -23.074375 58.13890625 -22.734375 61.87890625 C-23.394375 61.87890625 -24.054375 61.87890625 -24.734375 61.87890625 C-23.744375 64.84890625 -22.754375 67.81890625 -21.734375 70.87890625 C-21.074375 70.87890625 -20.414375 70.87890625 -19.734375 70.87890625 C-20.064375 71.86890625 -20.394375 72.85890625 -20.734375 73.87890625 C-15.46125819 78.46483496 -11.81756227 80.87890625 -4.734375 80.87890625 C-0.00616076 80.36147903 4.59144499 79.00617332 8.21484375 75.7734375 C10.25552808 72.09413676 9.6172934 67.92514505 9.37890625 63.83984375 C9.265625 60.87890625 9.265625 60.87890625 10.265625 57.87890625 C9.811875 57.42515625 9.358125 56.97140625 8.890625 56.50390625 C7.68229167 55.29557292 6.47395833 54.08723958 5.265625 52.87890625 C3.60947843 52.49671858 1.94105476 52.16495523 0.265625 51.87890625 C-0.724375 51.54890625 -1.714375 51.21890625 -2.734375 50.87890625 C-4.36156982 50.7974677 -5.99189219 50.77137605 -7.62109375 50.78125 C-8.55888672 50.78447266 -9.49667969 50.78769531 -10.46289062 50.79101562 C-11.43935547 50.79939453 -12.41582031 50.80777344 -13.421875 50.81640625 C-14.40994141 50.82091797 -15.39800781 50.82542969 -16.41601562 50.83007812 C-18.85549458 50.84186305 -21.29494241 50.85979842 -23.734375 50.87890625 Z M21.265625 79.87890625 C22.265625 81.87890625 22.265625 81.87890625 22.265625 81.87890625 Z " fill="#00F700" transform="translate(78.734375,11.12109375)"/>
<path d="M0 0 C2 3 2 3 2 6 C2.66 6 3.32 6 4 6 C5.7143618 7.95927063 7.38405168 9.95880212 9 12 C7.68 12 6.36 12 5 12 C4.67 11.34 4.34 10.68 4 10 C2.02 10.66 0.04 11.32 -2 12 C-2.33 11.34 -2.66 10.68 -3 10 C-3.66 9.67 -4.32 9.34 -5 9 C-4.54625 8.2575 -4.0925 7.515 -3.625 6.75 C-2.31359204 4.53069422 -1.11719197 2.32032178 0 0 Z " fill="#000000" transform="translate(103,86)"/>
<path d="M0 0 C0 3 0 3 -1.3125 4.5625 C-4.4448912 7.23083324 -6.91514709 8.59151471 -11 9 C-11.99 8.34 -12.98 7.68 -14 7 C-10.12347136 4.53311814 -6.22922529 2.75552748 -2 1 C-1.34 0.67 -0.68 0.34 0 0 Z " fill="#000000" transform="translate(166,32)"/>
<path d="M0 0 C-0.75 4.75 -0.75 4.75 -3 7 C-6.125 6.625 -6.125 6.625 -9 6 C-3.15384615 0 -3.15384615 0 0 0 Z " fill="#000000" transform="translate(161,97)"/>
<path d="M0 0 C0.66 0.33 1.32 0.66 2 1 C2.125 8.625 2.125 8.625 1 12 C0.34 12 -0.32 12 -1 12 C-1.02687279 10.18757948 -1.04633715 8.37504767 -1.0625 6.5625 C-1.07410156 5.55316406 -1.08570312 4.54382813 -1.09765625 3.50390625 C-1 1 -1 1 0 0 Z " fill="#000000" transform="translate(88,71)"/>
<path d="M0 0 C0.67578125 2.6171875 0.67578125 2.6171875 1 5 C-0.46063143 4.21258141 -1.91843173 3.4199095 -3.375 2.625 C-4.18710938 2.18414062 -4.99921875 1.74328125 -5.8359375 1.2890625 C-8 0 -8 0 -10 -2 C-5.94495195 -3.71559725 -3.51961335 -2.3464089 0 0 Z " fill="#000000" transform="translate(159,51)"/>
<path d="M0 0 C0.66 0.33 1.32 0.66 2 1 C-0.475 5.455 -0.475 5.455 -3 10 C-3.66 10 -4.32 10 -5 10 C-4.67 7.69 -4.34 5.38 -4 3 C-3.34 3 -2.68 3 -2 3 C-1.34 2.01 -0.68 1.02 0 0 Z " fill="#000000" transform="translate(45,24)"/>
<path d="M0 0 C2 2 2 2 2.1953125 4.1640625 C2.16050781 5.38222656 2.16050781 5.38222656 2.125 6.625 C2.10695312 7.44226563 2.08890625 8.25953125 2.0703125 9.1015625 C2.04710937 9.72804688 2.02390625 10.35453125 2 11 C1.34 11 0.68 11 0 11 C-0.19406478 9.35492782 -0.38007935 7.70890406 -0.5625 6.0625 C-0.66691406 5.14597656 -0.77132812 4.22945313 -0.87890625 3.28515625 C-0.91886719 2.53105469 -0.95882812 1.77695312 -1 1 C-0.67 0.67 -0.34 0.34 0 0 Z " fill="#000000" transform="translate(54,62)"/>
<path d="M0 0 C5.66153846 2.46153846 5.66153846 2.46153846 7.375 5.1875 C7.58125 5.785625 7.7875 6.38375 8 7 C4.32579134 6.69381595 3.21864487 6.24228216 0.6875 3.4375 C0.130625 2.633125 -0.42625 1.82875 -1 1 C-0.67 0.67 -0.34 0.34 0 0 Z " fill="#000000" transform="translate(144,63)"/>
<path d="M0 0 C0.33 1.32 0.66 2.64 1 4 C-1.31 4 -3.62 4 -6 4 C-6.33 3.34 -6.66 2.68 -7 2 C-2.25 0 -2.25 0 0 0 Z " fill="#000000" transform="translate(145,45)"/>
<path d="M0 0 C0.33 0.99 0.66 1.98 1 3 C-0.21484375 4.82421875 -0.21484375 4.82421875 -1.9375 6.6875 C-2.50339844 7.31011719 -3.06929687 7.93273438 -3.65234375 8.57421875 C-4.09707031 9.04472656 -4.54179688 9.51523437 -5 10 C-5.33 9.34 -5.66 8.68 -6 8 C-4.02 5.36 -2.04 2.72 0 0 Z " fill="#000000" transform="translate(63,30)"/>
<path d="M0 0 C0.33 0 0.66 0 1 0 C1 3.63 1 7.26 1 11 C-1.40820361 8.59179639 -1.68097423 7.34977063 -2 4 C-1.0625 1.6875 -1.0625 1.6875 0 0 Z " fill="#000000" transform="translate(106,14)"/>
<path d="M0 0 C0.66 0 1.32 0 2 0 C2 0.66 2 1.32 2 2 C1.01 2.33 0.02 2.66 -1 3 C-0.67 2.01 -0.34 1.02 0 0 Z " fill="#000000" transform="translate(139,29)"/>
<path d="M0 0 C2 1 2 1 2 1 Z " fill="#000000" transform="translate(75,64)"/>
<path d="" fill="#000000" transform="translate(0,0)"/>
<path d="" fill="#000000" transform="translate(0,0)"/>
<path d="" fill="#000000" transform="translate(0,0)"/>
<path d="" fill="#000000" transform="translate(0,0)"/>
<path d="" fill="#000000" transform="translate(0,0)"/>
<path d="" fill="#000000" transform="translate(0,0)"/>
<path d="" fill="#000000" transform="translate(0,0)"/>
<path d="" fill="#000000" transform="translate(0,0)"/>
</svg>
