<?xml version="1.0" encoding="UTF-8"?>
<svg version="1.1" xmlns="http://www.w3.org/2000/svg" width="206" height="116">
<path d="M0 0 C1.13838318 -0.00960754 2.27676636 -0.01921509 3.449646 -0.02911377 C4.68088196 -0.03336365 5.91211792 -0.03761353 7.18066406 -0.04199219 C9.08045013 -0.0505423 9.08045013 -0.0505423 11.01861572 -0.05926514 C13.70190015 -0.06871986 16.38507261 -0.07561405 19.06835938 -0.07910156 C22.4924224 -0.08457325 25.91608515 -0.10857612 29.34002304 -0.13707352 C32.62020605 -0.16028056 35.90041048 -0.16215536 39.18066406 -0.16699219 C41.01537262 -0.18551239 41.01537262 -0.18551239 42.887146 -0.20440674 C50.92273126 -0.18345474 56.16278239 0.29679721 62.38378906 5.72363281 C64.44628906 8.16113281 64.44628906 8.16113281 64.44628906 10.16113281 C65.10628906 10.16113281 65.76628906 10.16113281 66.44628906 10.16113281 C66.44628906 11.48113281 66.44628906 12.80113281 66.44628906 14.16113281 C67.10628906 14.16113281 67.76628906 14.16113281 68.44628906 14.16113281 C68.15753906 13.60683594 67.86878906 13.05253906 67.57128906 12.48144531 C67.20003906 11.75699219 66.82878906 11.03253906 66.44628906 10.28613281 C66.07503906 9.56683594 65.70378906 8.84753906 65.32128906 8.10644531 C64.44628906 6.16113281 64.44628906 6.16113281 64.44628906 4.16113281 C71.56716629 -0.26797365 77.58775756 -0.4247824 85.85253906 -0.37011719 C87.77144958 -0.37585754 87.77144958 -0.37585754 89.72912598 -0.38171387 C92.42557292 -0.38758117 95.1214866 -0.37913712 97.81787109 -0.36035156 C101.25427966 -0.33756222 104.68943825 -0.35070047 108.12580109 -0.37464142 C111.43064418 -0.39266615 114.7351606 -0.38000362 118.04003906 -0.37011719 C119.26420532 -0.37821411 120.48837158 -0.38631104 121.74963379 -0.39465332 C129.70874255 -0.30775197 135.16506766 0.43817942 141.23803711 5.71923828 C146.70658422 11.71069669 146.25328532 18.26468965 146.10253906 26.00488281 C146.09640897 27.34191025 146.09266808 28.67895054 146.09118652 30.01599121 C146.08202521 32.8069008 146.05335942 35.59664165 146.00878906 38.38720703 C145.95222684 41.94442163 145.93036037 45.50072028 145.92142487 49.05834198 C145.91105881 52.47813731 145.88203191 55.89770899 145.85253906 59.31738281 C145.84403931 60.58529663 145.83553955 61.85321045 145.82678223 63.1595459 C145.72453416 69.51757523 145.24898181 75.06494918 143.44628906 81.16113281 C143.27616893 83.99536773 143.27616893 83.99536773 143.44628906 86.16113281 C142.37378906 86.11988281 141.30128906 86.07863281 140.19628906 86.03613281 C136.64696269 85.87815643 136.64696269 85.87815643 134.58828735 87.15376282 C131.76231013 88.48280434 129.54235584 88.4082102 126.42431641 88.40405273 C125.20980804 88.40712936 123.99529968 88.41020599 122.74398804 88.41337585 C120.78291611 88.40259758 120.78291611 88.40259758 118.78222656 88.39160156 C117.42510014 88.39040894 116.06797287 88.38995678 114.71084595 88.39021301 C111.87130542 88.38865109 109.0318915 88.38038225 106.19238281 88.36694336 C102.54940081 88.34992151 98.90655739 88.34613012 95.26354027 88.34688854 C92.4634773 88.34661694 89.66344474 88.34113788 86.86339188 88.3338871 C84.86583069 88.32915159 82.8682631 88.32742442 80.87069702 88.32572937 C79.66249298 88.31934952 78.45428894 88.31296967 77.20947266 88.30639648 C76.14232025 88.30258469 75.07516785 88.29877289 73.97567749 88.29484558 C71.44628906 88.16113281 71.44628906 88.16113281 69.44628906 87.16113281 C68.45628906 87.65613281 68.45628906 87.65613281 67.44628906 88.16113281 C64.69999364 88.25433642 61.97925739 88.28690375 59.23291016 88.2746582 C57.95963112 88.27487724 57.95963112 88.27487724 56.66062927 88.27510071 C53.84696929 88.27440247 51.03337502 88.26661421 48.21972656 88.25878906 C46.27202389 88.25692457 44.32432074 88.25550081 42.37661743 88.25450134 C37.24408682 88.25067865 32.1115844 88.24085046 26.97906494 88.22979736 C21.74418519 88.21957793 16.5093009 88.21500258 11.27441406 88.20996094 C0.99835999 88.19922799 -9.27767313 88.18215452 -19.55371094 88.16113281 C-19.60316141 82.2529421 -19.63945457 76.34487197 -19.66357422 70.43652344 C-19.67362964 68.42673646 -19.68727578 66.41696411 -19.70458984 64.40722656 C-19.72885818 61.51786693 -19.74019865 58.62870079 -19.74902344 55.73925781 C-19.75934601 54.84120422 -19.76966858 53.94315063 -19.78030396 53.0178833 C-19.78045502 52.17731384 -19.78060608 51.33674438 -19.78076172 50.47070312 C-19.78520294 49.73346008 -19.78964417 48.99621704 -19.79421997 48.2366333 C-19.39955406 44.83081827 -18.2338049 42.74248103 -15.64355469 40.52832031 C-14.93328125 40.03589844 -14.22300781 39.54347656 -13.49121094 39.03613281 C-10.50743572 37.05038634 -10.50743572 37.05038634 -8.55371094 34.16113281 C9.92628906 34.16113281 28.40628906 34.16113281 47.44628906 34.16113281 C47.44628906 29.54113281 47.44628906 24.92113281 47.44628906 20.16113281 C31.60628906 20.16113281 15.76628906 20.16113281 -0.55371094 20.16113281 C-0.55371094 22.47113281 -0.55371094 24.78113281 -0.55371094 27.16113281 C-6.82371094 27.16113281 -13.09371094 27.16113281 -19.55371094 27.16113281 C-19.88371094 25.84113281 -20.21371094 24.52113281 -20.55371094 23.16113281 C-21.54371094 22.50113281 -22.53371094 21.84113281 -23.55371094 21.16113281 C-22.23371094 21.16113281 -20.91371094 21.16113281 -19.55371094 21.16113281 C-19.73933594 20.08863281 -19.92496094 19.01613281 -20.11621094 17.91113281 C-20.48416774 14.75721736 -20.59836436 13.06294789 -19.55371094 10.16113281 C-18.89371094 10.16113281 -18.23371094 10.16113281 -17.55371094 10.16113281 C-17.36808594 9.41863281 -17.18246094 8.67613281 -16.99121094 7.91113281 C-13.72355362 1.65996229 -6.63328792 0.04517517 0 0 Z M67.44628906 15.16113281 C66.09743777 17.85883539 66.43050423 19.81386656 66.56738281 22.82519531 C66.61572266 23.94667969 66.6640625 25.06816406 66.71386719 26.22363281 C66.76994141 27.39925781 66.82601562 28.57488281 66.88378906 29.78613281 C66.93599609 30.96949219 66.98820312 32.15285156 67.04199219 33.37207031 C67.17194912 36.30200843 67.30692434 39.23162954 67.44628906 42.16113281 C69.33043548 38.9665593 69.68448643 36.64610652 69.64160156 32.95800781 C69.63193359 31.48847656 69.63193359 31.48847656 69.62207031 29.98925781 C69.6053125 28.97347656 69.58855469 27.95769531 69.57128906 26.91113281 C69.55775391 25.36425781 69.55775391 25.36425781 69.54394531 23.78613281 C69.52040917 21.24422994 69.48752929 18.70280001 69.44628906 16.16113281 C68.78628906 15.83113281 68.12628906 15.50113281 67.44628906 15.16113281 Z M78.44628906 20.16113281 C78.44628906 35.67113281 78.44628906 51.18113281 78.44628906 67.16113281 C93.95628906 67.16113281 109.46628906 67.16113281 125.44628906 67.16113281 C125.44628906 51.65113281 125.44628906 36.14113281 125.44628906 20.16113281 C109.93628906 20.16113281 94.42628906 20.16113281 78.44628906 20.16113281 Z M65.44628906 43.16113281 C66.10628906 43.82113281 66.76628906 44.48113281 67.44628906 45.16113281 C67.44628906 44.50113281 67.44628906 43.84113281 67.44628906 43.16113281 C66.78628906 43.16113281 66.12628906 43.16113281 65.44628906 43.16113281 Z M64.44628906 46.16113281 C65.44628906 48.16113281 65.44628906 48.16113281 65.44628906 48.16113281 Z M62.44628906 48.16113281 C61.55804443 49.13453613 60.6697998 50.10793945 59.75463867 51.11083984 C54.56690836 55.52696169 49.04789181 55.01581233 42.51269531 54.96582031 C41.27962143 54.97952667 40.04654755 54.99323303 38.77610779 55.00735474 C34.85329607 55.0446247 30.93175258 55.04094125 27.00878906 55.03613281 C24.34269466 55.0509404 21.6767854 55.07506413 19.01074219 55.09863281 C12.48904555 55.15045703 5.96818031 55.16556495 -0.55371094 55.16113281 C-0.55371094 59.45113281 -0.55371094 63.74113281 -0.55371094 68.16113281 C6.73050884 68.18368887 14.01470965 68.20205082 21.29895687 68.21294498 C24.68100719 68.21817256 28.06303246 68.22526792 31.44506836 68.23657227 C35.32958684 68.24947548 39.21409503 68.25436205 43.09863281 68.25878906 C44.92828835 68.26653099 44.92828835 68.26653099 46.79490662 68.27442932 C47.91599319 68.27450485 49.03707977 68.27458038 50.19213867 68.2746582 C51.18475204 68.27687881 52.17736542 68.27909943 53.20005798 68.28138733 C55.41655431 68.41363223 55.41655431 68.41363223 56.44628906 67.16113281 C57.43628906 68.15113281 58.42628906 69.14113281 59.44628906 70.16113281 C59.11628906 64.88113281 58.78628906 59.60113281 58.44628906 54.16113281 C59.76628906 53.50113281 61.08628906 52.84113281 62.44628906 52.16113281 C63.10628906 51.17113281 63.76628906 50.18113281 64.44628906 49.16113281 C63.78628906 48.83113281 63.12628906 48.50113281 62.44628906 48.16113281 Z M59.44628906 70.16113281 C60.44628906 72.16113281 60.44628906 72.16113281 60.44628906 72.16113281 Z M65.44628906 81.16113281 C66.10628906 82.81113281 66.76628906 84.46113281 67.44628906 86.16113281 C67.77628906 85.17113281 68.10628906 84.18113281 68.44628906 83.16113281 C67.45628906 82.50113281 66.46628906 81.84113281 65.44628906 81.16113281 Z " fill="#000000" transform="translate(40.5537109375,13.8388671875)"/>
</svg>
