<?xml version="1.0" encoding="UTF-8"?>
<svg version="1.1" xmlns="http://www.w3.org/2000/svg" width="206" height="116">
<path d="M0 0 C0.84691406 -0.020625 1.69382813 -0.04125 2.56640625 -0.0625 C10.64380394 -0.1119787 17.35127657 1.79869603 24.125 6.25 C25.23875 6.7140625 25.23875 6.7140625 26.375 7.1875 C28.125 8.25 28.125 8.25 28.6875 10.125 C28.9040625 11.176875 28.9040625 11.176875 29.125 12.25 C29.62 12.91 30.115 13.57 30.625 14.25 C33.60878353 18.22837805 33.26026827 22.40337529 33.25 27.25 C33.25386719 29.0753125 33.25386719 29.0753125 33.2578125 30.9375 C33.06371829 35.77843792 33.06371829 35.77843792 32.125 38.25 C31.135 38.745 31.135 38.745 30.125 39.25 C29.1185725 40.91279327 28.11914593 42.57983484 27.125 44.25 C25.4375 46.0625 25.4375 46.0625 24.125 47.25 C24.82625 47.724375 25.5275 48.19875 26.25 48.6875 C30.02974936 52.05640704 32.53039435 55.92819351 35.125 60.25 C35.5065625 60.85585937 35.888125 61.46171875 36.28125 62.0859375 C39.2018991 69.57686158 37.42170768 79.93258619 35.171875 87.39453125 C33.83361252 89.76645169 32.59943955 90.19539569 30.125 91.25 C28.2838004 92.53184782 26.5008454 93.87436134 24.7109375 95.2265625 C23.125 96.25 23.125 96.25 21.125 96.25 C20.795 96.91 20.465 97.57 20.125 98.25 C13.35574359 100.5198339 6.78017369 100.61657139 -0.3125 100.625 C-1.39337891 100.64949219 -2.47425781 100.67398438 -3.58789062 100.69921875 C-10.62384583 100.72481956 -15.74162782 99.7079986 -21.875 96.25 C-22.76832031 95.76917969 -23.66164063 95.28835937 -24.58203125 94.79296875 C-30.19414891 91.17997278 -33.31948337 87.96910114 -35.453125 81.49609375 C-36.92510136 73.65918258 -37.21452848 64.13339 -32.875 57.25 C-30.15956735 54.11680849 -27.73293617 51.82175177 -23.875 50.25 C-24.865 49.59 -25.855 48.93 -26.875 48.25 C-26.545 47.26 -26.215 46.27 -25.875 45.25 C-25.875 44.92 -25.875 44.59 -25.875 44.25 C-26.349375 43.79625 -26.82375 43.3425 -27.3125 42.875 C-28.875 41.25 -28.875 41.25 -29.875 38.25 C-30.535 37.59 -31.195 36.93 -31.875 36.25 C-33.60612698 26.33181384 -33.06979309 19.60900776 -27.9375 11 C-24.16861698 5.97482263 -20.23633937 1.86115261 -13.8671875 0.703125 C-9.25130765 0.09658931 -4.65015867 0.02805526 0 0 Z M-4.875 18.25 C-5.205 19.57 -5.535 20.89 -5.875 22.25 C-7.525 22.58 -9.175 22.91 -10.875 23.25 C-10.875 26.22 -10.875 29.19 -10.875 32.25 C-9.885 32.745 -9.885 32.745 -8.875 33.25 C-8.545 32.59 -8.215 31.93 -7.875 31.25 C-6.885 33.23 -5.895 35.21 -4.875 37.25 C-1.41 36.755 -1.41 36.755 2.125 36.25 C2.125 36.91 2.125 37.57 2.125 38.25 C3.115 38.25 4.105 38.25 5.125 38.25 C7.34874438 34.8577228 7.34874438 34.8577228 9.125 31.25 C8.5012794 29.16764174 8.5012794 29.16764174 7.125 27.25 C6.76358045 24.92085177 6.42800475 22.58746522 6.125 20.25 C5.795 19.59 5.465 18.93 5.125 18.25 C1.825 18.25 -1.475 18.25 -4.875 18.25 Z M-3.875 58.25 C-0.905 58.25 2.065 58.25 5.125 58.25 C0.38827016 55.62852029 0.38827016 55.62852029 -3.875 58.25 Z M-5.875 58.25 C-8.64622275 60.60426499 -8.64622275 60.60426499 -10.875 63.25 C-10.545 63.91 -10.215 64.57 -9.875 65.25 C-9.92578125 67.30859375 -9.92578125 67.30859375 -10.1875 69.6875 C-10.26613281 70.46996094 -10.34476563 71.25242187 -10.42578125 72.05859375 C-10.875 74.25 -10.875 74.25 -12.875 77.25 C-10.82266315 79.4977975 -9.86832739 80.2522242 -6.875 81.25 C-4.73086777 81.34504628 -2.5837323 81.37987226 -0.4375 81.375 C0.69558594 81.37757812 1.82867187 81.38015625 2.99609375 81.3828125 C5.57721183 81.27325193 7.67444405 81.00864877 10.125 80.25 C10.125 79.59 10.125 78.93 10.125 78.25 C10.785 77.92 11.445 77.59 12.125 77.25 C12.125 75.6 12.125 73.95 12.125 72.25 C12.785 72.25 13.445 72.25 14.125 72.25 C14.455 70.27 14.785 68.29 15.125 66.25 C14.465 66.25 13.805 66.25 13.125 66.25 C13.125 65.26 13.125 64.27 13.125 63.25 C7.90310287 60.21180531 4.30106325 58.89368866 -1.875 59.25 C-2.57625 58.981875 -3.2775 58.71375 -4 58.4375 C-4.61875 58.375625 -5.2375 58.31375 -5.875 58.25 Z " fill="#358872" transform="translate(122.875,7.75)"/>
<path d="M0 0 C2.97922593 -0.02683987 5.95821295 -0.04676037 8.9375 -0.0625 C10.21270508 -0.07506836 10.21270508 -0.07506836 11.51367188 -0.08789062 C12.32255859 -0.09111328 13.13144531 -0.09433594 13.96484375 -0.09765625 C14.7137085 -0.10289307 15.46257324 -0.10812988 16.23413086 -0.11352539 C18 0 18 0 19 1 C19.1307558 4.12952704 19.1967684 7.23811157 19.22119141 10.36914062 C19.2326973 11.35279099 19.24420319 12.33644135 19.25605774 13.34989929 C19.29289962 16.61865051 19.32244842 19.88742145 19.3515625 23.15625 C19.37466147 25.41687307 19.39805162 27.67749319 19.42172241 29.93811035 C19.47025203 34.68283615 19.51517455 39.42757925 19.55761719 44.17236328 C19.61245428 50.26945462 19.6762723 56.36641281 19.74279213 62.46338654 C19.79274773 67.13345089 19.83792345 71.80355198 19.88163376 76.47367859 C19.90327303 78.72248316 19.92643107 80.97127362 19.9510994 83.220047 C19.98480103 86.35696249 20.01208061 89.49386811 20.03759766 92.63085938 C20.04897263 93.57011765 20.0603476 94.50937592 20.07206726 95.47709656 C20.08638218 97.65148328 20.04901836 99.82611873 20 102 C19 103 19 103 16.95874023 103.11352539 C16.08419189 103.10828857 15.20964355 103.10305176 14.30859375 103.09765625 C13.36435547 103.09443359 12.42011719 103.09121094 11.44726562 103.08789062 C10.45404297 103.07951172 9.46082031 103.07113281 8.4375 103.0625 C7.44041016 103.05798828 6.44332031 103.05347656 5.41601562 103.04882812 C2.94395151 103.03700007 0.47200482 103.02051849 -2 103 C-2.66 101.35 -3.32 99.7 -4 98 C-3.67 98 -3.34 98 -3 98 C-2.67 73.91 -2.34 49.82 -2 25 C-4.28728734 26.83883881 -4.28728734 26.83883881 -4.125 29.625 C-4.063125 30.800625 -4.063125 30.800625 -4 32 C-7 33 -7 33 -10 33 C-11.68236471 33.62599617 -13.3523962 34.28752268 -15 35 C-18 29.375 -18 29.375 -18 26 C-17.01 25.67 -16.02 25.34 -15 25 C-15 20.38 -15 15.76 -15 11 C-14.34 11 -13.68 11 -13 11 C-13 10.34 -13 9.68 -13 9 C-7.25 6 -7.25 6 -5 6 C-5 5.34 -5 4.68 -5 4 C-4.360625 3.71125 -3.72125 3.4225 -3.0625 3.125 C-0.84793921 2.17176549 -0.84793921 2.17176549 0 0 Z M17 3 C17 34.35 17 65.7 17 98 C17.33 98 17.66 98 18 98 C18 66.65 18 35.3 18 3 C17.67 3 17.34 3 17 3 Z " fill="#378B76" transform="translate(61,8)"/>
<path d="M0 0 C2.64590014 -0.02684679 5.29153096 -0.04676357 7.9375 -0.0625 C8.69224609 -0.07087891 9.44699219 -0.07925781 10.22460938 -0.08789062 C12.14994313 -0.09652441 14.07535581 -0.05224333 16 0 C18.17806648 2.17806648 17.19754941 7.33823611 17.22119141 10.36914062 C17.2326973 11.35279099 17.24420319 12.33644135 17.25605774 13.34989929 C17.29289962 16.61865051 17.32244842 19.88742145 17.3515625 23.15625 C17.37466147 25.41687307 17.39805162 27.67749319 17.42172241 29.93811035 C17.47025203 34.68283615 17.51517455 39.42757925 17.55761719 44.17236328 C17.61245428 50.26945462 17.6762723 56.36641281 17.74279213 62.46338654 C17.79274773 67.13345089 17.83792345 71.80355198 17.88163376 76.47367859 C17.90327303 78.72248316 17.92643107 80.97127362 17.9510994 83.220047 C17.98480103 86.35696249 18.01208061 89.49386811 18.03759766 92.63085938 C18.05466011 94.03974678 18.05466011 94.03974678 18.07206726 95.47709656 C18.08638218 97.65148328 18.04901836 99.82611873 18 102 C17 103 17 103 14.95874023 103.11352539 C14.08419189 103.10828857 13.20964355 103.10305176 12.30859375 103.09765625 C11.36435547 103.09443359 10.42011719 103.09121094 9.44726562 103.08789062 C8.45404297 103.07951172 7.46082031 103.07113281 6.4375 103.0625 C5.44041016 103.05798828 4.44332031 103.05347656 3.41601562 103.04882812 C0.94395151 103.03700007 -1.52799518 103.02051849 -4 103 C-4.66 101.35 -5.32 99.7 -6 98 C0.93 98 7.86 98 15 98 C15 65.99 15 33.98 15 1 C10.05 1 5.1 1 0 1 C0 0.67 0 0.34 0 0 Z " fill="#000100" transform="translate(63,8)"/>
<path d="M0 0 C1.875 0.3125 1.875 0.3125 4 1 C6.4915904 4.7373856 6.45793285 6.57331583 6 11 C4.125 13.9375 4.125 13.9375 2 16 C1.34 16 0.68 16 0 16 C0.66 13.69 1.32 11.38 2 9 C1.34 8.34 0.68 7.68 0 7 C-0.125 3.375 -0.125 3.375 0 0 Z " fill="#000200" transform="translate(129,28)"/>
<path d="M0 0 C0.66 0.33 1.32 0.66 2 1 C2 2.65 2 4.3 2 6 C5.3 4.68 8.6 3.36 12 2 C12 3.65 12 5.3 12 7 C9 8 9 8 6 8 C4.31763529 8.62599617 2.6476038 9.28752268 1 10 C-2 4.375 -2 4.375 -2 1 C-1.34 0.67 -0.68 0.34 0 0 Z " fill="#000100" transform="translate(45,33)"/>
<path d="M0 0 C1.5078125 1.21484375 1.5078125 1.21484375 3 3 C3.1796875 5.19140625 3.1796875 5.19140625 2.875 7.5625 C2.78992188 8.34753906 2.70484375 9.13257812 2.6171875 9.94140625 C2 12 2 12 -1 14 C-2.6491828 9.74684436 -3.49974625 7.3351775 -1.625 3.0625 C-1.08875 2.051875 -0.5525 1.04125 0 0 Z " fill="#000100" transform="translate(111,70)"/>
<path d="M0 0 C0.33 0 0.66 0 1 0 C1 15.84 1 31.68 1 48 C0.67 48 0.34 48 0 48 C0 32.16 0 16.32 0 0 Z " fill="#000000" transform="translate(57,48)"/>
<path d="M0 0 C0.33 0 0.66 0 1 0 C1 15.84 1 31.68 1 48 C0.67 48 0.34 48 0 48 C0 32.16 0 16.32 0 0 Z " fill="#000000" transform="translate(55,48)"/>
<path d="M0 0 C0.33 0 0.66 0 1 0 C1.36923077 6.4 1.36923077 6.4 -0.5 9.4375 C-0.995 9.953125 -1.49 10.46875 -2 11 C-3.125 7.25 -3.125 7.25 -2 5 C-1.34 5 -0.68 5 0 5 C0 3.35 0 1.7 0 0 Z " fill="#010100" transform="translate(137,75)"/>
<path d="M0 0 C0.66 0 1.32 0 2 0 C1.67 0.66 1.34 1.32 1 2 C0.67 1.34 0.34 0.68 0 0 Z " fill="#000500" transform="translate(151,18)"/>
<path d="" fill="#000100" transform="translate(0,0)"/>
<path d="" fill="#000000" transform="translate(0,0)"/>
<path d="" fill="#000100" transform="translate(0,0)"/>
<path d="" fill="#000000" transform="translate(0,0)"/>
<path d="" fill="#000000" transform="translate(0,0)"/>
<path d="" fill="#000000" transform="translate(0,0)"/>
<path d="" fill="#000A00" transform="translate(0,0)"/>
<path d="" fill="#000000" transform="translate(0,0)"/>
<path d="" fill="#020000" transform="translate(0,0)"/>
<path d="" fill="#000800" transform="translate(0,0)"/>
</svg>
