<?xml version="1.0" encoding="UTF-8"?>
<svg version="1.1" xmlns="http://www.w3.org/2000/svg" width="206" height="116">
<path d="M0 0 C5.9090625 -0.0309375 5.9090625 -0.0309375 11.9375 -0.0625 C13.18136475 -0.071604 14.42522949 -0.08070801 15.70678711 -0.09008789 C17.16483765 -0.09383423 17.16483765 -0.09383423 18.65234375 -0.09765625 C20.15269165 -0.10551147 20.15269165 -0.10551147 21.68334961 -0.11352539 C24 0 24 0 25 1 C25.0927833 2.38160115 25.11747043 3.76788038 25.11352539 5.15258789 C25.11344986 6.03342545 25.11337433 6.914263 25.11329651 7.8217926 C25.10813522 8.77907761 25.10297394 9.73636261 25.09765625 10.72265625 C25.0962413 11.69786728 25.09482635 12.67307831 25.09336853 13.67784119 C25.08775133 16.80609143 25.07519593 19.93427123 25.0625 23.0625 C25.05748722 25.17773334 25.05292393 27.29296781 25.04882812 29.40820312 C25.03777631 34.60549296 25.02102146 39.80274145 25 45 C25.66 45 26.32 45 27 45 C27.33 45.66 27.66 46.32 28 47 C61.165 47.495 61.165 47.495 95 48 C94.9603921 32.57725314 94.9603921 32.57725314 94.90991211 17.15454102 C94.90699309 15.22932999 94.9044445 13.30411835 94.90234375 11.37890625 C94.89722778 10.36920776 94.89211182 9.35950928 94.88684082 8.31921387 C94.88665955 6.88805237 94.88665955 6.88805237 94.88647461 5.42797852 C94.884254 4.59524918 94.88203339 3.76251984 94.87974548 2.90455627 C95 1 95 1 96 0 C97.76859193 -0.09946453 99.54111451 -0.13080217 101.3125 -0.1328125 C102.38757813 -0.13410156 103.46265625 -0.13539062 104.5703125 -0.13671875 C105.70210938 -0.13285156 106.83390625 -0.12898437 108 -0.125 C109.13179688 -0.12886719 110.26359375 -0.13273438 111.4296875 -0.13671875 C112.50476563 -0.13542969 113.57984375 -0.13414063 114.6875 -0.1328125 C115.68136719 -0.13168457 116.67523438 -0.13055664 117.69921875 -0.12939453 C120 0 120 0 121 1 C121.09526806 3.95246354 121.12552452 6.88148421 121.11352539 9.83422852 C121.11367142 10.76096375 121.11381744 11.68769897 121.1139679 12.64251709 C121.11326838 15.72133687 121.10547421 18.80009697 121.09765625 21.87890625 C121.09579221 24.00740018 121.09436824 26.13589453 121.09336853 28.26438904 C121.08954228 33.8786232 121.07971108 39.49283168 121.06866455 45.10705566 C121.05845273 50.83113253 121.0538714 56.55521353 121.04882812 62.27929688 C121.03808891 73.51954256 121.0210112 84.75976915 121 96 C122.485 96.495 122.485 96.495 124 97 C114.43 97 104.86 97 95 97 C95 89.08 95 81.16 95 73 C91.75542969 73.22042969 88.51085937 73.44085938 85.16796875 73.66796875 C49.0128084 75.58423346 49.0128084 75.58423346 39.7578125 68.875 C35.71049223 65.06915696 32.39069531 60.85856048 29.55004883 56.0847168 C27.68686961 53.57885959 25.71627322 52.49051717 23 51 C21.41015625 49.3515625 21.41015625 49.3515625 20.0625 47.625 C17.82145144 44.88341268 15.5054921 42.77935531 12.70703125 40.59375 C9.44251037 37.54586781 6.84933588 33.87246182 4.1484375 30.328125 C1.99854852 27.99842712 1.09096363 27.30769774 -2 27 C-1.34 26.67 -0.68 26.34 0 26 C0 17.42 0 8.84 0 0 Z " fill="#000000" transform="translate(37,9)"/>
<path d="M0 0 C1.32 0.33 2.64 0.66 4 1 C3.67 1.99 3.34 2.98 3 4 C2.01 3.34 1.02 2.68 0 2 C0 1.34 0 0.68 0 0 Z " fill="#000000" transform="translate(43,45)"/>
<path d="M0 0 C0.66 0.66 1.32 1.32 2 2 C1.34 2 0.68 2 0 2 C0 1.34 0 0.68 0 0 Z " fill="#000000" transform="translate(63,51)"/>
<path d="M0 0 C0.33 0.66 0.66 1.32 1 2 C0.34 1.67 -0.32 1.34 -1 1 C-0.67 0.67 -0.34 0.34 0 0 Z " fill="#000000" transform="translate(40,39)"/>
<path d="" fill="#000000" transform="translate(0,0)"/>
<path d="" fill="#000000" transform="translate(0,0)"/>
<path d="" fill="#000000" transform="translate(0,0)"/>
<path d="" fill="#000000" transform="translate(0,0)"/>
<path d="" fill="#000000" transform="translate(0,0)"/>
<path d="" fill="#000000" transform="translate(0,0)"/>
<path d="" fill="#000000" transform="translate(0,0)"/>
<path d="" fill="#000000" transform="translate(0,0)"/>
<path d="" fill="#000000" transform="translate(0,0)"/>
<path d="" fill="#000000" transform="translate(0,0)"/>
<path d="" fill="#000000" transform="translate(0,0)"/>
<path d="" fill="#000000" transform="translate(0,0)"/>
<path d="" fill="#000000" transform="translate(0,0)"/>
<path d="" fill="#000000" transform="translate(0,0)"/>
<path d="" fill="#000000" transform="translate(0,0)"/>
<path d="" fill="#000000" transform="translate(0,0)"/>
<path d="" fill="#000000" transform="translate(0,0)"/>
<path d="" fill="#000000" transform="translate(0,0)"/>
<path d="" fill="#000000" transform="translate(0,0)"/>
<path d="" fill="#000000" transform="translate(0,0)"/>
<path d="" fill="#000000" transform="translate(0,0)"/>
<path d="" fill="#000000" transform="translate(0,0)"/>
<path d="" fill="#000000" transform="translate(0,0)"/>
<path d="" fill="#000000" transform="translate(0,0)"/>
<path d="" fill="#000000" transform="translate(0,0)"/>
</svg>
