<?xml version="1.0" encoding="UTF-8"?>
<svg version="1.1" xmlns="http://www.w3.org/2000/svg" width="206" height="116">
<path d="M0 0 C0.90234375 -0.01546875 1.8046875 -0.0309375 2.734375 -0.046875 C3.60578125 -0.04171875 4.4771875 -0.0365625 5.375 -0.03125 C6.56222656 -0.02448242 6.56222656 -0.02448242 7.7734375 -0.01757812 C11.11938594 0.76020814 12.09659148 1.59615053 14 4.5 C14.5558801 8.13310918 14.4641883 11.72301025 14.390625 15.390625 C14.38496521 16.45037537 14.37930542 17.51012573 14.37347412 18.60198975 C14.3510924 21.98512028 14.30089098 25.36718984 14.25 28.75 C14.2299374 31.04425553 14.21168621 33.33852767 14.1953125 35.6328125 C14.1512218 41.25557003 14.08429136 46.87770921 14 52.5 C18.10388163 52.17349665 18.10388163 52.17349665 21.51977539 50.13647461 C21.87547607 49.56421143 22.23117676 48.99194824 22.59765625 48.40234375 C23.00435547 47.7688501 23.41105469 47.13535645 23.83007812 46.48266602 C24.23677734 45.80776123 24.64347656 45.13285645 25.0625 44.4375 C25.49369141 43.7580835 25.92488281 43.07866699 26.36914062 42.37866211 C27.60009123 40.43097608 28.80527435 38.47006537 30 36.5 C31.63563581 33.80556513 33.27620387 31.13956283 35 28.5 C35.66 28.5 36.32 28.5 37 28.5 C37.25523438 27.60667969 37.51046875 26.71335937 37.7734375 25.79296875 C39.01568975 22.45787751 40.33363272 20.50097674 42.625 17.8125 C46.43626116 13.22783849 49.96121643 8.49736337 53.43359375 3.65234375 C55 1.5 55 1.5 56 0.5 C58.92952805 0.34581431 61.81919425 0.26826047 64.75 0.25 C65.56210938 0.229375 66.37421875 0.20875 67.2109375 0.1875 C72.03631881 0.15606429 75.00134904 0.50888314 79 3.5 C79.33 3.5 79.66 3.5 80 3.5 C80 21.65 80 39.8 80 58.5 C84.62 58.5 89.24 58.5 94 58.5 C94 62.79 94 67.08 94 71.5 C89.38 71.5 84.76 71.5 80 71.5 C80 78.43 80 85.36 80 92.5 C74.72 92.5 69.44 92.5 64 92.5 C64 84.58 64 76.66 64 68.5 C58.52174919 69.82917961 58.52174919 69.82917961 57 71.5 C55.64905018 71.59268999 54.29332909 71.61747326 52.93920898 71.61352539 C52.07839218 71.61344986 51.21757538 71.61337433 50.33067322 71.61329651 C49.39526199 71.60813522 48.45985077 71.60297394 47.49609375 71.59765625 C46.54307877 71.5962413 45.59006378 71.59482635 44.60816956 71.59336853 C41.55124835 71.58775152 38.49439923 71.57519616 35.4375 71.5625 C33.37044376 71.55748719 31.30338638 71.55292391 29.23632812 71.54882812 C24.15750167 71.53862558 19.07883194 71.51905356 14 71.5 C14 78.43 14 85.36 14 92.5 C9.05 92.5 4.1 92.5 -1 92.5 C-1 83.92 -1 75.34 -1 66.5 C-1.99 66.5 -2.98 66.5 -4 66.5 C-4.268125 67.11875 -4.53625 67.7375 -4.8125 68.375 C-6 70.5 -6 70.5 -9 72.5 C-10.95524597 72.70254517 -10.95524597 72.70254517 -13.19604492 72.63525391 C-14.03668991 72.61508209 -14.8773349 72.59491028 -15.74345398 72.5741272 C-16.64666885 72.54193085 -17.54988373 72.5097345 -18.48046875 72.4765625 C-19.40845779 72.45153656 -20.33644684 72.42651062 -21.29255676 72.40072632 C-24.25790924 72.3185231 -27.22259604 72.22193463 -30.1875 72.125 C-32.19723839 72.06676078 -34.20700414 72.00945749 -36.21679688 71.953125 C-41.14491445 71.8129437 -46.07248307 71.65985918 -51 71.5 C-51.07831002 69.45504924 -51.13369864 67.40921407 -51.1796875 65.36328125 C-51.21304199 64.22415283 -51.24639648 63.08502441 -51.28076172 61.91137695 C-50.84563961 56.62445417 -48.45962656 52.47050406 -45 48.5 C-44.34 48.5 -43.68 48.5 -43 48.5 C-42.731875 47.9225 -42.46375 47.345 -42.1875 46.75 C-41 44.5 -41 44.5 -39.4375 42.5 C-37.96806014 40.45556194 -37.43835352 38.95477972 -37 36.5 C-36.01 36.5 -35.02 36.5 -34 36.5 C-33.67 34.85 -33.34 33.2 -33 31.5 C-32.34 31.5 -31.68 31.5 -31 31.5 C-30.87625 30.901875 -30.7525 30.30375 -30.625 29.6875 C-30 27.5 -30 27.5 -28 24.5 C-27.34 24.5 -26.68 24.5 -26 24.5 C-25.81824219 23.88511719 -25.63648437 23.27023438 -25.44921875 22.63671875 C-25.19785156 21.82847656 -24.94648437 21.02023438 -24.6875 20.1875 C-24.44386719 19.38699219 -24.20023438 18.58648438 -23.94921875 17.76171875 C-22.94645651 15.37242107 -22.01940718 14.10410493 -20 12.5 C-19.34 12.5 -18.68 12.5 -18 12.5 C-17.71125 11.9225 -17.4225 11.345 -17.125 10.75 C-16.75375 10.0075 -16.3825 9.265 -16 8.5 C-15.71125 7.84 -15.4225 7.18 -15.125 6.5 C-11.33337187 -0.24067224 -7.16916821 -0.12290003 0 0 Z M-2 13.5 C-3.231394 15.96278801 -3.07159196 17.7795055 -3 20.5 C-3.71929687 20.52835938 -4.43859375 20.55671875 -5.1796875 20.5859375 C-9.22875045 21.89823768 -10.84854881 24.7346889 -13.125 28.125 C-13.55425781 28.72957031 -13.98351562 29.33414063 -14.42578125 29.95703125 C-16.52103073 32.98063743 -18.25521684 35.90630198 -19.63671875 39.3203125 C-21.18601829 42.93386502 -22.92136787 44.17022433 -26 46.5 C-26 47.49 -26 48.48 -26 49.5 C-27.485 49.995 -27.485 49.995 -29 50.5 C-31.97202012 54.12960076 -31.97202012 54.12960076 -33 58.5 C-22.44 58.5 -11.88 58.5 -1 58.5 C-1 43.65 -1 28.8 -1 13.5 C-1.33 13.5 -1.66 13.5 -2 13.5 Z M63 13.5 C61.63146888 15.04668305 61.63146888 15.04668305 60.28515625 17.078125 C59.76373047 17.82707031 59.24230469 18.57601563 58.70507812 19.34765625 C58.16302734 20.14042969 57.62097656 20.93320312 57.0625 21.75 C55.99129262 23.29715701 54.91969033 24.84404069 53.84765625 26.390625 C53.37336182 27.08188477 52.89906738 27.77314453 52.41040039 28.48535156 C51 30.5 51 30.5 49.32202148 32.50683594 C47.63150433 34.65694347 47.63150433 34.65694347 48 38.5 C47.42765625 38.71527344 46.8553125 38.93054688 46.265625 39.15234375 C43.23821707 40.9531295 41.77056622 43.19254762 39.75 46.0625 C39.04359375 47.05378906 38.3371875 48.04507813 37.609375 49.06640625 C35.90806555 51.15274853 35.90806555 51.15274853 36 52.5 C41.94 52.5 47.88 52.5 54 52.5 C54 54.48 54 56.46 54 58.5 C57.3 58.5 60.6 58.5 64 58.5 C64.14586411 54.50231472 64.28806438 50.50451542 64.42724609 46.5065918 C64.49785614 44.4984704 64.57115168 42.49044398 64.64453125 40.48242188 C64.95568858 31.48108476 65.05818226 22.50612834 65 13.5 C64.34 13.5 63.68 13.5 63 13.5 Z " fill="#FCFC00" transform="translate(82,11.5)"/>
<path d="M0 0 C0.74886475 0.00523682 1.49772949 0.01047363 2.26928711 0.01586914 C3.07817383 0.0190918 3.88706055 0.02231445 4.72045898 0.02563477 C5.5705957 0.03401367 6.42073242 0.04239258 7.29663086 0.05102539 C8.15063477 0.05553711 9.00463867 0.06004883 9.88452148 0.06469727 C12.00108749 0.07652166 14.11761771 0.0944577 16.23413086 0.11352539 C16.23413086 2.09352539 16.23413086 4.07352539 16.23413086 6.11352539 C9.30413086 6.11352539 2.37413086 6.11352539 -4.76586914 6.11352539 C-2.38170567 0.15311671 -2.38170567 0.15311671 0 0 Z " fill="#000000" transform="translate(119.765869140625,63.886474609375)"/>
<path d="M0 0 C1.32 0 2.64 0 4 0 C2.25 4.875 2.25 4.875 0 6 C0 4.02 0 2.04 0 0 Z " fill="#000000" transform="translate(96,64)"/>
<path d="M0 0 C0.33 0 0.66 0 1 0 C1 1.65 1 3.3 1 5 C-0.32 5.33 -1.64 5.66 -3 6 C-2.42655063 3.13275314 -2.1385485 2.1385485 0 0 Z " fill="#000000" transform="translate(79,27)"/>
<path d="" fill="#000000" transform="translate(0,0)"/>
<path d="" fill="#000000" transform="translate(0,0)"/>
<path d="" fill="#000000" transform="translate(0,0)"/>
<path d="" fill="#000000" transform="translate(0,0)"/>
</svg>
