<?xml version="1.0" encoding="UTF-8"?>
<svg version="1.1" xmlns="http://www.w3.org/2000/svg" width="206" height="116">
<path d="M0 0 C0.83213013 0.00424484 1.66426025 0.00848969 2.52160645 0.01286316 C5.15016593 0.02950568 7.77792667 0.06712899 10.40625 0.10546875 C12.20050967 0.12053431 13.9947815 0.13421942 15.7890625 0.14648438 C20.16176083 0.17936161 24.53387053 0.23104153 28.90625 0.29296875 C28.90625 0.95296875 28.90625 1.61296875 28.90625 2.29296875 C29.73125 2.35484375 30.55625 2.41671875 31.40625 2.48046875 C37.94394889 3.99814885 43.25846628 7.60242615 46.90625 13.29296875 C48.34050554 17.20173455 47.93363732 21.24852523 47.78515625 25.33984375 C47.74973976 26.49664642 47.74973976 26.49664642 47.71360779 27.67681885 C47.63722661 30.13240139 47.55309308 32.58764805 47.46875 35.04296875 C47.4155037 36.71092124 47.36276348 38.37888996 47.31054688 40.046875 C47.18164622 44.12911769 47.04579376 48.21107658 46.90625 52.29296875 C44.26625 52.29296875 41.62625 52.29296875 38.90625 52.29296875 C38.57625 51.30296875 38.24625 50.31296875 37.90625 49.29296875 C36.25625 49.62296875 34.60625 49.95296875 32.90625 50.29296875 C32.24625 52.60296875 31.58625 54.91296875 30.90625 57.29296875 C27.70722361 57.38183059 24.97947544 57.20355406 21.90625 56.29296875 C21.90625 56.95296875 21.90625 57.61296875 21.90625 58.29296875 C9.36994207 61.32594648 -3.25657544 61.67351577 -16.09375 62.29296875 C-16.09375 64.27296875 -16.09375 66.25296875 -16.09375 68.29296875 C-15.28550781 68.06287109 -15.28550781 68.06287109 -14.4609375 67.828125 C-4.96132376 65.68052255 5.23033363 66.16240916 14.90625 66.29296875 C14.90625 66.95296875 14.90625 67.61296875 14.90625 68.29296875 C17.54625 68.29296875 20.18625 68.29296875 22.90625 68.29296875 C22.90625 67.63296875 22.90625 66.97296875 22.90625 66.29296875 C25.54625 66.29296875 28.18625 66.29296875 30.90625 66.29296875 C31.75146984 70.98863455 31.81902684 74.6276649 30.90625 79.29296875 C30.87002667 80.95924173 30.85725158 82.62702249 30.90625 84.29296875 C29.42125 84.78796875 29.42125 84.78796875 27.90625 85.29296875 C27.41125 86.77796875 27.41125 86.77796875 26.90625 88.29296875 C26.41125 89.77796875 26.41125 89.77796875 25.90625 91.29296875 C23.20288834 92.1940893 21.67187357 92.41684538 18.9009552 92.41322327 C17.68313103 92.41528526 17.68313103 92.41528526 16.44070435 92.41738892 C15.55381927 92.41379364 14.6669342 92.41019836 13.75317383 92.40649414 C12.34800255 92.40671318 12.34800255 92.40671318 10.91444397 92.40693665 C7.81403295 92.40623925 4.71368179 92.39845492 1.61328125 92.390625 C-0.53477445 92.38876021 -2.68283057 92.38733659 -4.83088684 92.38633728 C-10.48783541 92.38251695 -16.14475835 92.37269076 -21.80169678 92.3616333 C-27.57287245 92.3514088 -33.34405226 92.34683743 -39.11523438 92.34179688 C-50.44141752 92.33106809 -61.76758163 92.31399744 -73.09375 92.29296875 C-73.09375 89.65296875 -73.09375 87.01296875 -73.09375 84.29296875 C-70.45375 84.29296875 -67.81375 84.29296875 -65.09375 84.29296875 C-64.97257812 83.4009375 -64.85140625 82.50890625 -64.7265625 81.58984375 C-64.55898437 80.419375 -64.39140625 79.24890625 -64.21875 78.04296875 C-64.05632812 76.8828125 -63.89390625 75.72265625 -63.7265625 74.52734375 C-62.23905294 66.92451712 -56.92313706 60.23238024 -51.84375 54.54296875 C-49.52945284 51.94467168 -48.17721669 49.64186578 -47.09375 46.29296875 C-45.14223373 44.34145248 -41.64206255 44.58328126 -39.03125 44.23046875 C-37.74089844 44.05386719 -36.45054688 43.87726562 -35.12109375 43.6953125 C-33.62255859 43.49615234 -33.62255859 43.49615234 -32.09375 43.29296875 C-32.09375 42.63296875 -32.09375 41.97296875 -32.09375 41.29296875 C-30.835625 41.16921875 -29.5775 41.04546875 -28.28125 40.91796875 C-24.91116095 40.56022084 -21.70711008 39.9835776 -18.40625 39.23046875 C-11.55571225 37.89950713 -4.65766101 38.16448045 2.28979492 38.27905273 C3.21381104 38.29266846 4.13782715 38.30628418 5.08984375 38.3203125 C5.92056396 38.33827881 6.75128418 38.35624512 7.60717773 38.37475586 C9.85386621 38.29483225 11.75513786 37.92386685 13.90625 37.29296875 C14.23625 34.65296875 14.56625 32.01296875 14.90625 29.29296875 C0.55125 29.78796875 0.55125 29.78796875 -14.09375 30.29296875 C-14.09375 29.63296875 -14.09375 28.97296875 -14.09375 28.29296875 C-14.75375 28.29296875 -15.41375 28.29296875 -16.09375 28.29296875 C-16.09375 29.38609375 -16.09375 30.47921875 -16.09375 31.60546875 C-16.09375 33.83463542 -16.09375 36.06380208 -16.09375 38.29296875 C-26.65375 38.29296875 -37.21375 38.29296875 -48.09375 38.29296875 C-48.09375 28.33000579 -48.09375 28.33000579 -45.40625 25.54296875 C-44.643125 24.80046875 -43.88 24.05796875 -43.09375 23.29296875 C-41.55976459 20.99815947 -40.09588879 18.67146753 -38.65625 16.31640625 C-36.96749731 14.12947151 -35.63149477 13.31025437 -33.09375 12.29296875 C-33.09375 9.65296875 -33.09375 7.01296875 -33.09375 4.29296875 C-32.0315625 4.25558594 -30.969375 4.21820313 -29.875 4.1796875 C-28.44788501 4.1139651 -27.02080317 4.04752001 -25.59375 3.98046875 C-24.89765625 3.95791016 -24.2015625 3.93535156 -23.484375 3.91210938 C-22.78828125 3.87666016 -22.0921875 3.84121094 -21.375 3.8046875 C-20.43237305 3.76541138 -20.43237305 3.76541138 -19.47070312 3.7253418 C-16.81101828 3.32624092 -16.81101828 3.32624092 -13.39453125 1.77929688 C-8.86291444 0.02309515 -4.81559138 -0.09439507 0 0 Z M40.90625 41.29296875 C40.57625 42.28296875 40.24625 43.27296875 39.90625 44.29296875 C40.56625 44.29296875 41.22625 44.29296875 41.90625 44.29296875 C41.57625 43.30296875 41.24625 42.31296875 40.90625 41.29296875 Z M38.90625 46.29296875 C39.90625 48.29296875 39.90625 48.29296875 39.90625 48.29296875 Z " fill="#010101" transform="translate(113.09375,11.70703125)"/>
<path d="M0 0 C6.44070471 -0.10655578 12.62641289 0.03794912 19 1 C19 1.33 19 1.66 19 2 C12.73 2 6.46 2 0 2 C0 1.34 0 0.68 0 0 Z " fill="#000000" transform="translate(101,47)"/>
<path d="M0 0 C0.33 0.66 0.66 1.32 1 2 C0.34 1.67 -0.32 1.34 -1 1 C-0.67 0.67 -0.34 0.34 0 0 Z " fill="#000000" transform="translate(56,67)"/>
<path d="M0 0 C3 1 3 1 3 1 Z " fill="#000000" transform="translate(97,48)"/>
<path d="M0 0 C2 1 2 1 2 1 Z " fill="#000000" transform="translate(55,70)"/>
<path d="" fill="#020202" transform="translate(0,0)"/>
</svg>
