<?xml version="1.0" encoding="UTF-8"?>
<svg version="1.1" xmlns="http://www.w3.org/2000/svg" width="206" height="116">
<path d="M0 0 C17.16 0 34.32 0 52 0 C52 33 52 66 52 100 C36.16 100 20.32 100 4 100 C4 79.21 4 58.42 4 37 C1.69 37.99 -0.62 38.98 -3 40 C-5.0628122 37.14605886 -7.12519198 34.29180549 -9.1875 31.4375 C-9.76564453 30.63763672 -10.34378906 29.83777344 -10.93945312 29.01367188 C-12.08467604 27.42847631 -13.22777158 25.84174149 -14.36865234 24.25341797 C-15.41318254 22.81058443 -16.46977553 21.3763607 -17.54150391 19.95361328 C-21 15.31666667 -21 15.31666667 -21 12 C-20.14535156 11.59007812 -19.29070312 11.18015625 -18.41015625 10.7578125 C-17.30542969 10.21898437 -16.20070313 9.68015625 -15.0625 9.125 C-13.40927734 8.32449219 -13.40927734 8.32449219 -11.72265625 7.5078125 C-8.90595489 6.28340155 -8.90595489 6.28340155 -8 4 C-6.15234375 3.3671875 -6.15234375 3.3671875 -3.9375 2.875 C-3.20402344 2.70742187 -2.47054687 2.53984375 -1.71484375 2.3671875 C-1.14894531 2.24601563 -0.58304688 2.12484375 0 2 C0 1.34 0 0.68 0 0 Z " fill="#E20A1F" transform="translate(88,8)"/>
</svg>
