<?xml version="1.0" encoding="UTF-8"?>
<svg version="1.1" xmlns="http://www.w3.org/2000/svg" width="206" height="116">
<path d="M0 0 C1.92459045 -0.00287018 1.92459045 -0.00287018 3.88806152 -0.00579834 C6.59453182 -0.00873472 9.30086944 -0.00450016 12.00732422 0.00488281 C15.46035069 0.01627659 18.91306615 0.0097091 22.36608124 -0.00226212 C25.68157847 -0.01126486 28.99699396 -0.00494448 32.3125 0 C33.5449646 -0.00404846 34.7774292 -0.00809692 36.04724121 -0.01226807 C41.96259966 0.01993318 47.08383525 0.21015919 52.65625 2.265625 C52.65625 1.605625 52.65625 0.945625 52.65625 0.265625 C60.73220493 0.17264526 68.80793348 0.1017194 76.8842926 0.05837631 C80.63513189 0.03756603 84.38560302 0.00937033 88.13623047 -0.03613281 C91.76077862 -0.0798275 95.38497427 -0.10356136 99.00976562 -0.11388397 C100.38758894 -0.12123332 101.76539455 -0.13558446 103.14306641 -0.15729523 C111.77664666 -0.28785075 118.5204725 -0.22779624 125.28857422 5.69378662 C129.03693673 9.48781599 129.0073768 13.6187982 129.09375 18.765625 C129.00316845 23.92344508 128.38341774 28.38927508 126.65625 33.265625 C124.53125 34.703125 124.53125 34.703125 122.65625 35.265625 C122.98625 36.585625 123.31625 37.905625 123.65625 39.265625 C123.32625 38.605625 122.99625 37.945625 122.65625 37.265625 C121.99625 37.265625 121.33625 37.265625 120.65625 37.265625 C120.5015625 38.4103125 120.5015625 38.4103125 120.34375 39.578125 C119.57059614 42.60045373 118.79993006 43.13227593 116.65625 45.265625 C115.73396139 46.73702186 114.86030766 48.23975201 114.03125 49.765625 C113.39316406 50.92578125 113.39316406 50.92578125 112.7421875 52.109375 C111.54642725 54.35461657 111.54642725 54.35461657 110.65625 57.265625 C109.99625 57.265625 109.33625 57.265625 108.65625 57.265625 C108.32625 60.235625 107.99625 63.205625 107.65625 66.265625 C106.66625 66.595625 105.67625 66.925625 104.65625 67.265625 C104.65625 69.575625 104.65625 71.885625 104.65625 74.265625 C105.64625 74.265625 106.63625 74.265625 107.65625 74.265625 C107.65625 76.905625 107.65625 79.545625 107.65625 82.265625 C103.03625 82.265625 98.41625 82.265625 93.65625 82.265625 C92.99625 83.915625 92.33625 85.565625 91.65625 87.265625 C90.65625 88.265625 90.65625 88.265625 88.33959961 88.37915039 C87.33936768 88.37391357 86.33913574 88.36867676 85.30859375 88.36328125 C84.22900391 88.36005859 83.14941406 88.35683594 82.03710938 88.35351562 C80.90080078 88.34513672 79.76449219 88.33675781 78.59375 88.328125 C77.45357422 88.32361328 76.31339844 88.31910156 75.13867188 88.31445312 C72.31114649 88.30262247 69.4837236 88.2861391 66.65625 88.265625 C67.31625 85.295625 67.97625 82.325625 68.65625 79.265625 C69.31625 79.265625 69.97625 79.265625 70.65625 79.265625 C70.98625 77.615625 71.31625 75.965625 71.65625 74.265625 C72.31625 74.265625 72.97625 74.265625 73.65625 74.265625 C74.0275 73.275625 74.0275 73.275625 74.40625 72.265625 C75.71142751 69.13319897 77.19978274 66.14722564 78.75390625 63.1328125 C79.77627876 61.11898178 79.77627876 61.11898178 80.65625 58.265625 C81.31625 57.935625 81.97625 57.605625 82.65625 57.265625 C83.15125 56.275625 83.64625 55.285625 84.15625 54.265625 C85.65625 51.265625 85.65625 51.265625 87.65625 50.265625 C88.36918 48.61821703 89.02912506 46.94756927 89.65625 45.265625 C90.40772987 43.67301504 91.17914899 42.08968304 91.96875 40.515625 C92.401875 39.65195312 92.835 38.78828125 93.28125 37.8984375 C94.99121614 34.62424097 96.83889053 31.4410368 98.73828125 28.2734375 C99.93345105 26.02727288 99.93345105 26.02727288 99.65625 22.265625 C87.11625 22.265625 74.57625 22.265625 61.65625 22.265625 C61.65625 20.615625 61.65625 18.965625 61.65625 17.265625 C60.99625 17.265625 60.33625 17.265625 59.65625 17.265625 C59.69814453 18.23910889 59.74003906 19.21259277 59.78320312 20.21557617 C59.92839563 23.8398109 60.01997385 27.46379148 60.09570312 31.09008789 C60.13584962 32.65693425 60.19038434 34.22348242 60.25976562 35.78930664 C60.82477951 48.87187085 60.82477951 48.87187085 57.83984375 52.43212891 C55.79259706 53.71165808 53.96947475 54.59441167 51.65625 55.265625 C51.65625 54.275625 51.65625 53.285625 51.65625 52.265625 C51.16125 53.255625 51.16125 53.255625 50.65625 54.265625 C46.78636894 55.14609219 43.06781193 55.38861917 39.10986328 55.37915039 C38.04921661 55.37907486 36.98856995 55.37899933 35.89578247 55.37892151 C34.76743988 55.37376022 33.63909729 55.36859894 32.4765625 55.36328125 C30.72471146 55.36115883 30.72471146 55.36115883 28.93746948 55.35899353 C25.21870326 55.35340998 21.49999793 55.34086044 17.78125 55.328125 C15.2552092 55.32310788 12.72916746 55.31854534 10.203125 55.31445312 C4.02080998 55.30344593 -2.16145969 55.28619255 -8.34375 55.265625 C-8.34375 58.895625 -8.34375 62.525625 -8.34375 66.265625 C14.09625 66.265625 36.53625 66.265625 59.65625 66.265625 C59.65625 70.885625 59.65625 75.505625 59.65625 80.265625 C59.32625 80.595625 58.99625 80.925625 58.65625 81.265625 C59.31625 83.245625 59.97625 85.225625 60.65625 87.265625 C58.85636601 89.06550899 56.40625124 88.38555504 54.01069641 88.39004517 C53.20077744 88.38644989 52.39085846 88.38285461 51.55639648 88.37915039 C50.70768982 88.37929642 49.85898315 88.37944244 48.98455811 88.3795929 C46.16546109 88.37889348 43.34642929 88.37109978 40.52734375 88.36328125 C38.57821183 88.36141717 36.62907945 88.35999322 34.6799469 88.35899353 C29.53918168 88.35516755 24.39844453 88.34533659 19.25769043 88.33428955 C14.01619852 88.32407715 8.7747021 88.31949628 3.53320312 88.31445312 C-6.75912694 88.30371439 -17.05143614 88.28663701 -27.34375 88.265625 C-27.44288284 82.53650928 -27.5153434 76.80789661 -27.56347656 71.078125 C-27.58354906 69.13044534 -27.61081332 67.18282563 -27.64550781 65.23535156 C-27.69421852 62.43018779 -27.71676241 59.62582313 -27.734375 56.8203125 C-27.75502014 55.95445526 -27.77566528 55.08859802 -27.79693604 54.19650269 C-27.79895795 48.7061282 -26.9924621 45.62683229 -23.34375 41.265625 C-18.59426817 36.88148793 -14.37346616 35.00772659 -7.91088867 35.03857422 C-6.31980537 35.03880081 -6.31980537 35.03880081 -4.69657898 35.03903198 C-2.99632317 35.05451584 -2.99632317 35.05451584 -1.26171875 35.0703125 C-0.09240311 35.0731424 1.07691254 35.07597229 2.28166199 35.07888794 C6.01079608 35.09006938 9.73968868 35.11517066 13.46875 35.140625 C15.99934549 35.15065741 18.52994474 35.15978281 21.06054688 35.16796875 C27.25920741 35.19000212 33.45768778 35.22451838 39.65625 35.265625 C39.65625 30.315625 39.65625 25.365625 39.65625 20.265625 C23.81625 20.265625 7.97625 20.265625 -8.34375 20.265625 C-8.34375 22.575625 -8.34375 24.885625 -8.34375 27.265625 C-14.61375 27.265625 -20.88375 27.265625 -27.34375 27.265625 C-29.79438476 22.36435548 -28.21834663 15.51320477 -27.34375 10.265625 C-26.68375 10.265625 -26.02375 10.265625 -25.34375 10.265625 C-25.075625 9.688125 -24.8075 9.110625 -24.53125 8.515625 C-21.46749912 2.71062333 -21.46749912 2.71062333 -17.56445312 1.16503906 C-11.8313657 -0.34841069 -5.88467434 -0.01933028 0 0 Z M52.65625 2.265625 C53.65625 4.265625 53.65625 4.265625 53.65625 4.265625 Z M57.65625 9.265625 C57.65625 9.925625 57.65625 10.585625 57.65625 11.265625 C58.31625 11.265625 58.97625 11.265625 59.65625 11.265625 C59.65625 10.605625 59.65625 9.945625 59.65625 9.265625 C58.99625 9.265625 58.33625 9.265625 57.65625 9.265625 Z M58.65625 12.265625 C59.65625 15.265625 59.65625 15.265625 59.65625 15.265625 Z M124.65625 30.265625 C125.65625 32.265625 125.65625 32.265625 125.65625 32.265625 Z M57.65625 44.265625 C58.65625 46.265625 58.65625 46.265625 58.65625 46.265625 Z M102.65625 68.265625 C102.32625 68.925625 101.99625 69.585625 101.65625 70.265625 C102.31625 70.265625 102.97625 70.265625 103.65625 70.265625 C103.32625 69.605625 102.99625 68.945625 102.65625 68.265625 Z M53.65625 74.265625 C54.64625 75.915625 55.63625 77.565625 56.65625 79.265625 C56.8798568 76.3401606 56.8798568 76.3401606 55.65625 74.265625 C54.99625 74.265625 54.33625 74.265625 53.65625 74.265625 Z M97.65625 77.265625 C97.65625 80.265625 97.65625 80.265625 97.65625 80.265625 Z " fill="#000000" transform="translate(52.34375,13.734375)"/>
<path d="" fill="#000000" transform="translate(0,0)"/>
</svg>
