<?xml version="1.0" encoding="UTF-8"?>
<svg version="1.1" xmlns="http://www.w3.org/2000/svg" width="206" height="116">
<path d="M0 0 C3.64200378 3.5877804 5.87081074 6.72266369 6.16796875 11.9609375 C6.17441406 13.08757813 6.18085938 14.21421875 6.1875 15.375 C6.20167969 16.49648438 6.21585938 17.61796875 6.23046875 18.7734375 C6.00133126 21.98136237 5.27422304 24.08257041 4 27 C3.814375 28.8253125 3.814375 28.8253125 3.625 30.6875 C3.41875 31.780625 3.2125 32.87375 3 34 C1.68570911 34.70346406 0.34812646 35.36377892 -1 36 C-2.4610504 37.32774288 -3.87708074 38.70631676 -5.25 40.125 C-5.95640625 40.84945312 -6.6628125 41.57390625 -7.390625 42.3203125 C-7.92171875 42.87460937 -8.4528125 43.42890625 -9 44 C-8.67386719 44.84433594 -8.34773437 45.68867187 -8.01171875 46.55859375 C-6.92822713 50.24413861 -6.76663615 53.23078398 -6.8125 57.0625 C-6.82216797 58.84333984 -6.82216797 58.84333984 -6.83203125 60.66015625 C-6.9779314 63.56119407 -7.33366903 66.18008735 -8 69 C-8.66 69 -9.32 69 -10 69 C-10.1546875 70.6396875 -10.1546875 70.6396875 -10.3125 72.3125 C-11.011932 76.06399892 -11.25994995 76.69835795 -14 79 C-14.25652344 79.58136719 -14.51304687 80.16273437 -14.77734375 80.76171875 C-16.42280369 83.77401442 -18.64726688 85.76021198 -21.125 88.125 C-22.78723433 89.71189226 -24.42224346 91.32909178 -26 93 C-26 93.66 -26 94.32 -26 95 C-27.98 95 -29.96 95 -32 95 C-30.02 95.33 -28.04 95.66 -26 96 C-26 97.65 -26 99.3 -26 101 C-28.64 101 -31.28 101 -34 101 C-34 100.01 -34 99.02 -34 98 C-34.71470459 98.21366211 -35.42940918 98.42732422 -36.16577148 98.64746094 C-43.94358418 100.80443383 -51.01783259 101.40223498 -59.0625 101.25 C-60.15626953 101.24484375 -61.25003906 101.2396875 -62.37695312 101.234375 C-81.8648218 101.04888666 -81.8648218 101.04888666 -86.5625 97.875 C-90.16455606 95.91024215 -90.63136092 95.82065401 -94.40185547 96.37670898 C-100.61658835 97.13536225 -106.75351739 97.12569076 -113.0078125 97.09765625 C-114.2144455 97.0962413 -115.42107849 97.09482635 -116.66427612 97.09336853 C-120.48454359 97.08781082 -124.30475052 97.07526628 -128.125 97.0625 C-130.72916581 97.05747953 -133.33333256 97.05291758 -135.9375 97.04882812 C-142.29170825 97.03870996 -148.64578707 97.01912639 -155 97 C-155 87.43 -155 77.86 -155 68 C-151.59300781 67.95101562 -148.18601563 67.90203125 -144.67578125 67.8515625 C-141.3727584 67.79753865 -138.06980755 67.7402366 -134.7668457 67.68261719 C-132.47295504 67.64435595 -130.17900497 67.60949811 -127.88500977 67.578125 C-124.5858844 67.53241294 -121.28716704 67.47442778 -117.98828125 67.4140625 C-116.45207878 67.39673569 -116.45207878 67.39673569 -114.88484192 67.37905884 C-113.44391426 67.3492543 -113.44391426 67.3492543 -111.97387695 67.31884766 C-110.71145927 67.29886215 -110.71145927 67.29886215 -109.42353821 67.2784729 C-106.55413141 66.94876816 -104.53014544 66.41322718 -102 65 C-101.34 63.35 -100.68 61.7 -100 60 C-110.56 60 -121.12 60 -132 60 C-129.05981981 36.47855851 -129.05981981 36.47855851 -121.9375 30.9375 C-118.86895616 29.03561045 -117.82476348 29 -114 29 C-114 28.34 -114 27.68 -114 27 C-112.68 26.34 -111.36 25.68 -110 25 C-118.25 24.67 -126.5 24.34 -135 24 C-136 22 -136 22 -135.125 19.0625 C-134.75375 18.051875 -134.3825 17.04125 -134 16 C-133.67 15.01 -133.34 14.02 -133 13 C-132.34 13 -131.68 13 -131 13 C-130.87625 11.948125 -130.7525 10.89625 -130.625 9.8125 C-130.08859218 6.54041229 -129.36119965 3.99463924 -128 1 C-127.34 1 -126.68 1 -126 1 C-125.34 -1.31 -124.68 -3.62 -124 -6 C-123.06500168 -5.99555878 -122.13000336 -5.99111755 -121.16667175 -5.98654175 C-112.26933905 -5.94564757 -103.37202591 -5.91585101 -94.47461987 -5.89637566 C-89.90255443 -5.886026 -85.33056604 -5.87203229 -80.75854492 -5.84912109 C-76.32997719 -5.82707268 -71.90148262 -5.81536549 -67.47286415 -5.81024551 C-65.79994877 -5.80660619 -64.12703648 -5.79950381 -62.45415306 -5.78853989 C-51.87340169 -5.72207863 -41.54998932 -6.28589371 -31.04048157 -7.53884888 C-19.24249157 -8.94188078 -9.59488694 -7.46268985 0 0 Z M-43 23 C-44.76727858 26.0334467 -44.76727858 26.0334467 -46 29 C-43.93906592 29.223293 -41.8761161 29.42802887 -39.8125 29.625 C-38.66394531 29.74101563 -37.51539063 29.85703125 -36.33203125 29.9765625 C-32.9028805 30.00068314 -30.98779986 29.63592563 -28 28 C-25.27215465 24.83255595 -25.27215465 24.83255595 -24 21 C-26.41696872 20.94588876 -28.83271787 20.90627722 -31.25 20.875 C-32.27287109 20.84986328 -32.27287109 20.84986328 -33.31640625 20.82421875 C-37.02767361 20.78818703 -39.94237751 20.76558356 -43 23 Z M-77 35 C-77.66 35.66 -78.32 36.32 -79 37 C-77.35 37 -75.7 37 -74 37 C-74.99 36.34 -75.98 35.68 -77 35 Z M-59 60 C-60.20747913 62.31065794 -60.20747913 62.31065794 -60.8125 64.75 C-61.16248047 65.94882813 -61.16248047 65.94882813 -61.51953125 67.171875 C-61.67808594 67.77515625 -61.83664063 68.3784375 -62 69 C-58.61121636 70.02071796 -55.46843119 70.1656231 -51.9375 70.1875 C-50.89464844 70.20167969 -49.85179687 70.21585938 -48.77734375 70.23046875 C-45.7876052 70.20795304 -45.7876052 70.20795304 -43 68 C-43 67.34 -43 66.68 -43 66 C-41.68 65.34 -40.36 64.68 -39 64 C-39 63.34 -39 62.68 -39 62 C-38.34 61.67 -37.68 61.34 -37 61 C-36.25723969 59.02919843 -36.25723969 59.02919843 -36 57 C-38.09498931 54.90501069 -42.37463212 55.72314506 -45.25 55.6875 C-46.01441406 55.65849609 -46.77882813 55.62949219 -47.56640625 55.59960938 C-52.62608451 55.54280815 -55.4319392 56.06771371 -59 60 Z M-90 91 C-91.67482482 92.42452044 -91.67482482 92.42452044 -93 94 C-92.15115234 94.30744141 -92.15115234 94.30744141 -91.28515625 94.62109375 C-90.55167969 94.89050781 -89.81820312 95.15992187 -89.0625 95.4375 C-88.33160156 95.70433594 -87.60070312 95.97117187 -86.84765625 96.24609375 C-85 97 -85 97 -84 98 C-82.14712498 98.07226502 -80.29166122 98.0838122 -78.4375 98.0625 C-77.42558594 98.05347656 -76.41367188 98.04445313 -75.37109375 98.03515625 C-74.58863281 98.02355469 -73.80617188 98.01195313 -73 98 C-76.47547073 96.05433049 -78.12506344 95.92362873 -82 97 C-82.33 96.01 -82.66 95.02 -83 94 C-83.66 94 -84.32 94 -85 94 C-85 93.34 -85 92.68 -85 92 C-87.34533951 91.23043864 -87.34533951 91.23043864 -90 91 Z M-73 98 C-73 98.33 -73 98.66 -73 99 C-70.36 99 -67.72 99 -65 99 C-65 98.67 -65 98.34 -65 98 C-67.64 98 -70.28 98 -73 98 Z M-49 98 C-49 98.33 -49 98.66 -49 99 C-47.02 99 -45.04 99 -43 99 C-43 98.67 -43 98.34 -43 98 C-44.98 98 -46.96 98 -49 98 Z M-61 99 C-61 99.33 -61 99.66 -61 100 C-57.04 100 -53.08 100 -49 100 C-49 99.67 -49 99.34 -49 99 C-52.96 99 -56.92 99 -61 99 Z " fill="#F3BF28" transform="translate(178,11)"/>
<path d="M0 0 C0.94746094 -0.02900391 1.89492187 -0.05800781 2.87109375 -0.08789062 C11.04703704 -0.16059053 17.55959378 1.76889585 24.375 6.3125 C27.42838499 9.36588499 28.67037477 12.12181267 28.75 16.4375 C28.52561439 24.97817745 24.42804853 33.33892257 18.375 39.3125 C11.16088808 44.3125 11.16088808 44.3125 7.375 44.3125 C7.375 44.9725 7.375 45.6325 7.375 46.3125 C7.9525 46.539375 8.53 46.76625 9.125 47 C12.28027976 48.84057986 13.56125201 50.07366429 15.375 53.3125 C17.33512053 63.20570677 13.52952956 71.12187443 8.375 79.3125 C2.09204818 87.93928737 -4.92943606 92.9142344 -15.5703125 94.84765625 C-20.85890217 95.56737639 -26.17143137 95.53621853 -31.5 95.5625 C-33.05654297 95.5934375 -33.05654297 95.5934375 -34.64453125 95.625 C-43.87484163 95.67155894 -51.39587285 94.31709231 -58.25 87.84375 C-61.5671607 84.14963922 -62.03246013 80.43687508 -61.8671875 75.54296875 C-60.83680072 66.05343885 -56.62022138 57.97405237 -49.63671875 51.45703125 C-45.57560407 48.26333913 -41.45072354 46.12214633 -36.625 44.3125 C-37.8315625 43.3534375 -37.8315625 43.3534375 -39.0625 42.375 C-42.41418181 38.36933149 -42.90225008 35.45422878 -42.625 30.3125 C-40.92511409 20.92265402 -35.15360588 12.83167945 -27.91015625 6.81640625 C-19.39174032 1.21026927 -9.9028282 0.09863375 0 0 Z M-15.625 25.3125 C-17.39227858 28.3459467 -17.39227858 28.3459467 -18.625 31.3125 C-16.56406592 31.535793 -14.5011161 31.74052887 -12.4375 31.9375 C-11.28894531 32.05351563 -10.14039063 32.16953125 -8.95703125 32.2890625 C-5.5278805 32.31318314 -3.61279986 31.94842563 -0.625 30.3125 C2.10284535 27.14505595 2.10284535 27.14505595 3.375 23.3125 C0.95803128 23.25838876 -1.45771787 23.21877722 -3.875 23.1875 C-4.89787109 23.16236328 -4.89787109 23.16236328 -5.94140625 23.13671875 C-9.65267361 23.10068703 -12.56737751 23.07808356 -15.625 25.3125 Z M-31.625 62.3125 C-32.83247913 64.62315794 -32.83247913 64.62315794 -33.4375 67.0625 C-33.78748047 68.26132813 -33.78748047 68.26132813 -34.14453125 69.484375 C-34.30308594 70.08765625 -34.46164063 70.6909375 -34.625 71.3125 C-31.23621636 72.33321796 -28.09343119 72.4781231 -24.5625 72.5 C-23.51964844 72.51417969 -22.47679687 72.52835938 -21.40234375 72.54296875 C-18.4126052 72.52045304 -18.4126052 72.52045304 -15.625 70.3125 C-15.625 69.6525 -15.625 68.9925 -15.625 68.3125 C-14.305 67.6525 -12.985 66.9925 -11.625 66.3125 C-11.625 65.6525 -11.625 64.9925 -11.625 64.3125 C-10.965 63.9825 -10.305 63.6525 -9.625 63.3125 C-8.88223969 61.34169843 -8.88223969 61.34169843 -8.625 59.3125 C-10.71998931 57.21751069 -14.99963212 58.03564506 -17.875 58 C-18.63941406 57.97099609 -19.40382813 57.94199219 -20.19140625 57.91210938 C-25.25108451 57.85530815 -28.0569392 58.38021371 -31.625 62.3125 Z " fill="#B8433D" transform="translate(150.625,8.6875)"/>
<path d="M0 0 C21.12 0 42.24 0 64 0 C62.35 1.65 60.7 3.3 59 5 C53.54213055 10.4841092 48.58684133 17.59069117 47.73193359 25.47094727 C47 28 47 28 44.95874023 29.66918945 C44.08419189 30.14573975 43.20964355 30.62229004 42.30859375 31.11328125 C41.36435547 31.63857422 40.42011719 32.16386719 39.44726562 32.70507812 C38.45404297 33.23552734 37.46082031 33.76597656 36.4375 34.3125 C35.44041016 34.86228516 34.44332031 35.41207031 33.41601562 35.97851562 C30.95189016 37.33437413 28.48022807 38.6738967 26 40 C26.98742187 40.20496094 27.97484375 40.40992188 28.9921875 40.62109375 C30.27351563 40.89050781 31.55484375 41.15992188 32.875 41.4375 C34.15117188 41.70433594 35.42734375 41.97117188 36.7421875 42.24609375 C40 43 40 43 42 44 C40.69543934 46.85760908 39.26745037 48.96323951 37.125 51.25 C30.50920022 58.80169341 27.61360491 67.61760115 27.796875 77.62109375 C28.05351845 80.62678336 28.83203164 83.22607514 30 86 C21.06659899 90.87276419 13.0709087 92.31528211 2.93359375 92.1953125 C2.01409439 92.1924826 1.09459503 92.18965271 0.14723206 92.18673706 C-2.75615093 92.17564584 -5.65921209 92.15056263 -8.5625 92.125 C-10.54491738 92.11495588 -12.52733966 92.10583255 -14.50976562 92.09765625 C-19.34006399 92.07745425 -24.16967671 92.03828526 -29 92 C-29 85.73 -29 79.46 -29 73 C-27.67347412 72.9906543 -26.34694824 72.98130859 -24.98022461 72.97167969 C-20.03929574 72.93168386 -15.09898323 72.86589785 -10.15844727 72.79248047 C-8.02376244 72.76432651 -5.88897444 72.74308435 -3.75415039 72.72900391 C-0.67801306 72.70749747 2.39689114 72.66080663 5.47265625 72.609375 C6.89494286 72.60753204 6.89494286 72.60753204 8.34596252 72.60565186 C14.38577809 72.47338153 18.0940266 71.61046011 23 68 C25.3348369 64.41995825 26 61.29884285 26 57 C23.15464275 55.57732138 20.63781448 55.78028131 17.4609375 55.68359375 C16.15898438 55.64169922 14.85703125 55.59980469 13.515625 55.55664062 C12.13541955 55.51682701 10.75521117 55.47711478 9.375 55.4375 C7.98696585 55.39430593 6.59894472 55.35069135 5.2109375 55.30664062 C1.80739744 55.20028 -1.59621778 55.09825286 -5 55 C-4.56576086 52.44315136 -4.08073544 49.91502089 -3.5625 47.375 C-3.44712891 46.66214844 -3.33175781 45.94929688 -3.21289062 45.21484375 C-2.2517215 40.75665504 -0.92539737 38.51947244 2.875 35.9375 C4.56985277 34.93518058 6.2796841 33.9579579 8 33 C10.04315837 31.78417276 12.08611728 30.56801028 14.12890625 29.3515625 C16.27145466 28.10595807 18.41635801 26.86440253 20.5625 25.625 C24.336875 23.43875 28.11125 21.2525 32 19 C19.46 18.67 6.92 18.34 -6 18 C-5 12 -5 12 0 0 Z " fill="#B8433D" transform="translate(57,11)"/>
<path d="M0 0 C1.125 1.6875 1.125 1.6875 2 4 C1.30514327 6.50148421 0.19483973 8.62407393 -0.99609375 10.921875 C-4.24841525 17.25973228 -5.78372803 22.74695333 -5 30 C-3.27958542 34.70850306 -1.23565859 37.3296935 3 40 C9.94200119 43.12325141 16.47777022 43.43032941 24 43.3125 C25.02867188 43.31572266 26.05734375 43.31894531 27.1171875 43.32226562 C38.86449943 43.24006433 50.29412087 41.31298719 59.1171875 33.078125 C66.22785004 25.22984186 71.08255765 14.55058698 72 4 C72.99 4.33 73.98 4.66 75 5 C76.33257403 15.55808656 76.33257403 15.55808656 75 20 C74.34 20 73.68 20 73 20 C72.8453125 21.6396875 72.8453125 21.6396875 72.6875 23.3125 C71.988068 27.06399892 71.74005005 27.69835795 69 30 C68.74347656 30.58136719 68.48695313 31.16273437 68.22265625 31.76171875 C66.57719631 34.77401442 64.35273312 36.76021198 61.875 39.125 C60.21276567 40.71189226 58.57775654 42.32909178 57 44 C57 44.66 57 45.32 57 46 C55.02 46 53.04 46 51 46 C52.98 46.33 54.96 46.66 57 47 C57 48.65 57 50.3 57 52 C54.36 52 51.72 52 49 52 C49 51.01 49 50.02 49 49 C48.28529541 49.21366211 47.57059082 49.42732422 46.83422852 49.64746094 C39.05641582 51.80443383 31.98216741 52.40223498 23.9375 52.25 C22.84373047 52.24484375 21.74996094 52.2396875 20.62304688 52.234375 C1.1351782 52.04888666 1.1351782 52.04888666 -3.5625 48.875 C-7.16455606 46.91024215 -7.63136092 46.82065401 -11.40185547 47.37670898 C-17.61658835 48.13536225 -23.75351739 48.12569076 -30.0078125 48.09765625 C-31.2144455 48.0962413 -32.42107849 48.09482635 -33.66427612 48.09336853 C-37.48454359 48.08781082 -41.30475052 48.07526628 -45.125 48.0625 C-47.72916581 48.05747953 -50.33333256 48.05291758 -52.9375 48.04882812 C-59.29170825 48.03870996 -65.64578707 48.01912639 -72 48 C-72 38.43 -72 28.86 -72 19 C-68.59300781 18.95101562 -65.18601562 18.90203125 -61.67578125 18.8515625 C-58.3727584 18.79753865 -55.06980755 18.7402366 -51.7668457 18.68261719 C-49.47295504 18.64435595 -47.17900497 18.60949811 -44.88500977 18.578125 C-41.5858844 18.53241294 -38.28716704 18.47442778 -34.98828125 18.4140625 C-33.45207878 18.39673569 -33.45207878 18.39673569 -31.88484192 18.37905884 C-30.92422348 18.35918915 -29.96360504 18.33931946 -28.97387695 18.31884766 C-27.71145927 18.29886215 -27.71145927 18.29886215 -26.42353821 18.2784729 C-23.63314957 17.95784762 -21.51066473 17.25399367 -19 16 C-17.53335352 13.58500543 -17.53335352 13.58500543 -17 11 C-17.495 10.01 -17.495 10.01 -18 9 C-17.34 8.67 -16.68 8.34 -16 8 C-16.495 7.01 -16.495 7.01 -17 6 C-14.525 6.495 -14.525 6.495 -12 7 C-10.6778546 10.52572107 -11.02571153 12.720363 -12.5 16.0625 C-14.4314752 20.2667887 -17.80398719 22.34737578 -22 24 C-25.52096064 24.52059033 -28.97455126 24.46798062 -32.52734375 24.390625 C-34.01071983 24.38213531 -34.01071983 24.38213531 -35.52406311 24.37347412 C-38.66238143 24.35120015 -41.79953057 24.30101998 -44.9375 24.25 C-47.07355114 24.22992342 -49.2096203 24.21167468 -51.34570312 24.1953125 C-56.56424809 24.15136468 -61.78192626 24.08239898 -67 24 C-67 30.27 -67 36.54 -67 43 C-61.2375911 42.92553037 -55.47660303 42.842282 -49.71484375 42.73754883 C-47.75984374 42.70454693 -45.8047541 42.6764403 -43.84960938 42.65356445 C-25.35963067 43.14524904 -25.35963067 43.14524904 -9 36 C-9.495 35.071875 -9.495 35.071875 -10 34.125 C-12.71747139 25.63290191 -10.75478122 17.86335641 -7 10 C-2.70357143 2.70357143 -2.70357143 2.70357143 0 0 Z M-7 42 C-8.67482482 43.42452044 -8.67482482 43.42452044 -10 45 C-9.15115234 45.30744141 -9.15115234 45.30744141 -8.28515625 45.62109375 C-7.55167969 45.89050781 -6.81820312 46.15992188 -6.0625 46.4375 C-5.33160156 46.70433594 -4.60070312 46.97117187 -3.84765625 47.24609375 C-2 48 -2 48 -1 49 C0.85287502 49.07226502 2.70833878 49.0838122 4.5625 49.0625 C5.57441406 49.05347656 6.58632812 49.04445313 7.62890625 49.03515625 C8.41136719 49.02355469 9.19382812 49.01195312 10 49 C6.52452927 47.05433049 4.87493656 46.92362873 1 48 C0.67 47.01 0.34 46.02 0 45 C-0.66 45 -1.32 45 -2 45 C-2 44.34 -2 43.68 -2 43 C-4.34533951 42.23043864 -4.34533951 42.23043864 -7 42 Z M10 49 C10 49.33 10 49.66 10 50 C12.64 50 15.28 50 18 50 C18 49.67 18 49.34 18 49 C15.36 49 12.72 49 10 49 Z M34 49 C34 49.33 34 49.66 34 50 C35.98 50 37.96 50 40 50 C40 49.67 40 49.34 40 49 C38.02 49 36.04 49 34 49 Z M22 50 C22 50.33 22 50.66 22 51 C25.96 51 29.92 51 34 51 C34 50.67 34 50.34 34 50 C30.04 50 26.08 50 22 50 Z " fill="#F1BE28" transform="translate(95,60)"/>
<path d="M0 0 C1.45116211 -0.0309375 1.45116211 -0.0309375 2.93164062 -0.0625 C4.32479492 -0.07023437 4.32479492 -0.07023437 5.74609375 -0.078125 C7.02311157 -0.09214355 7.02311157 -0.09214355 8.32592773 -0.10644531 C11.04338442 0.32663915 11.91979901 1.0816347 13.5625 3.25 C14.26753697 8.83521473 12.17788072 13.71428256 9.40234375 18.42578125 C4.54091451 23.24592447 -0.98832106 24.74272921 -7.69921875 24.74804688 C-8.52035156 24.72806641 -9.34148437 24.70808594 -10.1875 24.6875 C-11.02410156 24.69458984 -11.86070313 24.70167969 -12.72265625 24.70898438 C-16.29518674 24.67194857 -18.78171759 24.59249773 -21.98046875 22.921875 C-23.4375 21.25 -23.4375 21.25 -24 18.0625 C-23.08011185 11.82770255 -20.01616849 7.37603923 -15.25 3.3125 C-10.15989276 -0.42024531 -6.1604641 0.03270319 0 0 Z M-14.4375 9.25 C-15.64497913 11.56065794 -15.64497913 11.56065794 -16.25 14 C-16.59998047 15.19882813 -16.59998047 15.19882813 -16.95703125 16.421875 C-17.11558594 17.02515625 -17.27414063 17.6284375 -17.4375 18.25 C-14.04871636 19.27071796 -10.90593119 19.4156231 -7.375 19.4375 C-6.33214844 19.45167969 -5.28929687 19.46585938 -4.21484375 19.48046875 C-1.2251052 19.45795304 -1.2251052 19.45795304 1.5625 17.25 C1.5625 16.59 1.5625 15.93 1.5625 15.25 C2.8825 14.59 4.2025 13.93 5.5625 13.25 C5.5625 12.59 5.5625 11.93 5.5625 11.25 C6.2225 10.92 6.8825 10.59 7.5625 10.25 C8.30526031 8.27919843 8.30526031 8.27919843 8.5625 6.25 C6.46751069 4.15501069 2.18786788 4.97314506 -0.6875 4.9375 C-1.45191406 4.90849609 -2.21632812 4.87949219 -3.00390625 4.84960938 C-8.06358451 4.79280815 -10.8694392 5.31771371 -14.4375 9.25 Z " fill="#EEBB27" transform="translate(133.4375,61.75)"/>
<path d="M0 0 C1.28777344 0.01450195 1.28777344 0.01450195 2.6015625 0.02929688 C6.15822816 0.09320571 8.97518945 0.17922982 12.375 1.3125 C13.55660307 5.25117688 13.48670385 7.75838538 11.8125 11.4375 C9.43792888 15.73473424 6.3649039 18.29089275 1.66015625 19.8984375 C-1.632955 20.495138 -4.84336586 20.48365526 -8.1875 20.5 C-8.85974609 20.51224609 -9.53199219 20.52449219 -10.22460938 20.53710938 C-13.92378237 20.54812975 -15.46471933 20.41935378 -18.625 18.3125 C-19.17615326 13.58832923 -19.13903753 11.30249821 -16.9375 7.0625 C-11.55475561 0.66139857 -8.09049665 -0.27581239 0 0 Z M-10.625 7.3125 C-12.39227858 10.3459467 -12.39227858 10.3459467 -13.625 13.3125 C-11.56406592 13.535793 -9.5011161 13.74052887 -7.4375 13.9375 C-6.28894531 14.05351563 -5.14039063 14.16953125 -3.95703125 14.2890625 C-0.5278805 14.31318314 1.38720014 13.94842563 4.375 12.3125 C7.10284535 9.14505595 7.10284535 9.14505595 8.375 5.3125 C5.95803128 5.25838876 3.54228213 5.21877722 1.125 5.1875 C0.10212891 5.16236328 0.10212891 5.16236328 -0.94140625 5.13671875 C-4.65267361 5.10068703 -7.56737751 5.07808356 -10.625 7.3125 Z " fill="#EDBA27" transform="translate(145.625,26.6875)"/>
<path d="M0 0 C3.73487777 0.4979837 5.81237635 0.87491756 9 3 C11.21529215 3.45712416 11.21529215 3.45712416 13.69140625 3.6328125 C14.62847412 3.7167627 15.56554199 3.80071289 16.53100586 3.88720703 C17.53139893 3.96567871 18.53179199 4.04415039 19.5625 4.125 C21.0930603 4.25237549 21.0930603 4.25237549 22.65454102 4.38232422 C31.78201648 5.08897665 40.85202571 5.20557246 50 5 C50 4.34 50 3.68 50 3 C55.69505736 2.3583034 61.26733196 1.87537678 67 2 C67 3.65 67 5.3 67 7 C64.36 7 61.72 7 59 7 C59 6.01 59 5.02 59 4 C58.28529541 4.21366211 57.57059082 4.42732422 56.83422852 4.64746094 C49.05641582 6.80443383 41.98216741 7.40223498 33.9375 7.25 C32.84373047 7.24484375 31.74996094 7.2396875 30.62304688 7.234375 C10.69445471 7.04469179 10.69445471 7.04469179 4.3125 3.4375 C3.48363281 2.98246094 2.65476562 2.52742188 1.80078125 2.05859375 C1.20652344 1.70925781 0.61226563 1.35992187 0 1 C0 0.67 0 0.34 0 0 Z " fill="#010000" transform="translate(85,105)"/>
<path d="M0 0 C1.98 0 3.96 0 6 0 C6 0.66 6 1.32 6 2 C5.01 2.495 5.01 2.495 4 3 C4.33 3.66 4.66 4.32 5 5 C3.59546357 5.89434157 2.17578131 6.76493192 0.75 7.625 C-0.03890625 8.11226562 -0.8278125 8.59953125 -1.640625 9.1015625 C-4 10 -4 10 -6.296875 9.1484375 C-6.85890625 8.76945312 -7.4209375 8.39046875 -8 8 C-7.1875 5.5625 -7.1875 5.5625 -6 3 C-3 2 -3 2 0 2 C0 1.34 0 0.68 0 0 Z " fill="#F0BD26" transform="translate(64,38)"/>
<path d="M0 0 C3 3.625 3 3.625 3 7 C1.125 7.625 1.125 7.625 -1 8 C-1.66 7.34 -2.32 6.68 -3 6 C-1.125 1.125 -1.125 1.125 0 0 Z " fill="#D3A722" transform="translate(59,40)"/>
<path d="M0 0 C2.31 0 4.62 0 7 0 C7.33 1.32 7.66 2.64 8 4 C4.41465407 4 2.92504174 2.97637955 0 1 C0 0.67 0 0.34 0 0 Z " fill="#040001" transform="translate(97,48)"/>
<path d="M0 0 C0 0.99 0 1.98 0 3 C-0.66 2.67 -1.32 2.34 -2 2 C-1.34 1.34 -0.68 0.68 0 0 Z " fill="#000001" transform="translate(171,53)"/>
<path d="M0 0 C0 0.99 0 1.98 0 3 C-0.66 2.67 -1.32 2.34 -2 2 C-1.34 1.34 -0.68 0.68 0 0 Z " fill="#060007" transform="translate(175,49)"/>
<path d="M0 0 C0 0.99 0 1.98 0 3 C-0.66 2.67 -1.32 2.34 -2 2 C-1.34 1.34 -0.68 0.68 0 0 Z " fill="#030004" transform="translate(179,45)"/>
<path d="" fill="#000000" transform="translate(0,0)"/>
<path d="M0 0 C2 1 2 1 2 1 Z " fill="#040000" transform="translate(166,4)"/>
<path d="" fill="#050004" transform="translate(0,0)"/>
<path d="" fill="#000000" transform="translate(0,0)"/>
</svg>
