<?xml version="1.0" encoding="UTF-8"?>
<svg version="1.1" xmlns="http://www.w3.org/2000/svg" width="206" height="116">
<path d="M0 0 C77.63430437 -6.20779252 77.63430437 -6.20779252 96.36572266 8.91650391 C109.42976512 21.169101 113.25301934 34.13957088 114.0617218 51.78694153 C114.33915426 64.58155281 113.45297634 77.29401991 112 90 C34.36569563 96.20779252 34.36569563 96.20779252 15.63427734 81.08349609 C2.57023488 68.830899 -1.25301934 55.86042912 -2.0617218 38.21305847 C-2.33915426 25.41844719 -1.45297634 12.70598009 0 0 Z M23 23 C23 26.3 23 29.6 23 33 C44.45 33 65.9 33 88 33 C88 29.7 88 26.4 88 23 C66.55 23 45.1 23 23 23 Z M23 57 C23 59.97 23 62.94 23 66 C44.12 66 65.24 66 87 66 C87 63.03 87 60.06 87 57 C65.88 57 44.76 57 23 57 Z " fill="#000000" transform="translate(25,13)"/>
<path d="M0 0 C7.41152795 -1.21760816 12.05195708 -0.52526989 18.21739197 3.60420227 C22.11161428 6.49031522 25.70677588 9.63330463 29.25 12.9375 C30.00135223 13.62697723 30.75270447 14.31645447 31.52682495 15.02682495 C42.96104181 25.98591143 46.75346423 36.03031328 47.27334595 51.78694153 C47.34063599 64.5931348 46.30607933 77.26902473 45 90 C37.41 90 29.82 90 22 90 C22 67.89 22 45.78 22 23 C14.74 23 7.48 23 0 23 C0 15.41 0 7.82 0 0 Z " fill="#000000" transform="translate(136,13)"/>
</svg>
