<?xml version="1.0" encoding="UTF-8"?>
<svg version="1.1" xmlns="http://www.w3.org/2000/svg" width="206" height="116">
<path d="M0 0 C0.66 0.33 1.32 0.66 2 1 C2.66 0.67 3.32 0.34 4 0 C7.9114372 -0.24334014 11.83184539 -0.185206 15.75 -0.1875 C16.83539063 -0.19974609 17.92078125 -0.21199219 19.0390625 -0.22460938 C24.40284739 -0.23444517 29.00075176 -0.21120595 34 2 C34.33 1.34 34.66 0.68 35 0 C37.31 0.66 39.62 1.32 42 2 C42 2.66 42 3.32 42 4 C42.66 4 43.32 4 44 4 C44 4.66 44 5.32 44 6 C44.99 6.495 44.99 6.495 46 7 C47.33895632 8.66215268 48.67130142 10.32963607 50 12 C50.825 12.763125 51.65 13.52625 52.5 14.3125 C55.11465323 17.12325223 56.52609762 19.67835819 58.10546875 23.1328125 C59.06822452 25.25482893 59.06822452 25.25482893 61 28 C61 28.99 61 29.98 61 31 C60.34 31 59.68 31 59 31 C59.495 32.423125 59.495 32.423125 60 33.875 C61.15753106 37.8575544 61.09810025 41.56808226 61.00390625 45.6875 C60.9996059 48.23330708 61.34416955 50.5406358 62 53 C61.01 53.495 61.01 53.495 60 54 C58.515 53.01 58.515 53.01 57 52 C54.97064427 55.04403359 54.68883052 56.11919182 54.359375 59.61328125 C54.26156738 60.52561523 54.16375977 61.43794922 54.06298828 62.37792969 C53.95970215 63.34633789 53.85641602 64.31474609 53.75 65.3125 C52.64688566 74.36544106 51.24625943 83.31193318 46 91 C43.3046875 92.359375 43.3046875 92.359375 41 93 C41.66 94.98 42.32 96.96 43 99 C37.46880907 100.25708885 37.46880907 100.25708885 35.0625 98.9375 C31.79805231 97.45366014 29.31476022 98.95323362 26 100 C23.0625 100.125 23.0625 100.125 21 100 C21 100.66 21 101.32 21 102 C21.9590625 102.185625 21.9590625 102.185625 22.9375 102.375 C23.618125 102.58125 24.29875 102.7875 25 103 C25.33 103.66 25.66 104.32 26 105 C23.69 105 21.38 105 19 105 C18.505 106.485 18.505 106.485 18 108 C8.36486074 108.34686501 -0.17077475 108.41461262 -9 104 C-9 103.34 -9 102.68 -9 102 C-9.763125 101.7525 -10.52625 101.505 -11.3125 101.25 C-16.39742593 98.88491817 -18.41740512 93.76919187 -21 89 C-21.48984375 88.12085937 -21.9796875 87.24171875 -22.484375 86.3359375 C-30.29070457 71.68940826 -30.37002554 58.58856809 -29.93408203 42.33740234 C-29.89161663 39.84288588 -29.89161663 39.84288588 -31 37 C-30.34 36.01 -29.68 35.02 -29 34 C-28.19076636 32.42557265 -27.40081441 30.84116076 -26.625 29.25 C-22.89876066 21.78672062 -19.34995637 16.00424207 -13.609375 9.91796875 C-11.78573683 8.16194165 -11.78573683 8.16194165 -12 6 C-10.9171875 5.8453125 -10.9171875 5.8453125 -9.8125 5.6875 C-6.75334771 4.93970722 -4.65792227 3.65222195 -2 2 C-1.34 2 -0.68 2 0 2 C0 1.34 0 0.68 0 0 Z M3.01171875 27.12109375 C0.5343699 30.65503445 -1.63058795 33.89176386 -3 38 C-3.66 37.67 -4.32 37.34 -5 37 C-7.85793316 39.85793316 -7.40799941 42.14665584 -7.625 46.125 C-7.69976562 47.40632813 -7.77453125 48.68765625 -7.8515625 50.0078125 C-7.90054688 50.99523437 -7.94953125 51.98265625 -8 53 C-5.69 52.01 -3.38 51.02 -1 50 C-1.04125 50.9075 -1.0825 51.815 -1.125 52.75 C-1.07242832 61.38927983 -0.0657204 70.38992008 6 77 C6.66 77 7.32 77 8 77 C8 77.66 8 78.32 8 79 C13.83980492 81.23652103 18.10428399 81.18951155 24 79 C26.72015366 77.23190012 27.74821303 76.13304139 28.453125 72.9609375 C28.71866517 70.983362 28.86727305 68.99090432 29 67 C29.66 67 30.32 67 31 67 C31 66.01 31 65.02 31 64 C30.34 64 29.68 64 29 64 C29 62.68 29 61.36 29 60 C29.66 60 30.32 60 31 60 C32.19015727 49.44941666 31.87593581 41.55683419 27 32 C26.01 31.67 25.02 31.34 24 31 C24 30.34 24 29.68 24 29 C18.52378307 27.05320078 18.52378307 27.05320078 13 28 C12.67 27.01 12.34 26.02 12 25 C8.0279626 24.18938012 5.86844069 24.07354952 3.01171875 27.12109375 Z M-4 33 C-3.67 33.66 -3.34 34.32 -3 35 C-2.34 34.34 -1.68 33.68 -1 33 C-1.99 33 -2.98 33 -4 33 Z M31 60 C32 63 32 63 32 63 Z " fill="#F9F6F7" transform="translate(116,4)"/>
<path d="M0 0 C5.28 0 10.56 0 16 0 C16.33 17.16 16.66 34.32 17 52 C15.35 52.66 13.7 53.32 12 54 C9.47790434 58.12101816 9.65723675 62.66203739 9.5859375 67.36328125 C9.56657135 68.15526413 9.5472052 68.94724701 9.5272522 69.76322937 C9.46772768 72.27954519 9.42118042 74.79590744 9.375 77.3125 C9.33679519 79.0241079 9.29774201 80.73569709 9.2578125 82.44726562 C9.1620487 86.63135749 9.0779182 90.81553931 9 95 C11.31 95 13.62 95 16 95 C16 98.96 16 102.92 16 107 C11.76461684 107.19220663 7.52894629 107.37093557 3.29248047 107.53710938 C1.85091858 107.59556424 0.40950193 107.65772144 -1.03173828 107.72363281 C-3.10161905 107.81765355 -5.17165438 107.89841315 -7.2421875 107.9765625 C-8.4885498 108.02893066 -9.73491211 108.08129883 -11.01904297 108.13525391 C-14 108 -14 108 -16 106 C-16.24050903 103.32980347 -16.24050903 103.32980347 -16.22705078 99.89794922 C-16.22689972 98.61677216 -16.22674866 97.33559509 -16.22659302 96.01559448 C-16.21637895 94.61195726 -16.20594695 93.2083216 -16.1953125 91.8046875 C-16.19158291 90.37265215 -16.18873569 88.94061425 -16.18673706 87.50857544 C-16.17909627 83.73721283 -16.15944408 79.96600396 -16.1373291 76.19470215 C-16.11688019 72.34727051 -16.1077374 68.49981406 -16.09765625 64.65234375 C-16.07619848 57.10148425 -16.04101286 49.55078324 -16 42 C-22.27 42 -28.54 42 -35 42 C-32.77114908 37.54229816 -29.97279941 34.22813095 -26.77734375 30.4375 C-25.0837555 28.11486469 -24.4260558 26.78663525 -24 24 C-23.814375 22.9275 -23.62875 21.855 -23.4375 20.75 C-23.2209375 19.38875 -23.2209375 19.38875 -23 18 C-22.01 18 -21.02 18 -20 18 C-20 19.65 -20 21.3 -20 23 C-16.79669246 19.36281507 -13.60293785 15.72352542 -10.5 12 C-3 3 -3 3 0 0 Z M14 48 C12.30911778 49.97956942 10.64169528 51.97945196 9 54 C10.95894361 53.88693303 10.95894361 53.88693303 13 53 C14.29660434 50.50965614 14.29660434 50.50965614 15 48 C14.67 48 14.34 48 14 48 Z " fill="#E2DFE1" transform="translate(64,5)"/>
<path d="M0 0 C0.66 0.33 1.32 0.66 2 1 C2.66 0.67 3.32 0.34 4 0 C7.9114372 -0.24334014 11.83184539 -0.185206 15.75 -0.1875 C16.83539063 -0.19974609 17.92078125 -0.21199219 19.0390625 -0.22460938 C24.40284739 -0.23444517 29.00075176 -0.21120595 34 2 C34.33 1.34 34.66 0.68 35 0 C37.31 0.66 39.62 1.32 42 2 C42 2.66 42 3.32 42 4 C42.66 4 43.32 4 44 4 C44 4.66 44 5.32 44 6 C44.99 6.495 44.99 6.495 46 7 C47.33895632 8.66215268 48.67130142 10.32963607 50 12 C50.825 12.763125 51.65 13.52625 52.5 14.3125 C55.11465323 17.12325223 56.52609762 19.67835819 58.10546875 23.1328125 C59.06822452 25.25482893 59.06822452 25.25482893 61 28 C61 28.99 61 29.98 61 31 C60.34 31 59.68 31 59 31 C59.99 34.96 59.99 34.96 61 39 C60.34 39 59.68 39 59 39 C59.04125 40.093125 59.0825 41.18625 59.125 42.3125 C59 46 59 46 57 49 C56.34 49 55.68 49 55 49 C54.67 49.99 54.34 50.98 54 52 C53.67 52 53.34 52 53 52 C52.86464844 50.93523438 52.72929687 49.87046875 52.58984375 48.7734375 C50.69300603 35.4166675 47.24504338 23.26102343 36.19921875 14.484375 C27.73383252 8.7706152 17.97829005 8.14505261 8 9 C2.11450889 10.53499971 -2.4166242 12.98954618 -7 17 C-7.66 17 -8.32 17 -9 17 C-9.26941406 17.56460937 -9.53882812 18.12921875 -9.81640625 18.7109375 C-11.4841537 21.93635006 -13.48801686 24.9329569 -15.46484375 27.9765625 C-19.52304165 35.96904386 -20.55595579 43.74094302 -20.5 52.625 C-20.49500488 53.67171875 -20.49000977 54.7184375 -20.48486328 55.796875 C-20.18456611 69.28332436 -17.09815539 81.03009594 -7.2734375 90.69921875 C-0.21449377 97.12068077 6.7032911 98.72132645 16 100 C16 101.98 16 103.96 16 106 C9.9981863 106.21824777 4.80766296 105.5056904 -1 104 C-1.33 104.99 -1.66 105.98 -2 107 C-4.31 106.01 -6.62 105.02 -9 104 C-9 103.34 -9 102.68 -9 102 C-9.763125 101.7525 -10.52625 101.505 -11.3125 101.25 C-16.39742593 98.88491817 -18.41740512 93.76919187 -21 89 C-21.48984375 88.12085937 -21.9796875 87.24171875 -22.484375 86.3359375 C-30.29070457 71.68940826 -30.37002554 58.58856809 -29.93408203 42.33740234 C-29.89161663 39.84288588 -29.89161663 39.84288588 -31 37 C-30.34 36.01 -29.68 35.02 -29 34 C-28.19076636 32.42557265 -27.40081441 30.84116076 -26.625 29.25 C-22.89876066 21.78672062 -19.34995637 16.00424207 -13.609375 9.91796875 C-11.78573683 8.16194165 -11.78573683 8.16194165 -12 6 C-10.9171875 5.8453125 -10.9171875 5.8453125 -9.8125 5.6875 C-6.75334771 4.93970722 -4.65792227 3.65222195 -2 2 C-1.34 2 -0.68 2 0 2 C0 1.34 0 0.68 0 0 Z " fill="#D994B3" transform="translate(116,4)"/>
<path d="M0 0 C0.14847404 6.17461641 0.25727723 12.34819105 0.32958984 18.52416992 C0.35973742 20.62428896 0.40066333 22.72428234 0.45263672 24.82397461 C0.52554078 27.84520466 0.55947639 30.86476873 0.5859375 33.88671875 C0.61690521 34.82335861 0.64787292 35.75999847 0.67977905 36.72502136 C0.68023224 37.60555679 0.68068542 38.48609222 0.68115234 39.39331055 C0.69447601 40.16386276 0.70779968 40.93441498 0.7215271 41.72831726 C0 44 0 44 -6 49 C-6.33 34.48 -6.66 19.96 -7 5 C-11.43507726 10.06865972 -15.86338272 15.13981698 -20.25 20.25 C-20.765625 20.848125 -21.28125 21.44625 -21.8125 22.0625 C-22.56273437 22.93648437 -22.56273437 22.93648437 -23.328125 23.828125 C-23.7705957 24.3427832 -24.21306641 24.85744141 -24.66894531 25.38769531 C-26.17335673 27.20998676 -27.58217069 29.10956092 -29 31 C-25.37 31 -21.74 31 -18 31 C-18 52.45 -18 73.9 -18 96 C-12.06 96 -6.12 96 0 96 C0 97.98 0 99.96 0 102 C-7.92 102 -15.84 102 -24 102 C-24 80.55 -24 59.1 -24 37 C-30.27 37 -36.54 37 -43 37 C-41.02 34.36 -39.04 31.72 -37 29 C-38.98 29.99 -38.98 29.99 -41 31 C-39 27 -39 27 -37.9375 25.1875 C-36.6532312 22.19087279 -36.37181126 19.22236424 -36 16 C-35.01 16 -34.02 16 -33 16 C-33 17.65 -33 19.3 -33 21 C-32.46890625 20.44570313 -31.9378125 19.89140625 -31.390625 19.3203125 C-30.68421875 18.59585937 -29.9778125 17.87140625 -29.25 17.125 C-28.55390625 16.40570312 -27.8578125 15.68640625 -27.140625 14.9453125 C-25 13 -25 13 -22.984375 12.09375 C-19.26259243 10.04237378 -17.2951051 5.82342142 -15 2.3359375 C-10.36995586 -1.26922708 -5.66226362 -0.43686125 0 0 Z " fill="#DA92B2" transform="translate(77,7)"/>
<path d="M0 0 C7.57879614 0.53184534 12.22104868 2.28567545 17.6875 7.625 C22.37602195 13.75257324 24.68110741 21.35986503 25 29 C25.0515625 29.97839844 25.103125 30.95679687 25.15625 31.96484375 C25.46498739 42.78351634 24.03449774 55.40620735 16.3984375 63.75 C10.28294513 69.35362296 4.30152016 70.61281311 -3.8984375 70.4296875 C-10.21130394 69.55510903 -14.7745148 66.60409471 -18.8828125 61.796875 C-22.84142133 55.86852362 -25.25835143 49.19250371 -25 42 C-23.6651666 39.21606731 -22.39209678 38.05036867 -20 36 C-19.34 36.99 -18.68 37.98 -18 39 C-17.01 38.505 -17.01 38.505 -16 38 C-15.90203125 38.78503906 -15.8040625 39.57007813 -15.703125 40.37890625 C-14.78812984 46.80753604 -13.78489149 51.67749635 -10 57 C-9.34 57.33 -8.68 57.66 -8 58 C-8 58.66 -8 59.32 -8 60 C-2.36533697 61.19886447 2.5520474 61.06937734 8 59 C10.6904376 56.90605665 11.4851024 55.10836564 12.1875 51.8125 C12.455625 50.554375 12.72375 49.29625 13 48 C13.66 48 14.32 48 15 48 C15 47.01 15 46.02 15 45 C14.34 45 13.68 45 13 45 C13 43.68 13 42.36 13 41 C13.66 41 14.32 41 15 41 C15.20284253 33.60751666 15.10459237 27.10299926 13 20 C13 17 13 17 14 15 C10.10886541 9.35157882 6.6008036 7.63941527 0 6 C0 4.02 0 2.04 0 0 Z M15 41 C16 44 16 44 16 44 Z " fill="#DB93B4" transform="translate(132,23)"/>
<path d="M0 0 C2.64 0.66 5.28 1.32 8 2 C8 2.66 8 3.32 8 4 C8.66 4 9.32 4 10 4 C10 4.66 10 5.32 10 6 C10.99 6.495 10.99 6.495 12 7 C13.33895632 8.66215268 14.67130142 10.32963607 16 12 C16.825 12.763125 17.65 13.52625 18.5 14.3125 C21.11465323 17.12325223 22.52609762 19.67835819 24.10546875 23.1328125 C25.06822452 25.25482893 25.06822452 25.25482893 27 28 C27 28.99 27 29.98 27 31 C26.34 31 25.68 31 25 31 C25.99 34.96 25.99 34.96 27 39 C26.34 39 25.68 39 25 39 C25.04125 40.093125 25.0825 41.18625 25.125 42.3125 C25 46 25 46 23 49 C22.34 49 21.68 49 21 49 C20.67 49.99 20.34 50.98 20 52 C19.67 52 19.34 52 19 52 C18.86464844 50.93523438 18.72929687 49.87046875 18.58984375 48.7734375 C16.69300603 35.4166675 13.24504338 23.26102343 2.19921875 14.484375 C-6.26616748 8.7706152 -16.02170995 8.14505261 -26 9 C-31.88549111 10.53499971 -36.4166242 12.98954618 -41 17 C-41.66 17 -42.32 17 -43 17 C-43.66 18.32 -44.32 19.64 -45 21 C-51 21 -51 21 -53 20 C-47.10747973 12.74483442 -40.35981002 5.46240677 -31 3 C-26.67929732 2.64750443 -22.39374543 2.71646898 -18.0625 2.8125 C-16.32129883 2.83280273 -16.32129883 2.83280273 -14.54492188 2.85351562 C-11.69612948 2.8886859 -8.84831156 2.93790713 -6 3 C-6 2.34 -6 1.68 -6 1 C-4.02 1.33 -2.04 1.66 0 2 C0 1.34 0 0.68 0 0 Z " fill="#DD93B5" transform="translate(150,4)"/>
<path d="M0 0 C0.66 0.99 1.32 1.98 2 3 C2.66 2.67 3.32 2.34 4 2 C4.14695312 3.17755859 4.14695312 3.17755859 4.296875 4.37890625 C5.21187016 10.80753604 6.21510851 15.67749635 10 21 C10.66 21.33 11.32 21.66 12 22 C12 22.66 12 23.32 12 24 C17.61916156 25.19556629 22.61731388 25.27224086 28 23 C30.02613635 21.15047602 31.38695364 19.24848887 33 17 C33.66 17 34.32 17 35 17 C33.87548273 19.9719385 32.77706209 22.33440687 31 25 C31.99 25 32.98 25 34 25 C34 26.65 34 28.3 34 30 C27.14472556 33.87773099 20.84008153 35.30838388 13 34 C6.02487361 31.48856209 1.57278755 27.3067632 -1.86328125 20.7890625 C-3.83457699 15.95227501 -5.18880999 11.25647008 -5 6 C-3.6651666 3.21606731 -2.39209678 2.05036867 0 0 Z " fill="#DD96B7" transform="translate(112,59)"/>
<path d="M0 0 C0.66 0.33 1.32 0.66 2 1 C0.02 3.31 -1.96 5.62 -4 8 C1.94 8.33 7.88 8.66 14 9 C14 30.45 14 51.9 14 74 C21.92 74 29.84 74 38 74 C37.67 74.66 37.34 75.32 37 76 C28.42 76 19.84 76 11 76 C11 54.88 11 33.76 11 12 C4.07 12 -2.86 12 -10 12 C-8.02366525 8.04733049 -6.15894416 6.00484932 -3 3 C-2.401875 2.401875 -1.80375 1.80375 -1.1875 1.1875 C-0.795625 0.795625 -0.40375 0.40375 0 0 Z " fill="#FDF5FC" transform="translate(39,35)"/>
<path d="M0 0 C0.969375 0.886875 1.93875 1.77375 2.9375 2.6875 C10.74831586 9.29545022 17.84075198 11.84827476 28 13 C28 14.98 28 16.96 28 19 C21.9981863 19.21824777 16.80766296 18.5056904 11 17 C10.67 17.99 10.34 18.98 10 20 C7.69 19.01 5.38 18.02 3 17 C3 16.34 3 15.68 3 15 C2.236875 14.7525 1.47375 14.505 0.6875 14.25 C-2.2364045 12.89004442 -3.30004356 11.68414174 -5 9 C-3.02 9.99 -3.02 9.99 -1 11 C-0.67 7.37 -0.34 3.74 0 0 Z " fill="#DE94B7" transform="translate(104,91)"/>
<path d="M0 0 C2.64 0.66 5.28 1.32 8 2 C8 2.66 8 3.32 8 4 C8.66 4 9.32 4 10 4 C10 4.66 10 5.32 10 6 C10.66 6.33 11.32 6.66 12 7 C13.33895632 8.66215268 14.67130142 10.32963607 16 12 C17.2375 13.1446875 17.2375 13.1446875 18.5 14.3125 C21.11465323 17.12325223 22.52609762 19.67835819 24.10546875 23.1328125 C25.06822452 25.25482893 25.06822452 25.25482893 27 28 C27 28.99 27 29.98 27 31 C26.34 31 25.68 31 25 31 C25.66 33.64 26.32 36.28 27 39 C25.68 39 24.36 39 23 39 C22.84144531 38.2265625 22.68289062 37.453125 22.51953125 36.65625 C21.15183201 30.5507197 19.64394232 25.6348928 15.98828125 20.5234375 C15 19 15 19 15 17 C14.34 17 13.68 17 13 17 C11.66104368 15.33784732 10.32869858 13.67036393 9 12 C4.674963 7.80216997 -0.43351863 6.03203592 -6 4 C-6 3.01 -6 2.02 -6 1 C-3.03 1.495 -3.03 1.495 0 2 C0 1.34 0 0.68 0 0 Z " fill="#F6EEF2" transform="translate(150,4)"/>
<path d="M0 0 C0.66 0.99 1.32 1.98 2 3 C2.66 2.67 3.32 2.34 4 2 C4.69461134 5.78177283 5.09076587 8.59155357 4.25 12.375 C3.92795048 17.04471806 5.48257667 19.24036448 7.96875 23.08203125 C8.3090625 23.71496094 8.649375 24.34789063 9 25 C8.67 25.66 8.34 26.32 8 27 C8.66 27 9.32 27 10 27 C10 27.66 10 28.32 10 29 C8.3125 29.8125 8.3125 29.8125 6 30 C-1.03908341 24.36873328 -3.73284538 17.4940944 -5.02734375 8.82421875 C-4.99720213 5.71101967 -4.59715355 4.60205848 -2.625 2.25 C-1.75875 1.5075 -0.8925 0.765 0 0 Z " fill="#D994B3" transform="translate(112,59)"/>
<path d="M0 0 C0.66 0.33 1.32 0.66 2 1 C2.66 0.67 3.32 0.34 4 0 C5.81341842 -0.08471364 7.62994161 -0.10721083 9.4453125 -0.09765625 C10.52167969 -0.09443359 11.59804687 -0.09121094 12.70703125 -0.08789062 C13.83496094 -0.07951172 14.96289062 -0.07113281 16.125 -0.0625 C17.82849609 -0.05573242 17.82849609 -0.05573242 19.56640625 -0.04882812 C22.37765638 -0.03701615 25.1888023 -0.02054507 28 0 C28 0.99 28 1.98 28 3 C27.30551758 2.99887207 26.61103516 2.99774414 25.89550781 2.99658203 C4.49066429 2.97290329 4.49066429 2.97290329 -13.375 13.6875 C-17.57262492 18.21004567 -20.32130024 23.48025504 -23 29 C-23.66 29 -24.32 29 -25 29 C-24.02031435 20.91759339 -18.97530305 15.60702751 -13.609375 9.91796875 C-11.78573683 8.16194165 -11.78573683 8.16194165 -12 6 C-10.9171875 5.8453125 -10.9171875 5.8453125 -9.8125 5.6875 C-6.75334771 4.93970722 -4.65792227 3.65222195 -2 2 C-1.34 2 -0.68 2 0 2 C0 1.34 0 0.68 0 0 Z " fill="#E0DADE" transform="translate(116,4)"/>
<path d="M0 0 C0.33 0 0.66 0 1 0 C1 20.46 1 40.92 1 62 C8.26 62 15.52 62 23 62 C23 61.34 23 60.68 23 60 C17.72 60 12.44 60 7 60 C7 59.67 7 59.34 7 59 C12.61 59 18.22 59 24 59 C24 60.98 24 62.96 24 65 C16.08 65 8.16 65 0 65 C0 43.55 0 22.1 0 0 Z " fill="#CE98B2" transform="translate(53,44)"/>
<path d="M0 0 C0.928125 0.226875 1.85625 0.45375 2.8125 0.6875 C1.14498852 4.62889078 -1.41460649 7.4767812 -4.1875 10.6875 C-4.8475 10.3575 -5.5075 10.0275 -6.1875 9.6875 C-6.1875 8.6975 -6.1875 7.7075 -6.1875 6.6875 C-11.27960286 10.25070845 -15.41410027 13.73491286 -19.1875 18.6875 C-20.75 17.125 -20.75 17.125 -22.1875 14.6875 C-21.875 10.9375 -21.875 10.9375 -21.1875 7.6875 C-20.1975 7.6875 -19.2075 7.6875 -18.1875 7.6875 C-18.1875 9.3375 -18.1875 10.9875 -18.1875 12.6875 C-17.65640625 12.13320313 -17.1253125 11.57890625 -16.578125 11.0078125 C-15.87171875 10.28335937 -15.1653125 9.55890625 -14.4375 8.8125 C-13.74140625 8.09320313 -13.0453125 7.37390625 -12.328125 6.6328125 C-10.32360776 4.81118917 -8.61634315 3.81852782 -6.1875 2.6875 C-5.506875 1.8521875 -5.506875 1.8521875 -4.8125 1 C-3.1875 -0.3125 -3.1875 -0.3125 0 0 Z " fill="#D993B5" transform="translate(62.1875,15.3125)"/>
<path d="M0 0 C0.33 0 0.66 0 1 0 C1.03738281 1.23234375 1.07476562 2.4646875 1.11328125 3.734375 C1.69015165 19.35254844 3.45164665 33.76312772 13.73046875 46.17578125 C15.08624832 48.12393221 15.57524767 49.68177344 16 52 C9.51277246 49.34548895 6.24580939 42.75288827 3.47265625 36.625 C0.83470927 29.89632365 -1.26222072 23.9821936 -0.87890625 16.69921875 C-0.83056641 15.72275391 -0.78222656 14.74628906 -0.73242188 13.74023438 C-0.67634766 12.73283203 -0.62027344 11.72542969 -0.5625 10.6875 C-0.51029297 9.66076172 -0.45808594 8.63402344 -0.40429688 7.57617188 C-0.27507334 5.05043913 -0.14012709 2.52514739 0 0 Z " fill="#FEF6FA" transform="translate(88,50)"/>
<path d="M0 0 C4.46806332 4.46806332 6.79828749 11.87126618 8 18 C7.0390625 20.19921875 7.0390625 20.19921875 6 22 C1.29115504 16.84922461 -2.65459783 12.45402174 -3.375 5.25 C-3.25125 4.1775 -3.1275 3.105 -3 2 C-2.01 1.34 -1.02 0.68 0 0 Z " fill="#DE93B2" transform="translate(97,77)"/>
<path d="M0 0 C2.64 0.66 5.28 1.32 8 2 C8 2.66 8 3.32 8 4 C8.66 4 9.32 4 10 4 C10 4.66 10 5.32 10 6 C10.66 6.33 11.32 6.66 12 7 C13.33895632 8.66215268 14.67130142 10.32963607 16 12 C17.2375 13.1446875 17.2375 13.1446875 18.5 14.3125 C21.11465323 17.12325223 22.52609762 19.67835819 24.10546875 23.1328125 C25.06822452 25.25482893 25.06822452 25.25482893 27 28 C27 28.99 27 29.98 27 31 C26.01 31 25.02 31 24 31 C23.8040625 30.47792969 23.608125 29.95585938 23.40625 29.41796875 C18.90969143 18.3510078 12.05381 8.69132958 1 3.625 C0.34 3.41875 -0.32 3.2125 -1 3 C-0.67 2.01 -0.34 1.02 0 0 Z " fill="#000000" transform="translate(150,4)"/>
<path d="M0 0 C3.88514091 3.42743937 4.37526196 6.99499639 5 12 C5.54564533 23.90870934 5.54564533 23.90870934 4 27 C3.34 27 2.68 27 2 27 C0.60944182 24.21888363 0.97976148 21.97589586 1.0625 18.875 C1.11623553 13.47756441 0.52536864 9.14811916 -1 4 C-1 1 -1 1 0 0 Z " fill="#D3C6CD" transform="translate(146,39)"/>
<path d="M0 0 C0.66 0.33 1.32 0.66 2 1 C2.66 0.67 3.32 0.34 4 0 C5.81341842 -0.08471364 7.62994161 -0.10721083 9.4453125 -0.09765625 C10.52167969 -0.09443359 11.59804687 -0.09121094 12.70703125 -0.08789062 C13.83496094 -0.07951172 14.96289062 -0.07113281 16.125 -0.0625 C17.26066406 -0.05798828 18.39632812 -0.05347656 19.56640625 -0.04882812 C22.37765638 -0.03701615 25.1888023 -0.02054507 28 0 C28 0.99 28 1.98 28 3 C18.1 3.33 8.2 3.66 -2 4 C-1.34 2.68 -0.68 1.36 0 0 Z " fill="#F3DEE9" transform="translate(116,4)"/>
<path d="M0 0 C1 2 1 2 0.1796875 4.75 C-0.25085938 5.8225 -0.68140625 6.895 -1.125 8 C-1.54007813 9.0725 -1.95515625 10.145 -2.3828125 11.25 C-4.25986814 14.44190137 -5.48964698 15.05445036 -9 16 C-8.34 17.98 -7.68 19.96 -7 22 C-9.8125 22.625 -9.8125 22.625 -13 23 C-13.99 22.34 -14.98 21.68 -16 21 C-16 20.34 -16 19.68 -16 19 C-15.34 19 -14.68 19 -14 19 C-14 18.34 -14 17.68 -14 17 C-13.13375 16.505 -12.2675 16.01 -11.375 15.5 C-6.68635709 12.57793107 -4.6062223 7.70219024 -2 3 C-1.34 2.01 -0.68 1.02 0 0 Z " fill="#000000" transform="translate(166,81)"/>
<path d="M0 0 C0 2.31 0 4.62 0 7 C1.32 7.33 2.64 7.66 4 8 C2.68 8.33 1.36 8.66 0 9 C-0.33 7.68 -0.66 6.36 -1 5 C-4.33054374 4.86521513 -4.33054374 4.86521513 -8 6 C-10.09704436 8.45520293 -11.57276992 11.11265436 -13 14 C-14.32 13.34 -15.64 12.68 -17 12 C-14.56644794 7.51714093 -11.92720685 3.07349363 -6.93359375 1.2421875 C-2.04357394 0 -2.04357394 0 0 0 Z " fill="#000000" transform="translate(129,24)"/>
<path d="M0 0 C1.98 0.99 1.98 0.99 4 2 C4.66 1.34 5.32 0.68 6 0 C7.46022163 0.95545366 8.91811468 1.91446678 10.375 2.875 C11.18710938 3.40867187 11.99921875 3.94234375 12.8359375 4.4921875 C15 6 15 6 17 8 C16.01 9.485 16.01 9.485 15 11 C12.69 10.01 10.38 9.02 8 8 C8 7.34 8 6.68 8 6 C7.236875 5.7525 6.47375 5.505 5.6875 5.25 C2.7635955 3.89004442 1.69995644 2.68414174 0 0 Z " fill="#8E8A8C" transform="translate(99,100)"/>
<path d="M0 0 C0.66 0 1.32 0 2 0 C2.33773437 0.71027344 2.67546875 1.42054687 3.0234375 2.15234375 C3.46945313 3.07144531 3.91546875 3.99054688 4.375 4.9375 C4.81585938 5.85402344 5.25671875 6.77054687 5.7109375 7.71484375 C6.79199162 10.12903802 6.79199162 10.12903802 9 11 C9 11.66 9 12.32 9 13 C11.31 13.66 13.62 14.32 16 15 C16 15.33 16 15.66 16 16 C12.28306946 16.35399338 10.24878287 16.12439143 6.875 14.4375 C2.81264008 10.99332528 0.21777026 7.55880051 -0.25 2.0625 C-0.1675 1.381875 -0.085 0.70125 0 0 Z " fill="#F9F2F6" transform="translate(115,70)"/>
<path d="M0 0 C0 4.17561407 -1.83352478 5.53957787 -4.5 8.6875 C-5.3353125 9.68136719 -6.170625 10.67523438 -7.03125 11.69921875 C-7.6809375 12.45847656 -8.330625 13.21773437 -9 14 C-10.51953125 12.234375 -10.51953125 12.234375 -12 10 C-11.6875 6.25 -11.6875 6.25 -11 3 C-10.01 3 -9.02 3 -8 3 C-8 4.65 -8 6.3 -8 8 C-5.36 5.36 -2.72 2.72 0 0 Z " fill="#FDF5FA" transform="translate(52,20)"/>
<path d="M0 0 C0.33 0 0.66 0 1 0 C1.04898438 1.23234375 1.09796875 2.4646875 1.1484375 3.734375 C1.55198623 12.952621 2.13659063 21.93623208 4 31 C0.66693553 28.09700836 -0.41142531 26.35007688 -1 22 C-1.01484307 20.23267425 -0.97179811 18.464164 -0.87890625 16.69921875 C-0.83056641 15.72275391 -0.78222656 14.74628906 -0.73242188 13.74023438 C-0.67634766 12.73283203 -0.62027344 11.72542969 -0.5625 10.6875 C-0.51029297 9.66076172 -0.45808594 8.63402344 -0.40429688 7.57617188 C-0.27507334 5.05043913 -0.14012709 2.52514739 0 0 Z " fill="#FCE9F3" transform="translate(88,50)"/>
<path d="M0 0 C0.66 0.33 1.32 0.66 2 1 C2 2.98 2 4.96 2 7 C1.34 7 0.68 7 0 7 C0.02320312 7.96421875 0.04640625 8.9284375 0.0703125 9.921875 C0.08835937 11.18515625 0.10640625 12.4484375 0.125 13.75 C0.14820312 15.00296875 0.17140625 16.2559375 0.1953125 17.546875 C0.00941381 20.83356378 -0.45985363 22.21814393 -2 25 C-2.05816623 21.58340509 -2.09365195 18.16693795 -2.125 14.75 C-2.14175781 13.78191406 -2.15851563 12.81382813 -2.17578125 11.81640625 C-2.18222656 10.88183594 -2.18867187 9.94726562 -2.1953125 8.984375 C-2.20578613 8.12553711 -2.21625977 7.26669922 -2.22705078 6.38183594 C-1.98293323 3.82096404 -1.28990512 2.20488971 0 0 Z " fill="#D1CED0" transform="translate(88,43)"/>
<path d="M0 0 C0.99 0 1.98 0 3 0 C2.67854004 0.65250732 2.35708008 1.30501465 2.02587891 1.97729492 C0.73388382 5.78409911 0.64623647 9.3873605 0.5859375 13.36328125 C0.56657135 14.15526413 0.5472052 14.94724701 0.5272522 15.76322937 C0.46772768 18.27954519 0.42118042 20.79590744 0.375 23.3125 C0.33679519 25.0241079 0.29774201 26.73569709 0.2578125 28.44726562 C0.1620487 32.63135749 0.0779182 36.81553931 0 41 C-0.33 41 -0.66 41 -1 41 C-1.02464705 35.32169922 -1.04283462 29.64342931 -1.05493164 23.96508789 C-1.05997256 22.03181415 -1.06680519 20.09854424 -1.07543945 18.1652832 C-1.08751565 15.39273128 -1.09323057 12.62022959 -1.09765625 9.84765625 C-1.10281754 8.97786636 -1.10797882 8.10807648 -1.11329651 7.21192932 C-1.11349185 5.14094186 -1.06208168 3.07005676 -1 1 C-0.67 0.67 -0.34 0.34 0 0 Z " fill="#000000" transform="translate(73,59)"/>
<path d="M0 0 C0.66 0 1.32 0 2 0 C0.60708122 4.87521572 -1.83145441 7.19424816 -6 10 C-9.375 10.3125 -9.375 10.3125 -12 10 C-11 8 -11 8 -7.6875 6.6875 C-4.01037935 5.22569384 -2.33843052 3.2045159 0 0 Z " fill="#FDF6FC" transform="translate(145,76)"/>
<path d="M0 0 C0.66 0 1.32 0 2 0 C0.58707905 4.8274799 -1.42974154 8.7162359 -4 13 C-4.66 13 -5.32 13 -6 13 C-5.42685824 8.2715805 -3.42313355 3.42313355 0 0 Z " fill="#FDF6FA" transform="translate(97,20)"/>
<path d="M0 0 C1.32 0.66 2.64 1.32 4 2 C-1.445 4.475 -1.445 4.475 -7 7 C-4.93302609 2.86605218 -4.12145695 1.76633869 0 0 Z " fill="#FCF3F8" transform="translate(113,7)"/>
<path d="M0 0 C1.66666667 0 3.33333333 0 5 0 C4.67 1.98 4.34 3.96 4 6 C2.68 6 1.36 6 0 6 C-1 3 -1 3 0 0 Z " fill="#938D91" transform="translate(86,38)"/>
<path d="M0 0 C1.48199902 0.44909061 2.96055236 0.90956564 4.4375 1.375 C5.26121094 1.63023438 6.08492187 1.88546875 6.93359375 2.1484375 C9 3 9 3 10 5 C6.53058454 4.54177532 3.32604951 4.10868317 0 3 C0 2.01 0 1.02 0 0 Z " fill="#FCF6FA" transform="translate(144,5)"/>
<path d="M0 0 C2.31 0.33 4.62 0.66 7 1 C7.33 1.99 7.66 2.98 8 4 C5.69 4 3.38 4 1 4 C0.67 4.66 0.34 5.32 0 6 C0 4.02 0 2.04 0 0 Z " fill="#020000" transform="translate(134,105)"/>
<path d="M0 0 C0.66 0 1.32 0 2 0 C2.33 0.66 2.66 1.32 3 2 C3.66 2 4.32 2 5 2 C4.67 4.31 4.34 6.62 4 9 C3.34 8.34 2.68 7.68 2 7 C2 6.01 2 5.02 2 4 C1.34 4 0.68 4 0 4 C0 2.68 0 1.36 0 0 Z " fill="#A5A1A2" transform="translate(145,64)"/>
<path d="M0 0 C1.57035335 2.49409061 2.0274945 3.70443416 1.75 6.6875 C1.5025 7.450625 1.255 8.21375 1 9 C0.01 9.495 0.01 9.495 -1 10 C-1.02689216 8.52093108 -1.04634621 7.04172517 -1.0625 5.5625 C-1.07410156 4.73878906 -1.08570312 3.91507812 -1.09765625 3.06640625 C-1 1 -1 1 0 0 Z " fill="#CCCBCC" transform="translate(115,61)"/>
<path d="M0 0 C0.66 0.33 1.32 0.66 2 1 C4.09821215 0.60061233 4.09821215 0.60061233 6 0 C6.66 0.99 7.32 1.98 8 3 C4.7 3.33 1.4 3.66 -2 4 C-1.34 2.68 -0.68 1.36 0 0 Z " fill="#D9D3D6" transform="translate(116,4)"/>
<path d="M0 0 C1.5 1.25 1.5 1.25 3 3 C3 4.32 3 5.64 3 7 C2.01 6.67 1.02 6.34 0 6 C-1.1875 3.4375 -1.1875 3.4375 -2 1 C-1.34 0.67 -0.68 0.34 0 0 Z " fill="#D8D0D4" transform="translate(146,39)"/>
<path d="M0 0 C2.97 0.33 5.94 0.66 9 1 C8.01 1.33 7.02 1.66 6 2 C6 2.66 6 3.32 6 4 C4.02 3.34 2.04 2.68 0 2 C0 1.34 0 0.68 0 0 Z " fill="#E4DAE0" transform="translate(115,108)"/>
<path d="M0 0 C0.99 0 1.98 0 3 0 C2.34 2.64 1.68 5.28 1 8 C0.34 7.34 -0.32 6.68 -1 6 C-0.625 2.875 -0.625 2.875 0 0 Z " fill="#000000" transform="translate(41,23)"/>
<path d="M0 0 C0.99 0 1.98 0 3 0 C3 1.98 3 3.96 3 6 C1.68 6 0.36 6 -1 6 C-0.67 4.02 -0.34 2.04 0 0 Z " fill="#C0BCBC" transform="translate(145,71)"/>
<path d="M0 0 C0.99 0.33 1.98 0.66 3 1 C1.515 2.485 1.515 2.485 0 4 C-0.99 3.67 -1.98 3.34 -3 3 C-2.01 2.01 -1.02 1.02 0 0 Z " fill="#000000" transform="translate(98,14)"/>
<path d="M0 0 C0.66 0 1.32 0 2 0 C2 0.66 2 1.32 2 2 C1.34 2 0.68 2 0 2 C0 1.34 0 0.68 0 0 Z " fill="#000000" transform="translate(122,78)"/>
<path d="" fill="#000000" transform="translate(0,0)"/>
<path d="" fill="#000000" transform="translate(0,0)"/>
<path d="" fill="#000000" transform="translate(0,0)"/>
<path d="" fill="#000000" transform="translate(0,0)"/>
<path d="" fill="#020000" transform="translate(0,0)"/>
<path d="" fill="#000000" transform="translate(0,0)"/>
<path d="" fill="#000000" transform="translate(0,0)"/>
<path d="" fill="#000300" transform="translate(0,0)"/>
</svg>
