<?xml version="1.0" encoding="UTF-8"?>
<svg version="1.1" xmlns="http://www.w3.org/2000/svg" width="206" height="116">
<path d="M0 0 C0.96955124 0.00424484 1.93910248 0.00848969 2.93803406 0.01286316 C6.02538175 0.02961475 9.11206937 0.06726086 12.19921875 0.10546875 C14.29621451 0.12052012 16.39322053 0.13420773 18.49023438 0.14648438 C23.62264898 0.17950683 28.75457206 0.23126528 33.88671875 0.29296875 C34.93682662 19.40301834 35.04344186 38.4772804 35.01708984 57.60986328 C35.01129058 61.88226082 35.01475273 66.15459692 35.02066231 70.42699242 C35.0242612 73.74342318 35.02313422 77.0598391 35.02053452 80.37627029 C35.01986862 81.95437248 35.02068186 83.53247602 35.02301407 85.11057663 C35.0255404 87.29169117 35.02170504 89.47270185 35.01611328 91.65380859 C35.01531769 92.89158051 35.01452209 94.12935242 35.01370239 95.40463257 C34.88671875 98.29296875 34.88671875 98.29296875 33.88671875 100.29296875 C22.00671875 100.29296875 10.12671875 100.29296875 -2.11328125 100.29296875 C-2.44328125 76.20296875 -2.77328125 52.11296875 -3.11328125 27.29296875 C-9.05328125 30.75796875 -9.05328125 30.75796875 -15.11328125 34.29296875 C-19.4911867 33.19849239 -19.86949235 32.81669796 -22.34765625 29.36328125 C-22.92128906 28.56792969 -23.49492188 27.77257812 -24.0859375 26.953125 C-24.67246094 26.11652344 -25.25898437 25.27992187 -25.86328125 24.41796875 C-26.46527344 23.58910156 -27.06726562 22.76023437 -27.6875 21.90625 C-32.11328125 15.69409899 -32.11328125 15.69409899 -32.11328125 12.29296875 C-30.03034848 11.16722185 -27.94695217 10.04234792 -25.86328125 8.91796875 C-24.703125 8.29148437 -23.54296875 7.665 -22.34765625 7.01953125 C-20.57830402 6.07502197 -18.80312981 5.14019045 -17.00390625 4.25390625 C-15.01893523 3.3198487 -15.01893523 3.3198487 -13.12719727 1.7512207 C-8.75389268 -0.36475728 -4.79444101 -0.07925825 0 0 Z " fill="#DE0A1F" transform="translate(67.11328125,7.70703125)"/>
<path d="M0 0 C0 33 0 66 0 100 C-11.88 100 -23.76 100 -36 100 C-36 75.91 -36 51.82 -36 27 C-36.66 27 -37.32 27 -38 27 C-38.33 27.99 -38.66 28.98 -39 30 C-41.14453125 31.203125 -41.14453125 31.203125 -43.8125 32.25 C-44.68519531 32.60578125 -45.55789062 32.9615625 -46.45703125 33.328125 C-49.22395043 34.0591697 -50.4108852 34.18328517 -53 33 C-54.5625 31.2578125 -54.5625 31.2578125 -56 29.125 C-58.0654471 26.08295563 -60.05174044 24.17698491 -63 22 C-63.625 20 -63.625 20 -64 18 C-64.66 17.01 -65.32 16.02 -66 15 C-66 14.01 -66 13.02 -66 12 C-64.92621094 11.46890625 -63.85242188 10.9378125 -62.74609375 10.390625 C-61.30984158 9.67719255 -59.87364672 8.96364471 -58.4375 8.25 C-57.73302734 7.90195313 -57.02855469 7.55390625 -56.30273438 7.1953125 C-55.60341797 6.84726563 -54.90410156 6.49921875 -54.18359375 6.140625 C-53.54993896 5.82641602 -52.91628418 5.51220703 -52.26342773 5.18847656 C-42.3820871 0 -42.3820871 0 0 0 Z " fill="#E20A1F" transform="translate(171,8)"/>
<path d="M0 0 C0.33 0 0.66 0 1 0 C1 7.92 1 15.84 1 24 C0.67 24 0.34 24 0 24 C0 16.08 0 8.16 0 0 Z " fill="#000000" transform="translate(132,40)"/>
</svg>
