<?xml version="1.0" standalone="no"?>
<!DOCTYPE svg PUBLIC "-//W3C//DTD SVG 20010904//EN"
 "http://www.w3.org/TR/2001/REC-SVG-20010904/DTD/svg10.dtd">
<svg version="1.0" xmlns="http://www.w3.org/2000/svg"
 width="206.000000pt" height="116.000000pt" viewBox="0 0 206.000000 116.000000"
 preserveAspectRatio="xMidYMid meet">

<g transform="translate(0.000000,116.000000) scale(0.100000,-0.100000)"
fill="#000000" stroke="none">
<path d="M338 1028 c-23 -18 -61 -198 -45 -216 9 -11 48 -13 199 -11 141 3
187 1 184 -8 -3 -6 -100 -154 -216 -328 -171 -256 -209 -319 -199 -331 15 -18
212 -20 248 -1 15 7 117 151 253 354 l228 342 20 92 c16 70 18 95 9 105 -16
19 -657 21 -681 2z"/>
<path d="M1116 1027 c-24 -18 -61 -194 -45 -213 9 -11 53 -14 200 -14 l189 0
-211 -316 c-115 -174 -213 -322 -216 -331 -3 -8 0 -19 8 -24 16 -10 202 -12
237 -3 16 5 89 105 248 341 124 183 231 348 239 366 7 17 19 67 26 110 11 68
11 80 -1 87 -9 6 -158 10 -336 10 -247 0 -324 -3 -338 -13z"/>
</g>
</svg>
