<?xml version="1.0" encoding="UTF-8"?>
<svg version="1.1" xmlns="http://www.w3.org/2000/svg" width="206" height="116">
<path d="M0 0 C0.73003235 -0.0099852 1.4600647 -0.0199704 2.21221924 -0.03025818 C3.75535433 -0.04541864 5.29858738 -0.05248461 6.84179688 -0.05200195 C9.18267745 -0.05853667 11.51924993 -0.11294792 13.859375 -0.16992188 C27.65185206 -0.33300985 27.65185206 -0.33300985 32.88256836 4.70019531 C33.40085205 5.29541992 33.91913574 5.89064453 34.453125 6.50390625 C35.33206421 7.3870752 35.33206421 7.3870752 36.22875977 8.28808594 C41.03557719 13.69584278 41.34355067 18.6645151 41.140625 25.69140625 C41.15544922 26.66271484 41.17027344 27.63402344 41.18554688 28.63476562 C41.13303262 33.14172442 41.09579439 35.67364688 38.28515625 39.3046875 C37.35058594 40.03042969 36.41601562 40.75617187 35.453125 41.50390625 C34.46055493 42.46948348 33.48182426 43.44944168 32.515625 44.44140625 C26.390625 50.56640625 26.390625 50.56640625 24.88647461 52.06860352 C23.57201053 53.38485872 22.26418326 54.70773302 20.95703125 56.03125 C18.16689097 58.78656794 15.294784 61.43257148 12.390625 64.06640625 C10.40307864 65.87033409 8.42562477 67.68334594 6.453125 69.50390625 C5.68613281 70.13683594 4.91914063 70.76976563 4.12890625 71.421875 C1.79356162 74.32336379 1.85027324 76.57520036 1.703125 80.25390625 C1.64640625 81.424375 1.5896875 82.59484375 1.53125 83.80078125 C1.50546875 84.6928125 1.4796875 85.58484375 1.453125 86.50390625 C2.443125 86.00890625 2.443125 86.00890625 3.453125 85.50390625 C6.00470155 85.43223275 8.52785471 85.41082183 11.078125 85.44140625 C12.13773438 85.44817383 12.13773438 85.44817383 13.21875 85.45507812 C14.96357775 85.4668675 16.708362 85.48480301 18.453125 85.50390625 C18.453125 82.53390625 18.453125 79.56390625 18.453125 76.50390625 C21.74452488 76.30976742 25.03604569 76.12330149 28.328125 75.94140625 C29.73384766 75.85729492 29.73384766 75.85729492 31.16796875 75.77148438 C32.06386719 75.72314453 32.95976562 75.67480469 33.8828125 75.625 C35.12393799 75.55430298 35.12393799 75.55430298 36.39013672 75.48217773 C38.453125 75.50390625 38.453125 75.50390625 40.453125 76.50390625 C40.453125 86.40390625 40.453125 96.30390625 40.453125 106.50390625 C20.323125 106.50390625 0.193125 106.50390625 -20.546875 106.50390625 C-21.67384954 98.61508444 -21.67384954 98.61508444 -21.6796875 94.4296875 C-21.68202393 93.52017334 -21.68436035 92.61065918 -21.68676758 91.67358398 C-21.66214562 86.9498 -21.6224828 82.22716979 -21.546875 77.50390625 C-21.53011719 76.20710938 -21.51335937 74.9103125 -21.49609375 73.57421875 C-21.45097656 72.54039063 -21.40585938 71.5065625 -21.359375 70.44140625 C-21.32457031 69.58417969 -21.28976563 68.72695312 -21.25390625 67.84375 C-20.24358589 64.50020361 -18.0452803 62.7933935 -15.546875 60.50390625 C-14.16187362 59.10758193 -12.78353973 57.70462791 -11.41015625 56.296875 C-9.89334002 54.76160922 -8.37641031 53.22645555 -6.859375 51.69140625 C-6.08787109 50.90314453 -5.31636719 50.11488281 -4.52148438 49.30273438 C-3.78349609 48.55830078 -3.04550781 47.81386719 -2.28515625 47.046875 C-1.61524658 46.3664917 -0.94533691 45.6861084 -0.25512695 44.98510742 C1.453125 43.50390625 1.453125 43.50390625 3.453125 43.50390625 C3.65679687 42.95476563 3.86046875 42.405625 4.0703125 41.83984375 C6.31454062 38.04874653 9.89313796 35.49386143 13.28515625 32.74609375 C15.14488367 31.20325378 15.14488367 31.20325378 17.453125 28.50390625 C17.453125 26.52390625 17.453125 24.54390625 17.453125 22.50390625 C12.503125 22.50390625 7.553125 22.50390625 2.453125 22.50390625 C2.123125 24.81390625 1.793125 27.12390625 1.453125 29.50390625 C-5.476875 29.50390625 -12.406875 29.50390625 -19.546875 29.50390625 C-19.670625 26.82265625 -19.794375 24.14140625 -19.921875 21.37890625 C-19.97649902 20.54601074 -20.03112305 19.71311523 -20.08740234 18.85498047 C-20.15866032 15.64377412 -20.17880997 13.37848896 -18.25488281 10.71582031 C-16.6484375 9.13671875 -16.6484375 9.13671875 -15.04150391 7.79736328 C-13.27521513 6.38477494 -13.27521513 6.38477494 -11.546875 3.50390625 C-8.10178101 0.05321627 -4.6409655 0.02219837 0 0 Z " fill="#F8FAFC" transform="translate(124.546875,4.49609375)"/>
<path d="M0 0 C2.23496744 0.05049534 4.45883635 0.02076326 6.69384766 -0.01782227 C18.52119801 -0.02526147 18.52119801 -0.02526147 23.39306641 4.17163086 C24.52519307 5.42817921 25.64107357 6.69963804 26.73681641 7.98803711 C27.31939209 8.43824219 27.90196777 8.88844727 28.50219727 9.35229492 C31.30066624 11.53930273 32.53759504 13.15944009 33.37792969 16.65454102 C33.72746377 19.89300778 33.801222 23.0438761 33.79931641 26.30053711 C33.86441406 27.39043945 33.92951172 28.4803418 33.99658203 29.60327148 C34.0337622 34.35947288 33.89386724 37.66079924 30.69189453 41.33374023 C28.31662725 43.23986182 25.884282 45.01097158 23.39022827 46.75704956 C18.49026992 50.40513498 14.21077923 54.90524692 9.85351562 59.17114258 C8.68491114 60.30633028 7.50564267 61.43063465 6.31640625 62.54418945 C-2.02408925 70.01894218 -2.02408925 70.01894218 -5.53662109 80.30834961 C-5.44638672 81.85264648 -5.35615234 83.39694336 -5.26318359 84.98803711 C0.01681641 85.31803711 5.29681641 85.64803711 10.73681641 85.98803711 C10.73681641 82.68803711 10.73681641 79.38803711 10.73681641 75.98803711 C14.21603376 75.9612051 17.69504679 75.94128041 21.17431641 75.92553711 C22.66415039 75.91296875 22.66415039 75.91296875 24.18408203 75.90014648 C25.60043945 75.8953125 25.60043945 75.8953125 27.04541016 75.89038086 C27.9199585 75.88514404 28.79450684 75.87990723 29.69555664 75.87451172 C31.73681641 75.98803711 31.73681641 75.98803711 32.73681641 76.98803711 C32.73681641 86.88803711 32.73681641 96.78803711 32.73681641 106.98803711 C12.93681641 106.98803711 -6.86318359 106.98803711 -27.26318359 106.98803711 C-27.36630859 100.32616211 -27.46943359 93.66428711 -27.57568359 86.80053711 C-27.62120361 84.70556885 -27.66672363 82.61060059 -27.71362305 80.45214844 C-27.72823232 78.78313802 -27.74097195 77.11410973 -27.75146484 75.44506836 C-27.77704468 74.58538452 -27.80262451 73.72570068 -27.82897949 72.83996582 C-27.83224655 68.34253342 -27.7952783 66.61824484 -24.79516602 63.06494141 C-23.54183472 62.03687378 -23.54183472 62.03687378 -22.26318359 60.98803711 C-21.93318359 60.10116211 -21.60318359 59.21428711 -21.26318359 58.30053711 C-20.93318359 57.53741211 -20.60318359 56.77428711 -20.26318359 55.98803711 C-19.53969727 55.7220874 -18.81621094 55.4561377 -18.07080078 55.18212891 C-14.47151552 53.65133723 -12.0733492 51.28449781 -9.34130859 48.57006836 C-8.79585388 48.03459885 -8.25039917 47.49912933 -7.68841553 46.94743347 C-6.54160589 45.8157632 -5.39878904 44.68003408 -4.25976562 43.54052734 C-2.52020538 41.80753239 -0.75808465 40.09995226 1.00634766 38.39233398 C2.12109563 37.28638855 3.23442603 36.17901205 4.34619141 35.07006836 C4.87218933 34.56562698 5.39818726 34.06118561 5.94012451 33.54145813 C9.95903205 29.44595818 9.84004216 28.26545683 10.73681641 21.98803711 C5.45681641 22.31803711 0.17681641 22.64803711 -5.26318359 22.98803711 C-5.59318359 25.29803711 -5.92318359 27.60803711 -6.26318359 29.98803711 C-13.19318359 29.98803711 -20.12318359 29.98803711 -27.26318359 29.98803711 C-27.36630859 27.07991211 -27.46943359 24.17178711 -27.57568359 21.17553711 C-27.62120361 20.26312256 -27.66672363 19.35070801 -27.71362305 18.41064453 C-27.75197021 16.18923057 -27.70000279 14.16877723 -27.26318359 11.98803711 C-25.24365234 10.41381836 -25.24365234 10.41381836 -22.26318359 8.98803711 C-21.16380698 7.61622533 -20.0707882 6.23930916 -18.98193359 4.85913086 C-13.61398148 -0.63093461 -7.18594895 -0.18411327 0 0 Z " fill="#F9FBFC" transform="translate(69.26318359375,4.011962890625)"/>
<path d="M0 0 C0.73003235 -0.0099852 1.4600647 -0.0199704 2.21221924 -0.03025818 C3.75535433 -0.04541864 5.29858738 -0.05248461 6.84179688 -0.05200195 C9.18267745 -0.05853667 11.51924993 -0.11294792 13.859375 -0.16992188 C27.65185206 -0.33300985 27.65185206 -0.33300985 32.88256836 4.70019531 C33.40085205 5.29541992 33.91913574 5.89064453 34.453125 6.50390625 C35.33206421 7.3870752 35.33206421 7.3870752 36.22875977 8.28808594 C41.03557719 13.69584278 41.34355067 18.6645151 41.140625 25.69140625 C41.15544922 26.66271484 41.17027344 27.63402344 41.18554688 28.63476562 C41.13303262 33.14172442 41.09579439 35.67364688 38.28515625 39.3046875 C37.35058594 40.03042969 36.41601562 40.75617187 35.453125 41.50390625 C34.46055493 42.46948348 33.48182426 43.44944168 32.515625 44.44140625 C26.390625 50.56640625 26.390625 50.56640625 24.88647461 52.06860352 C23.57201053 53.38485872 22.26418326 54.70773302 20.95703125 56.03125 C18.16689097 58.78656794 15.294784 61.43257148 12.390625 64.06640625 C10.40307864 65.87033409 8.42562477 67.68334594 6.453125 69.50390625 C5.68613281 70.13683594 4.91914063 70.76976563 4.12890625 71.421875 C1.79356162 74.32336379 1.85027324 76.57520036 1.703125 80.25390625 C1.64640625 81.424375 1.5896875 82.59484375 1.53125 83.80078125 C1.50546875 84.6928125 1.4796875 85.58484375 1.453125 86.50390625 C2.443125 86.00890625 2.443125 86.00890625 3.453125 85.50390625 C6.00470155 85.43223275 8.52785471 85.41082183 11.078125 85.44140625 C12.13773438 85.44817383 12.13773438 85.44817383 13.21875 85.45507812 C14.96357775 85.4668675 16.708362 85.48480301 18.453125 85.50390625 C18.453125 82.53390625 18.453125 79.56390625 18.453125 76.50390625 C21.74452488 76.30976742 25.03604569 76.12330149 28.328125 75.94140625 C29.73384766 75.85729492 29.73384766 75.85729492 31.16796875 75.77148438 C32.06386719 75.72314453 32.95976562 75.67480469 33.8828125 75.625 C35.12393799 75.55430298 35.12393799 75.55430298 36.39013672 75.48217773 C38.453125 75.50390625 38.453125 75.50390625 40.453125 76.50390625 C40.453125 86.40390625 40.453125 96.30390625 40.453125 106.50390625 C20.323125 106.50390625 0.193125 106.50390625 -20.546875 106.50390625 C-21.67384954 98.61508444 -21.67384954 98.61508444 -21.6796875 94.4296875 C-21.68202393 93.52017334 -21.68436035 92.61065918 -21.68676758 91.67358398 C-21.66214562 86.9498 -21.6224828 82.22716979 -21.546875 77.50390625 C-21.53011719 76.20710938 -21.51335937 74.9103125 -21.49609375 73.57421875 C-21.45097656 72.54039063 -21.40585938 71.5065625 -21.359375 70.44140625 C-21.32457031 69.58417969 -21.28976563 68.72695312 -21.25390625 67.84375 C-20.24358589 64.50020361 -18.0452803 62.7933935 -15.546875 60.50390625 C-14.16187362 59.10758193 -12.78353973 57.70462791 -11.41015625 56.296875 C-9.89334002 54.76160922 -8.37641031 53.22645555 -6.859375 51.69140625 C-6.08787109 50.90314453 -5.31636719 50.11488281 -4.52148438 49.30273438 C-3.78349609 48.55830078 -3.04550781 47.81386719 -2.28515625 47.046875 C-1.61524658 46.3664917 -0.94533691 45.6861084 -0.25512695 44.98510742 C1.453125 43.50390625 1.453125 43.50390625 3.453125 43.50390625 C3.65679687 42.95476563 3.86046875 42.405625 4.0703125 41.83984375 C6.31454062 38.04874653 9.89313796 35.49386143 13.28515625 32.74609375 C15.14488367 31.20325378 15.14488367 31.20325378 17.453125 28.50390625 C17.453125 26.52390625 17.453125 24.54390625 17.453125 22.50390625 C12.503125 22.50390625 7.553125 22.50390625 2.453125 22.50390625 C2.123125 24.81390625 1.793125 27.12390625 1.453125 29.50390625 C-5.476875 29.50390625 -12.406875 29.50390625 -19.546875 29.50390625 C-19.670625 26.82265625 -19.794375 24.14140625 -19.921875 21.37890625 C-19.97649902 20.54601074 -20.03112305 19.71311523 -20.08740234 18.85498047 C-20.15866032 15.64377412 -20.17880997 13.37848896 -18.25488281 10.71582031 C-16.6484375 9.13671875 -16.6484375 9.13671875 -15.04150391 7.79736328 C-13.27521513 6.38477494 -13.27521513 6.38477494 -11.546875 3.50390625 C-8.10178101 0.05321627 -4.6409655 0.02219837 0 0 Z M-14.89453125 11.2578125 C-17.65260356 16.67615313 -17.38998105 20.5319051 -16.546875 26.50390625 C-11.926875 26.50390625 -7.306875 26.50390625 -2.546875 26.50390625 C-2.2375 25.36953125 -1.928125 24.23515625 -1.609375 23.06640625 C-0.546875 19.50390625 -0.546875 19.50390625 0.453125 18.50390625 C3.42100093 18.4036003 6.36049672 18.3651884 9.328125 18.37890625 C10.15699219 18.37503906 10.98585938 18.37117188 11.83984375 18.3671875 C12.63777344 18.36847656 13.43570313 18.36976562 14.2578125 18.37109375 C15.35585205 18.37278564 15.35585205 18.37278564 16.47607422 18.37451172 C18.453125 18.50390625 18.453125 18.50390625 21.453125 19.50390625 C21.52022391 25.30708785 21.41456777 30.10542458 17.48144531 34.62670898 C16.19029748 35.92296885 14.87192032 37.19252794 13.53125 38.4375 C12.83424988 39.12272232 12.13724976 39.80794464 11.41912842 40.51393127 C9.20295925 42.68111193 6.95429149 44.81066559 4.703125 46.94140625 C3.20609919 48.396794 1.71128333 49.85445859 0.21875 51.31445312 C-2.52705079 53.9857725 -5.27948311 56.64915741 -8.05761719 59.28686523 C-8.65455887 59.85615753 -9.25150055 60.42544983 -9.86653137 61.01199341 C-11.546875 62.50390625 -11.546875 62.50390625 -14.48217773 64.42504883 C-17.05543705 67.01595613 -17.11562941 68.89983022 -17.1126709 72.47607422 C-17.08709106 73.23291504 -17.06151123 73.98975586 -17.03515625 74.76953125 C-17.03012085 75.47319824 -17.02508545 76.17686523 -17.01989746 76.90185547 C-16.99382127 79.51962274 -16.92401309 82.13680722 -16.859375 84.75390625 C-16.75625 90.61140625 -16.653125 96.46890625 -16.546875 102.50390625 C0.943125 102.50390625 18.433125 102.50390625 36.453125 102.50390625 C36.453125 94.91390625 36.453125 87.32390625 36.453125 79.50390625 C31.503125 79.50390625 26.553125 79.50390625 21.453125 79.50390625 C21.453125 82.80390625 21.453125 86.10390625 21.453125 89.50390625 C13.533125 89.50390625 5.613125 89.50390625 -2.546875 89.50390625 C-3.95404089 75.9013026 -3.95404089 75.9013026 0.33447266 69.84863281 C5.87437797 63.54780825 12.11896651 57.98855688 18.453125 52.50390625 C19.19353027 51.84567871 19.93393555 51.18745117 20.69677734 50.50927734 C23.53750523 47.98694743 26.33355991 45.58980433 29.421875 43.37109375 C34.15434771 39.64646245 36.59028105 36.43281047 37.3671875 30.4375 C37.77816566 24.04207352 38.17476877 17.34662038 34.7734375 11.73046875 C32.74973058 9.98168051 30.78626106 8.79394316 28.453125 7.50390625 C27.87916992 6.83552734 27.30521484 6.16714844 26.71386719 5.47851562 C21.00724534 0.49415736 9.74343052 2.46265034 2.56640625 2.6796875 C-5.44151985 3.29999785 -9.75070673 5.16289562 -14.89453125 11.2578125 Z " fill="#084E9A" transform="translate(124.546875,4.49609375)"/>
<path d="M0 0 C2.23496744 0.05049534 4.45883635 0.02076326 6.69384766 -0.01782227 C18.52119801 -0.02526147 18.52119801 -0.02526147 23.39306641 4.17163086 C24.52519307 5.42817921 25.64107357 6.69963804 26.73681641 7.98803711 C27.31939209 8.43824219 27.90196777 8.88844727 28.50219727 9.35229492 C31.30066624 11.53930273 32.53759504 13.15944009 33.37792969 16.65454102 C33.72746377 19.89300778 33.801222 23.0438761 33.79931641 26.30053711 C33.86441406 27.39043945 33.92951172 28.4803418 33.99658203 29.60327148 C34.0337622 34.35947288 33.89386724 37.66079924 30.69189453 41.33374023 C28.31662725 43.23986182 25.884282 45.01097158 23.39022827 46.75704956 C18.49026992 50.40513498 14.21077923 54.90524692 9.85351562 59.17114258 C8.68491114 60.30633028 7.50564267 61.43063465 6.31640625 62.54418945 C-2.02408925 70.01894218 -2.02408925 70.01894218 -5.53662109 80.30834961 C-5.44638672 81.85264648 -5.35615234 83.39694336 -5.26318359 84.98803711 C0.01681641 85.31803711 5.29681641 85.64803711 10.73681641 85.98803711 C10.73681641 82.68803711 10.73681641 79.38803711 10.73681641 75.98803711 C14.21603376 75.9612051 17.69504679 75.94128041 21.17431641 75.92553711 C22.66415039 75.91296875 22.66415039 75.91296875 24.18408203 75.90014648 C25.60043945 75.8953125 25.60043945 75.8953125 27.04541016 75.89038086 C27.9199585 75.88514404 28.79450684 75.87990723 29.69555664 75.87451172 C31.73681641 75.98803711 31.73681641 75.98803711 32.73681641 76.98803711 C32.73681641 86.88803711 32.73681641 96.78803711 32.73681641 106.98803711 C12.93681641 106.98803711 -6.86318359 106.98803711 -27.26318359 106.98803711 C-27.36630859 100.32616211 -27.46943359 93.66428711 -27.57568359 86.80053711 C-27.62120361 84.70556885 -27.66672363 82.61060059 -27.71362305 80.45214844 C-27.72823232 78.78313802 -27.74097195 77.11410973 -27.75146484 75.44506836 C-27.77704468 74.58538452 -27.80262451 73.72570068 -27.82897949 72.83996582 C-27.83224655 68.34253342 -27.7952783 66.61824484 -24.79516602 63.06494141 C-23.54183472 62.03687378 -23.54183472 62.03687378 -22.26318359 60.98803711 C-21.93318359 60.10116211 -21.60318359 59.21428711 -21.26318359 58.30053711 C-20.93318359 57.53741211 -20.60318359 56.77428711 -20.26318359 55.98803711 C-19.53969727 55.7220874 -18.81621094 55.4561377 -18.07080078 55.18212891 C-14.47151552 53.65133723 -12.0733492 51.28449781 -9.34130859 48.57006836 C-8.79585388 48.03459885 -8.25039917 47.49912933 -7.68841553 46.94743347 C-6.54160589 45.8157632 -5.39878904 44.68003408 -4.25976562 43.54052734 C-2.52020538 41.80753239 -0.75808465 40.09995226 1.00634766 38.39233398 C2.12109563 37.28638855 3.23442603 36.17901205 4.34619141 35.07006836 C4.87218933 34.56562698 5.39818726 34.06118561 5.94012451 33.54145813 C9.95903205 29.44595818 9.84004216 28.26545683 10.73681641 21.98803711 C5.45681641 22.31803711 0.17681641 22.64803711 -5.26318359 22.98803711 C-5.59318359 25.29803711 -5.92318359 27.60803711 -6.26318359 29.98803711 C-13.19318359 29.98803711 -20.12318359 29.98803711 -27.26318359 29.98803711 C-27.36630859 27.07991211 -27.46943359 24.17178711 -27.57568359 21.17553711 C-27.62120361 20.26312256 -27.66672363 19.35070801 -27.71362305 18.41064453 C-27.75197021 16.18923057 -27.70000279 14.16877723 -27.26318359 11.98803711 C-25.24365234 10.41381836 -25.24365234 10.41381836 -22.26318359 8.98803711 C-21.16380698 7.61622533 -20.0707882 6.23930916 -18.98193359 4.85913086 C-13.61398148 -0.63093461 -7.18594895 -0.18411327 0 0 Z M-19.63818359 8.80053711 C-23.91230598 14.56423981 -24.25969641 19.01244737 -23.26318359 25.98803711 C-18.97318359 25.98803711 -14.68318359 25.98803711 -10.26318359 25.98803711 C-9.60318359 24.00803711 -8.94318359 22.02803711 -8.26318359 19.98803711 C-6.0234688 17.74832231 -0.83420871 18.80271878 2.17431641 18.80053711 C3.05925781 18.78829102 3.94419922 18.77604492 4.85595703 18.76342773 C5.70222656 18.76149414 6.54849609 18.75956055 7.42041016 18.75756836 C8.19956787 18.75345947 8.97872559 18.74935059 9.78149414 18.74511719 C11.73681641 18.98803711 11.73681641 18.98803711 13.73681641 20.98803711 C14.15087891 23.37084961 14.15087891 23.37084961 14.36181641 26.11303711 C14.43658203 27.02311523 14.51134766 27.93319336 14.58837891 28.87084961 C14.63736328 29.56952148 14.68634766 30.26819336 14.73681641 30.98803711 C14.15244812 31.25854385 13.56807983 31.5290506 12.96600342 31.80775452 C-0.34381281 38.85487274 -19.76700917 56.42113379 -25.25213623 70.53222656 C-28.07808053 81.55417745 -25.87304833 91.71898393 -24.26318359 102.98803711 C-6.77318359 102.98803711 10.71681641 102.98803711 28.73681641 102.98803711 C28.73681641 95.72803711 28.73681641 88.46803711 28.73681641 80.98803711 C24.11681641 80.98803711 19.49681641 80.98803711 14.73681641 80.98803711 C14.73681641 83.95803711 14.73681641 86.92803711 14.73681641 89.98803711 C6.81681641 89.98803711 -1.10318359 89.98803711 -9.26318359 89.98803711 C-10.31391241 75.04433834 -10.31391241 75.04433834 -6.82128906 69.83911133 C-2.86834479 65.45156687 1.72367426 61.78732594 6.29248047 58.06469727 C10.48479698 54.50298689 14.27543053 50.54983231 18.11181641 46.61303711 C19.5125854 45.18572889 20.91601998 43.76102924 22.32275391 42.33959961 C23.20519775 41.43975342 23.20519775 41.43975342 24.10546875 40.52172852 C25.73681641 38.98803711 25.73681641 38.98803711 28.73681641 36.98803711 C30.33989805 30.23314492 31.01797002 19.38073761 27.75830078 13.10375977 C25.24983855 10.02619267 22.09266353 8.03022784 18.73681641 5.98803711 C18.24181641 4.99803711 18.24181641 4.99803711 17.73681641 3.98803711 C-2.32819252 1.51476854 -2.32819252 1.51476854 -19.63818359 8.80053711 Z " fill="#0B519D" transform="translate(69.26318359375,4.011962890625)"/>
<path d="M0 0 C0.33 0 0.66 0 1 0 C1 5.28 1 10.56 1 16 C0.67 16 0.34 16 0 16 C0 10.72 0 5.44 0 0 Z " fill="#000000" transform="translate(166,24)"/>
<path d="" fill="#000000" transform="translate(0,0)"/>
</svg>
