<?xml version="1.0" standalone="no"?>
<!DOCTYPE svg PUBLIC "-//W3C//DTD SVG 20010904//EN"
 "http://www.w3.org/TR/2001/REC-SVG-20010904/DTD/svg10.dtd">
<svg version="1.0" xmlns="http://www.w3.org/2000/svg"
 width="206.000000pt" height="116.000000pt" viewBox="0 0 206.000000 116.000000"
 preserveAspectRatio="xMidYMid meet">

<g transform="translate(0.000000,116.000000) scale(0.100000,-0.100000)"
fill="#000000" stroke="none">
<path d="M718 1029 c-98 -8 -202 -55 -271 -123 -51 -49 -113 -165 -103 -191 4
-12 28 -15 120 -15 63 0 122 3 131 6 9 4 25 24 36 45 42 84 159 93 159 13 0
-64 -68 -128 -297 -277 -153 -99 -233 -161 -250 -191 -6 -11 -17 -52 -24 -89
-11 -58 -10 -70 2 -78 8 -5 172 -9 366 -9 298 0 354 2 366 15 14 13 37 96 37
130 0 13 33 15 205 15 l206 0 -8 -37 c-4 -21 -8 -56 -8 -78 l0 -40 90 -3 c128
-4 151 2 164 41 6 18 13 51 17 73 l6 42 70 4 c46 2 72 9 78 18 13 21 33 117
34 165 l1 40 -66 5 -65 5 52 240 c35 165 48 244 42 253 -8 8 -50 12 -148 12
-132 0 -140 -1 -167 -24 -15 -13 -131 -132 -258 -265 l-230 -240 -16 -68 -16
-68 -149 -2 -149 -3 25 20 c14 12 65 49 115 83 120 83 195 154 230 219 27 47
30 62 30 139 0 78 -2 89 -28 122 -57 75 -172 109 -329 96z m761 -418 l-22
-111 -84 0 -85 0 34 39 c61 70 173 189 176 186 2 -2 -7 -53 -19 -114z"/>
</g>
</svg>
